<svg width="158" height="44" viewBox="0 0 158 44" fill="none" xmlns="http://www.w3.org/2000/svg">
<path d="M157.992 34.8937C157.771 40.0399 153.247 44 148.042 44H133.621C133.069 44 132.62 43.558 132.62 43.0104V38.7738C132.62 38.2281 133.067 37.7842 133.621 37.7842H147.742C149.622 37.7842 151.146 36.278 151.146 34.4189V33.8077C151.146 31.9486 149.62 30.4405 147.74 30.4405H141.115C138.572 30.4405 136.271 29.4109 134.587 27.7483C132.525 25.7091 131.424 22.7003 132.065 19.4733C132.986 14.9001 137.29 11.7731 141.994 11.7731H154.275V15.515C154.275 16.8756 153.149 17.9889 151.773 17.9889H141.573C140.009 17.9889 138.73 19.2532 138.73 20.7994V21.2142C138.73 22.7604 140.009 24.0246 141.573 24.0246H147.44C150.364 24.0246 152.986 25.1925 154.908 27.0734C156.91 29.0726 158.111 31.8449 157.992 34.8937Z" fill="#8489A8"/>
<path d="M85.4998 11.7713V15.5131C85.4998 16.8793 84.3793 17.9871 82.9976 17.9871H77.6252C76.0577 17.9871 74.7882 19.2441 74.7882 20.7921V42.8758C74.7882 43.4961 74.2804 43.9982 73.653 43.9982H68.6155C67.9881 43.9982 67.4803 43.4961 67.4803 42.8758V21.3106C67.4803 16.0425 71.8002 11.7713 77.1285 11.7713H85.4998Z" fill="#8489A8"/>
<path d="M124.501 11.7713V42.8758C124.501 43.4961 123.993 43.9982 123.366 43.9982H118.328C117.701 43.9982 117.193 43.4961 117.193 42.8758V12.8937C117.193 12.2734 117.701 11.7713 118.328 11.7713H124.501Z" fill="#8489A8"/>
<path d="M101.328 43.9945C96.3089 43.9945 92.2392 39.9707 92.2392 35.0083V6.234C92.2392 5.61733 92.7451 5.11708 93.3688 5.11708H99.0871V11.7658H109.659V15.5168C109.659 16.8793 108.531 17.9944 107.153 17.9944H99.0871V35.252C99.0871 36.6491 100.233 37.7824 101.646 37.7824H108.917C109.473 37.7824 109.924 38.228 109.924 38.7774V43.005C109.924 43.5507 109.477 43.9945 108.923 43.9945H101.328Z" fill="#8489A8"/>
<path d="M124.267 7.2254H117.427C117.298 7.2254 117.193 7.12171 117.193 6.99438V0.231023C117.193 0.103687 117.298 0 117.427 0H124.501V6.99438C124.501 7.12171 124.396 7.2254 124.267 7.2254Z" fill="#8489A8"/>
<path d="M50.1305 11.7713H37.3895V15.5131C37.3895 16.8793 38.51 17.9871 39.8917 17.9871H50.0937C51.6539 17.9871 52.9307 19.2495 52.9307 20.7921V24.1538H43.3175C37.9893 24.1538 33.6693 28.425 33.6693 33.6931V34.4589C33.6693 39.727 37.9893 43.9982 43.3175 43.9982H56.9398C58.5073 43.9982 59.7768 42.7412 59.7768 41.1932V21.3106C59.7787 16.0407 55.4587 11.7713 50.1305 11.7713ZM52.9307 36.6745C52.9307 37.2876 52.4303 37.7824 51.79 37.7824H43.3598C41.7978 37.7824 40.5172 36.5163 40.5172 34.9919V33.2347C40.5172 31.6848 41.7886 30.4296 43.3543 30.4296H52.9307V36.6745Z" fill="#8489A8"/>
<path d="M0 11.7713L10.903 42.1336C11.3041 43.2524 12.3767 44 13.5763 44H17.6883C18.8898 44 19.9606 43.2524 20.3616 42.1336L31.2646 11.7713H24.7258C24.2382 11.7713 23.7985 12.0805 23.6495 12.5444L15.8375 35.7141L8.03096 12.5262C7.87457 12.0733 7.4422 11.7713 6.96016 11.7713H0Z" fill="#8489A8"/>
</svg>
