<svg width="121" height="44" viewBox="0 0 121 44" fill="none" xmlns="http://www.w3.org/2000/svg">
<path fill-rule="evenodd" clip-rule="evenodd" d="M9.12537 0.580368C9.02243 0.899571 7.11424 7.31875 4.88441 14.8452C2.65488 22.3717 0.804115 28.5984 0.772042 28.6824C0.726224 28.8028 1.64565 28.8351 5.12083 28.8351H9.52766L9.6477 28.3769C9.71368 28.1249 9.88382 27.4514 10.0259 26.8802C10.1679 26.309 10.338 25.6355 10.404 25.3835L10.5241 24.9253H13.6874H16.8507L17.0333 25.5667C17.1338 25.9195 17.2795 26.4556 17.3568 26.758C17.4341 27.0604 17.5798 27.5965 17.6803 27.9493L17.863 28.5908H22.2609C26.3941 28.5908 26.6552 28.5779 26.5917 28.3769C26.5544 28.2593 24.8179 22.1151 22.7329 14.723C20.6478 7.33097 18.8588 0.994262 18.7567 0.641459L18.5719 0H13.9421H9.31231L9.12537 0.580368ZM97.6309 0.349443C97.6309 0.532717 97.5063 0.59167 96.9913 0.652761C94.6451 0.930422 94.6087 3.97613 96.9482 4.26173C97.5133 4.33046 97.5732 4.36803 97.6086 4.67349C97.6673 5.18391 98.572 5.18483 98.6307 4.67441C98.6652 4.37628 98.7324 4.33046 99.2425 4.25776C100.507 4.07846 100.99 3.46938 100.943 2.11193C100.917 1.34493 99.9322 0.610914 98.9303 0.610914C98.6899 0.610914 98.6084 0.549211 98.6084 0.366548C98.6084 0.162808 98.5268 0.122183 98.1196 0.122183C97.7247 0.122183 97.6309 0.165863 97.6309 0.349443ZM101.989 0.20374C101.944 0.248336 101.907 1.32049 101.907 2.5863V4.88731H102.457H103.007V2.50475V0.122183H102.539C102.281 0.122183 102.033 0.158838 101.989 0.20374ZM104.31 0.20374C104.265 0.248336 104.229 1.32049 104.229 2.5863V4.88731H104.779H105.328V4.03203V3.17675H106.065C107.779 3.17675 108.658 1.88039 107.708 0.752035C107.283 0.24742 104.686 -0.171972 104.31 0.20374ZM108.953 0.20374C108.908 0.248336 108.872 1.32049 108.872 2.5863V4.88731H109.418H109.964L109.998 3.33712L110.032 1.78692L110.582 3.33651L111.132 4.88609L111.698 4.8867L112.263 4.88731L112.771 3.45166C113.493 1.41182 113.511 1.40724 113.513 3.26839L113.515 4.88731H114.003H114.492V2.50475V0.122183H113.766C112.912 0.122183 113.026 -0.0216875 112.296 1.98394L111.714 3.58209L111.448 2.8603C111.301 2.4632 111.012 1.68459 110.804 1.13019L110.428 0.122183H109.731C109.348 0.122183 108.998 0.158838 108.953 0.20374ZM117.012 0.219623C116.906 0.392207 115.226 4.69335 115.226 4.79567C115.223 5.19888 116.301 4.85402 116.482 4.39339L116.676 3.89977L117.681 3.9352L118.686 3.97094L118.829 4.39858C118.963 4.79812 119.01 4.82866 119.553 4.86379C120.066 4.89709 120.125 4.87601 120.062 4.68052C120.023 4.55894 119.616 3.49748 119.158 2.32147L118.325 0.183274L117.702 0.146619C117.36 0.126765 117.049 0.159448 117.012 0.219623ZM106.77 1.24626C107.264 1.74019 106.835 2.32147 105.976 2.32147H105.328V1.71056V1.09964H105.976C106.332 1.09964 106.69 1.16562 106.77 1.24626ZM118.02 2.11223C118.369 3.06282 118.373 3.05457 117.613 3.05457H116.946L117.269 2.13667C117.63 1.11431 117.654 1.11339 118.02 2.11223ZM97.6056 2.47542L97.6413 3.42112H97.2641C96.2536 3.42112 95.9127 2.03984 96.8245 1.63908C97.4904 1.34645 97.5659 1.4274 97.6056 2.47542ZM99.3118 1.59632C100.297 1.93965 100.001 3.42112 98.9477 3.42112H98.6084V2.44366C98.6084 1.38158 98.6279 1.35806 99.3118 1.59632ZM30.3082 17.9609V28.5908H33.9737H37.6392V24.8031V21.0154H39.9606H42.2821V24.8031V28.5908H45.9476H49.6131V17.9609V7.33097H45.9476H42.2821V11.1186V14.9063H39.9606H37.6392V11.1186V7.33097H33.9737H30.3082V17.9609ZM53.0672 7.85024C53.2324 8.13584 54.5031 10.4369 55.8908 12.9633L58.4142 17.5571L55.2524 23.0434L52.0906 28.5297L56.5024 28.5617C58.9286 28.5795 60.9691 28.5727 61.0366 28.5468C61.1041 28.5208 61.9566 27.2012 62.931 25.6141L64.7027 22.7284L64.7353 25.6596L64.768 28.5908H68.4292H72.0904L72.1231 25.6596L72.1558 22.7284L73.9274 25.6141C74.9019 27.2012 75.7544 28.5208 75.8219 28.5468C75.8894 28.5727 77.9305 28.5795 80.3576 28.5617L84.7709 28.5297L81.6088 23.0412L78.4467 17.5525L80.9689 12.9611C82.3559 10.4356 83.626 8.13584 83.7913 7.85024L84.0918 7.33097H79.9306H75.7697L73.932 10.0404L72.0947 12.7498V10.0404V7.33097H68.4292H64.7637V10.0404V12.7498L62.9264 10.0404L61.0888 7.33097H56.9279H52.7666L53.0672 7.85024ZM87.4897 17.9609V28.5908H91.1552H94.8207V17.9609V7.33097H91.1552H87.4897V17.9609ZM107.491 7.52493C103.202 8.30049 99.6705 11.8697 98.9169 16.1914C97.119 26.5017 109.672 33.0541 117.063 25.663C124.485 18.2404 117.844 5.65401 107.491 7.52493ZM14.6593 13.1652C15.1545 15.03 15.5849 16.6245 15.616 16.7085C15.6597 16.8267 15.2247 16.8612 13.6913 16.8612C12.1579 16.8612 11.723 16.8267 11.7667 16.7085C11.7978 16.6245 12.2282 15.03 12.7234 13.1652C13.2185 11.3004 13.6541 9.77462 13.6913 9.77462C13.7286 9.77462 14.1642 11.3004 14.6593 13.1652ZM110.323 15.2188C111.892 15.6846 112.809 17.3289 112.361 18.872C111.735 21.024 109.147 21.7889 107.503 20.308C105.139 18.1787 107.28 14.3149 110.323 15.2188ZM1.9618 31.4385C1.36219 31.6276 0.33921 32.6866 0.155325 33.3089C-0.0517749 34.0108 -0.0517749 41.2538 0.155325 41.9557C0.353872 42.6268 1.36585 43.6388 2.03694 43.8373C2.77126 44.0542 115.76 44.0542 116.494 43.8373C117.165 43.6388 118.177 42.6268 118.376 41.9557C118.583 41.2538 118.583 34.0108 118.376 33.3089C118.177 32.6378 117.165 31.6258 116.494 31.4272C115.802 31.2229 2.61089 31.2339 1.9618 31.4385ZM72.9326 37.3617C74.0896 40.5995 74.0337 40.3203 73.5239 40.3203C73.1317 40.3203 73.1125 40.2962 72.8434 39.4604L72.5663 38.6009L71.4447 38.6357L70.3231 38.6708L70.0338 39.4956C69.754 40.2931 69.7308 40.3203 69.3331 40.3203H68.9216L69.1452 39.7399C69.2683 39.4207 69.7473 38.1287 70.2091 36.8686L71.0494 34.5777H71.4939H71.938L72.9326 37.3617ZM99.0797 37.3617C100.237 40.5995 100.181 40.3203 99.6711 40.3203C99.2789 40.3203 99.2596 40.2962 98.9905 39.4604L98.7135 38.6009L97.5918 38.6357L96.4702 38.6708L96.1809 39.4956C95.9011 40.2931 95.8779 40.3203 95.4802 40.3203H95.0687L95.2923 39.7399C95.4154 39.4207 95.8944 38.1287 96.3562 36.8686L97.1966 34.5777H97.641H98.0851L99.0797 37.3617ZM9.29276 35.0054V35.3108H7.76548H6.23819V36.1661V37.0214H7.28072C8.99433 37.0214 9.65931 37.4826 9.65931 38.6708C9.65931 39.9388 9.02457 40.3203 6.91417 40.3203H5.5051V37.5101V34.6999H7.39893H9.29276V35.0054ZM12.713 36.5308C13.2127 37.5376 13.6559 38.3211 13.6978 38.2719C13.7396 38.2224 14.0667 37.3986 14.4251 36.441L15.0763 34.6999H15.4966C15.7828 34.6999 15.898 34.7488 15.8579 34.8526C14.0099 39.6388 13.3181 40.682 12.1809 40.3967C11.5428 40.2363 11.7343 39.6483 12.4243 39.6483C13.4232 39.6483 13.4085 39.5182 12.1308 37.0428C10.8329 34.5279 10.8863 34.6999 11.4038 34.6999C11.7978 34.6999 11.8183 34.7286 12.713 36.5308ZM21.5669 37.2047L21.5721 39.6483L21.9081 39.6871C22.2411 39.7253 22.2441 39.7338 22.2441 40.634V41.5421H21.8776C21.5193 41.5421 21.511 41.5287 21.511 40.9312V40.3203H19.5561H17.6012V40.9312C17.6012 41.5287 17.5929 41.5421 17.2346 41.5421H16.8681V40.6343C16.8681 39.7858 16.8861 39.7238 17.143 39.6874C17.5954 39.623 17.7524 38.8923 18.0395 35.5213L18.1101 34.6932L19.8359 34.7271L21.5617 34.761L21.5669 37.2047ZM24.3212 37.5101V40.3203H23.9547H23.5881V37.5101V34.6999H23.9547H24.3212V37.5101ZM29.649 34.9504C30.4918 35.3585 30.6763 36.244 30.0638 36.9417C29.7233 37.3296 29.7141 37.3638 29.9355 37.4218C30.6521 37.6091 30.8782 39.0356 30.2917 39.6715C29.8063 40.1984 29.3393 40.3203 27.8074 40.3203H26.3984V37.5101V34.6999H27.765C28.893 34.6999 29.2217 34.7436 29.649 34.9504ZM36.2952 35.0054V35.3108H34.6457H32.9962V36.2272V37.1436H34.5235H36.0508V37.449V37.7545H34.5235H32.9962V38.7319V39.7094H34.7068H36.4173V40.0149V40.3203H34.3402H32.2631V37.5101V34.6999H34.2791H36.2952V35.0054ZM42.4043 37.5101V40.3203H42.0377H41.6712V37.8156V35.3108H40.7133H39.7557L39.617 37.0519C39.4126 39.6159 39.022 40.5195 38.1597 40.4202C37.7378 40.3716 37.5692 39.7094 37.9785 39.7094C38.5149 39.7094 38.861 38.7515 38.861 37.2676C38.861 36.8836 38.8964 36.149 38.9401 35.6346L39.0189 34.6999H40.7118H42.4043V37.5101ZM44.9701 35.8606V37.0214L45.9781 37.0284C47.6716 37.04 48.3919 37.5266 48.3909 38.6583C48.3897 39.9037 47.7015 40.3203 45.6461 40.3203H44.237V37.5101V34.6999H44.6036H44.9701V35.8606ZM50.8349 35.8606V37.0214H52.3011H53.7673V35.8606V34.6999H54.1338H54.5004V37.5101V40.3203H54.1338H53.7673V38.9763V37.6323H52.3011H50.8349V38.9763V40.3203H50.4684H50.1018V37.5101V34.6999H50.4684H50.8349V35.8606ZM57.3106 37.5101V40.3203H56.944H56.5775V37.5101V34.6999H56.944H57.3106V37.5101ZM64.0145 37.0299C64.4396 38.3113 64.8068 39.3407 64.8303 39.3169C64.8542 39.2934 65.225 38.2585 65.6545 37.0174L66.4355 34.761L66.9438 34.7234L67.4518 34.6859V37.5031V40.3203H67.1463H66.8408L66.8311 37.9683L66.8216 35.6163L66.0268 37.9683L65.232 40.3203H64.8425H64.4531L63.7386 38.1516C63.3458 36.9588 62.9759 35.9306 62.9166 35.8667C62.854 35.7995 62.8088 36.7098 62.8088 38.0355V40.3203H62.5034H62.1979V37.5101V34.6999H62.7196H63.2413L64.0145 37.0299ZM79.4257 35.0054C79.4257 35.3041 79.4052 35.3108 78.5093 35.3108H77.5929V37.8156V40.3203H77.2288H76.865L76.8317 37.8461L76.7987 35.3719L75.8518 35.3362C74.9373 35.3017 74.9049 35.2904 74.9049 35.0002V34.6999H77.1653H79.4257V35.0054ZM84.9239 35.0054V35.3108H83.2744H81.625V36.2272V37.1436H83.1523H84.6795V37.449V37.7545H83.1523H81.625V38.7319V39.7094H83.3355H85.0461V40.0149V40.3203H82.969H80.8919V37.5101V34.6999H82.9079H84.9239V35.0054ZM89.9221 34.8597C90.5455 35.0781 90.8498 35.5665 90.8498 36.3494C90.8498 37.5636 90.2535 37.9799 88.4977 37.9918L87.4897 37.9988V39.1596V40.3203H87.1232H86.7566V37.5101V34.6999L88.1312 34.7069C88.8872 34.7106 89.693 34.7793 89.9221 34.8597ZM93.5989 37.5101V40.3203H93.2323H92.8658V37.5101V34.6999H93.2323H93.5989V37.5101ZM105.817 37.5101V40.3203H105.451H105.084V37.8156V35.3108H104.126H103.169L103.03 37.0519C102.826 39.6159 102.435 40.5195 101.573 40.4202C101.151 40.3716 100.982 39.7094 101.391 39.7094C101.928 39.7094 102.274 38.7515 102.274 37.2676C102.274 36.8836 102.309 36.149 102.353 35.6346L102.432 34.6999H104.125H105.817V37.5101ZM108.411 36.9285L108.444 39.1574L109.841 36.9285C111.196 34.7671 111.25 34.6999 111.643 34.6999H112.048V37.5101V40.3203H111.685H111.321L111.288 38.1057L111.254 35.8909L109.872 38.1057C108.515 40.2794 108.482 40.3203 108.07 40.3203H107.65V37.5101V34.6999H108.014H108.377L108.411 36.9285ZM18.7683 35.4635C18.7424 35.5475 18.688 36.1496 18.6477 36.8018C18.5799 37.8996 18.454 38.7588 18.2619 39.4345C18.1843 39.7073 18.1938 39.7094 19.4807 39.7094H20.7779V37.5101V35.3108H19.7965C19.1181 35.3108 18.8007 35.3579 18.7683 35.4635ZM27.1314 36.2272V37.1436L27.9562 37.1313C29.0369 37.1155 29.3503 37.0174 29.5693 36.6276C30.0079 35.8457 29.35 35.331 27.8951 35.3178L27.1314 35.3108V36.2272ZM87.4897 36.3494V37.4224L88.543 37.3568C89.7853 37.2792 90.08 37.0861 90.08 36.3494C90.08 35.6126 89.7853 35.4196 88.543 35.342L87.4897 35.2763V36.3494ZM71.021 36.7465C70.8038 37.3345 70.6267 37.8568 70.6273 37.9072C70.6279 37.9576 71.018 37.9988 71.4939 37.9988C72.1381 37.9988 72.3437 37.9597 72.2972 37.8461C72.263 37.7621 72.0819 37.2398 71.8952 36.6854C71.4777 35.4461 71.5021 35.4443 71.021 36.7465ZM97.1681 36.7465C96.951 37.3345 96.7738 37.8568 96.7744 37.9072C96.775 37.9576 97.1651 37.9988 97.641 37.9988C98.2852 37.9988 98.4908 37.9597 98.4443 37.8461C98.4101 37.7621 98.229 37.2398 98.0424 36.6854C97.6248 35.4461 97.6492 35.4443 97.1681 36.7465ZM6.23819 38.6708V39.7094L7.00184 39.7088C8.44879 39.7076 9.09758 39.276 8.88009 38.4595C8.7124 37.8302 8.26643 37.6408 6.94075 37.6353L6.23819 37.6323V38.6708ZM44.9701 38.6861V39.7399L46.0142 39.6853C47.2455 39.6205 47.5604 39.4165 47.5604 38.6825C47.5604 37.9176 47.0506 37.6344 45.6727 37.6329L44.9701 37.6323V38.6861ZM27.1314 38.7319V39.7094H27.9907C29.6554 39.7094 30.475 38.8877 29.6417 38.0544C29.3674 37.7801 29.247 37.7545 28.2366 37.7545H27.1314V38.7319Z" fill="#8489A8"/>
</svg>
