<svg width="75" height="68" viewBox="0 0 75 68" fill="none" xmlns="http://www.w3.org/2000/svg">
<rect width="75" height="68" fill="#F5F5F5"/>
<g id="Frame 2894">
<rect width="3925" height="2677" transform="translate(-1342 -1046)" fill="#1C1919"/>
<g id="2">
<path id="IbudMarket 1" fill-rule="evenodd" clip-rule="evenodd" d="M29.8029 3.91697C25.7966 6.06994 22.5095 7.85863 22.4983 7.89193C22.4799 7.9459 37.0015 13.8648 37.1459 13.8623C37.1781 13.8617 37.2045 10.7419 37.2045 6.92941C37.2045 3.11693 37.1781 -0.00143482 37.1459 4.95284e-07C37.1135 0.00114875 33.8091 1.764 29.8029 3.91697ZM22.4406 20.5683L22.4503 29.8603L22.7586 30.0193C22.928 30.1066 23.3841 30.3089 23.7717 30.4691C24.3263 30.6985 29.5861 32.937 36.2844 35.7947L36.8135 36.0206L36.7937 26.574L36.7739 17.1273L33.4841 15.781C31.6748 15.0407 29.6481 14.2039 28.9804 13.922C27.5442 13.3151 22.527 11.2764 22.4701 11.2764C22.4486 11.2764 22.4354 15.4578 22.4406 20.5683ZM45.5072 13.9538C42.0823 15.4199 38.9805 16.7424 38.6145 16.8931C38.2482 17.0441 37.8518 17.2175 37.7333 17.2786L37.518 17.3897V26.6693C37.518 33.5226 37.5409 35.9489 37.6064 35.9489C37.714 35.9489 42.272 34.1048 44.7628 33.0533C45.7538 32.6353 47.7629 31.8066 49.2275 31.212L51.8906 30.131V20.7035C51.8906 14.4671 51.8642 11.2784 51.8122 11.2824C51.7692 11.2859 48.9319 12.4878 45.5072 13.9538ZM47.9162 21.6207L47.8958 25.6206L46.7671 26.0851C46.1462 26.3409 45.6258 26.5499 45.6111 26.5499C45.5962 26.5499 45.593 24.7457 45.6042 22.5402L45.6246 18.5308L46.7212 18.0827C47.3243 17.8361 47.8445 17.6314 47.8772 17.6277C47.9099 17.6239 47.9274 19.4207 47.9162 21.6207ZM44.9589 22.8198V26.8438L43.7673 27.3321C43.1119 27.6008 42.5304 27.8382 42.4749 27.8594C42.3934 27.8907 42.3739 27.1228 42.3739 23.8701V19.8424L43.6467 19.3265C44.3469 19.0426 44.9285 18.8072 44.9391 18.8029C44.95 18.7989 44.9589 20.6065 44.9589 22.8198ZM0 43.9772V45.6614H2.19316H4.38632V43.9772V42.2932H2.19316H0V43.9772ZM7.0494 49.93V57.5667H9.24227H11.4354V51.6139V45.6614H19.1505H26.8656V43.9772V42.2932H16.9574H7.0494V49.93ZM30.4686 45.0668C30.4686 48.9508 30.7484 49.6438 32.6663 50.5055C33.8622 51.0426 33.5215 51.0194 40.5531 51.0464L46.917 51.071L46.9149 51.8321C46.9118 53.1144 46.7017 53.6256 46.0311 53.9842L45.703 54.1596H40.9251H36.1472L35.7557 53.9638C35.5143 53.8432 35.2912 53.6552 35.1747 53.4743L34.9852 53.1804H32.7269H30.4686V53.7608C30.4686 55.6692 31.7164 56.9702 34.0089 57.4525C34.8092 57.621 46.958 57.6218 47.7578 57.4536C49.4239 57.1031 50.4507 56.3987 51.0191 55.2168L51.2639 54.7078L51.2855 48.5004L51.3067 42.2932H49.1176H46.9282L46.9029 44.3885C46.861 47.872 47.1854 47.6938 40.8858 47.6938C34.5974 47.6938 34.912 47.8689 34.8686 44.3492L34.8434 42.2932H32.656H30.4686V45.0668ZM53.9661 49.93V57.5667H56.1592H58.3524V51.6119V45.657L63.7004 45.6789L69.0483 45.7004L69.437 45.9005C69.7129 46.0426 69.894 46.2111 70.0614 46.4818L70.2971 46.8627L70.3218 49.8063C70.3599 54.3797 70.5359 54.1977 66.0729 54.2003L63.326 54.2018L62.4508 55.4338C61.9694 56.1116 61.4291 56.87 61.2497 57.1195L60.9239 57.573L66.0414 57.5463C71.7134 57.5168 71.4468 57.5397 72.6673 56.9768C73.4163 56.6315 74.0926 55.9893 74.4305 55.3029L74.6834 54.7894V49.9693V45.1489L74.4273 44.6291C73.9316 43.6221 72.8373 42.8533 71.3695 42.481L70.6295 42.2932H62.2978H53.9661V49.93ZM0 52.7888V57.5667H2.19316H4.38632V52.7888V48.011H2.19316H0V52.7888ZM15.2735 49.899C14.6488 50.765 14.1266 51.5028 14.1134 51.5387C14.0999 51.5746 15.915 51.6179 18.147 51.6351C23.2509 51.6745 23.4192 51.7146 23.4192 52.8999C23.4192 54.1443 23.3939 54.1527 19.503 54.1863L16.4091 54.2127L15.2209 55.8702L14.0328 57.5277L18.8704 57.5478L23.7079 57.5679L24.4486 57.3801C27.0772 56.7133 27.9272 55.505 27.8721 52.5147C27.8402 50.7826 27.7558 50.5322 26.9586 49.8037C25.6488 48.6066 24.2338 48.3259 19.503 48.325L16.4091 48.3244L15.2735 49.899ZM0 64.5016V67.9902L0.646178 67.9676L1.29236 67.9449L1.31303 65.6507L1.33398 63.3568L2.87063 65.2201C3.92903 66.5033 4.4621 67.0906 4.58353 67.1072C4.73051 67.127 5.01154 66.811 6.27663 65.202L7.79347 63.2729L7.83251 65.6091L7.87155 67.9449H8.6159H9.35997L9.38035 64.4757L9.40073 61.0069L8.7181 61.0295L8.03575 61.0522L6.39461 63.0496C5.49208 64.1479 4.72821 65.0467 4.69721 65.0467C4.66592 65.0467 3.88884 64.1393 2.96966 63.0298L1.29896 61.0129H0.649336H0V64.5016ZM18.2977 61.1866C17.9288 61.7552 14.3336 67.8576 14.3336 67.915C14.3336 67.9529 14.6999 67.9839 15.1477 67.9839H15.9618L16.4053 67.2008L16.8489 66.4174H19.1075H21.3664L21.8099 67.2008L22.2534 67.9839H23.145C23.6353 67.9839 24.0521 67.9575 24.0708 67.9254C24.0897 67.8929 23.1797 66.3333 22.049 64.4594L19.9931 61.0522L19.2033 61.0298C18.455 61.0089 18.4076 61.0169 18.2977 61.1866ZM28.6859 64.4732L28.7063 67.9449L29.5092 67.9673L30.3118 67.9894V66.6551V65.3208H31.0932H31.8746L33.3452 66.6514L34.8155 67.9822L35.971 67.9831C36.6062 67.9836 37.1261 67.9575 37.1261 67.9251C37.1261 67.8929 36.4142 67.3024 35.5441 66.6132L33.9621 65.3602L34.8198 65.3188C36.3384 65.2462 36.4604 65.0889 36.4604 63.2061C36.4604 60.9632 36.6556 61.0605 32.093 61.0267L28.6655 61.0014L28.6859 64.4732ZM42.2533 61.1111C42.2327 61.1648 42.2249 62.7244 42.2361 64.5768L42.2565 67.9449L43.097 67.967L43.9373 67.9894L43.9585 66.4278L43.9797 64.8661L45.9378 66.2762C47.0148 67.0516 48.0018 67.7528 48.1309 67.8347C48.3787 67.9914 50.8331 68.0692 50.8331 67.9205C50.8331 67.8855 49.9785 67.2605 48.9339 66.5317C47.8892 65.8028 46.7249 64.9896 46.3469 64.7243L45.6593 64.2418L48.031 62.6469L50.4025 61.0522L49.2069 61.0307L48.0115 61.0089L46.0741 62.3523C45.0086 63.0915 44.0926 63.713 44.0386 63.7337C43.9625 63.7627 43.9407 63.4641 43.9407 62.3922V61.0129H43.1157C42.5281 61.0129 42.28 61.0413 42.2533 61.1111ZM55.4731 64.4789L55.4935 67.9449H59.2142H62.9345L62.9572 67.2987L62.9798 66.6525H60.0788H57.1774V65.8301V65.0077H58.8223H60.4672V64.381V63.7543H58.8223H57.1774V63.0103V62.2662H59.9973H62.8171V61.6396V61.0129H59.1349H55.4528L55.4731 64.4789ZM66.42 61.6396V62.2662H68.0637H69.7077L69.7281 65.1056L69.7488 67.9449H70.5712H71.3936L71.4143 65.1056L71.4347 62.2662H73.0787H74.7224V61.6396V61.0129H70.5712H66.42V61.6396ZM34.693 62.4034C34.8468 62.5283 34.8597 62.6029 34.8388 63.2431C34.8075 64.1907 34.937 64.1433 32.368 64.145L30.3118 64.1462V63.2061V62.2662H32.418C34.3074 62.2662 34.5414 62.2803 34.693 62.4034ZM19.9018 63.7747L20.6645 65.1251L19.1718 65.1463C18.3508 65.1581 17.6627 65.1515 17.6426 65.1317C17.6228 65.1116 17.9363 64.4795 18.3393 63.7268C18.7423 62.9741 19.0874 62.3733 19.1055 62.3914C19.1238 62.4095 19.4821 63.0321 19.9018 63.7747Z" fill="#8489A8"/>
</g>
</g>
</svg>
