<svg width="131" height="58" viewBox="0 0 131 58" fill="none" xmlns="http://www.w3.org/2000/svg">
<path fill-rule="evenodd" clip-rule="evenodd" d="M23.9374 0.0418425C23.9017 0.0559078 21.2098 2.95192 17.9557 6.47727C10.0355 15.0564 6.17147 19.228 3.76126 21.8023C2.65803 22.9806 1.52343 24.1931 1.23996 24.4967C0.492693 25.2967 4.64169e-05 26.0962 4.64169e-05 26.5084C4.64169e-05 26.6751 -0.0154619 26.6722 0.520463 26.6069C3.4089 26.2545 8.70287 25.9145 12.8493 25.8153C13.9752 25.7882 14.9017 25.7605 14.9082 25.7532C14.9143 25.7464 14.9453 25.3511 14.9764 24.8754C15.5768 15.7286 19.1116 6.77697 24.3428 1.15372C24.8917 0.563702 24.9397 0.418721 24.6735 0.152561C24.5314 0.0104657 24.1563 -0.0457953 23.9374 0.0418425ZM28.1815 4.863C24.082 9.31233 21.4951 15.078 20.5217 21.9336C20.3407 23.2085 20.2573 24.1184 20.2501 24.8985L20.2447 25.4932L24.8426 25.525C33.5487 25.5852 39.8929 25.8452 46.3727 26.4075C47.3107 26.489 48.2787 26.5615 48.5232 26.5683L48.9683 26.5809L48.9571 26.3941C48.9441 26.172 48.6772 25.6216 48.4013 25.2483C48.1373 24.8909 47.0363 23.6968 38.4597 14.4685C29.9942 5.35997 28.9414 4.23547 28.865 4.22069C28.8174 4.21167 28.5508 4.46196 28.1815 4.863ZM99.9432 11.0063C97.7032 12.2246 95.8108 15.9118 95.21 20.2281C94.8814 22.5896 95.3095 25.6108 96.2216 27.3632L96.526 27.9478L96.4236 28.1296C96.367 28.2295 95.8653 29.0341 95.3081 29.918C94.1443 31.7638 93.252 33.1902 92.5095 34.3922C92.2238 34.8542 91.7207 35.6617 91.3914 36.1865C90.6651 37.3434 90.422 37.7441 90.422 37.7827C90.422 37.8159 94.4339 37.8999 96.0741 37.9014L97.1535 37.9021L98.4014 35.4796C99.5807 33.1906 101.332 29.861 101.614 29.3742C101.767 29.108 101.77 29.1358 101.67 29.944C101.531 31.0732 101.153 34.5437 101.099 35.1831C101.07 35.5366 101.003 36.215 100.95 36.691C100.82 37.862 100.822 38.0175 100.965 38.0467C101.026 38.0593 101.61 38.0925 102.262 38.1206C102.915 38.1488 103.945 38.1982 104.551 38.2303C105.288 38.2692 105.67 38.2721 105.703 38.2389C105.73 38.2115 105.918 37.1682 106.12 35.9199C106.738 32.1137 108.429 22.0663 109.086 18.3001C109.698 14.7938 109.75 14.4711 109.703 14.4245C109.679 14.4004 109.552 14.3722 109.421 14.3621C108.916 14.3228 106.297 14.1447 105.945 14.1252C105.354 14.0927 104.093 13.9885 104.073 13.9705C104.029 13.9308 104.394 13.5067 104.722 13.216C105.642 12.4009 106.43 11.8776 107.344 11.473C107.693 11.3186 107.803 11.2501 107.74 11.2267C107.604 11.1776 102.952 10.9951 101.619 10.9865C101.212 10.9839 100.7 10.9695 100.483 10.9547C100.176 10.9342 100.055 10.9457 99.9432 11.0063ZM88.2466 11.4102C85.7873 11.61 83.7962 11.8123 83.7276 11.8693C83.6826 11.9068 83.6432 12.2105 83.5996 12.8622L83.5365 13.8013L83.4074 13.8031C82.976 13.8096 77.606 14.3863 77.5613 14.431C77.5317 14.4606 77.4422 14.8595 77.3625 15.3171C76.6485 19.426 73.5746 36.7206 73.4109 37.5497C73.2868 38.1772 73.2814 38.1682 73.7532 38.1419C73.9342 38.1318 74.6389 38.1008 75.3187 38.0727C77.8718 37.9673 77.9078 37.9648 77.9349 37.8949C77.949 37.8581 78.0618 37.3889 78.1863 36.8519C78.3103 36.3145 78.5321 35.3858 78.6789 34.7875C78.8257 34.1892 78.9584 33.6399 78.9743 33.5663C79.0331 33.2886 79.1842 33.1942 79.8287 33.0337C80.1612 32.9511 80.6059 32.8295 80.8176 32.7639C81.4555 32.5655 82.219 32.3773 82.2519 32.4101C82.2861 32.4444 82.285 32.4793 82.2158 33.8729C82.1552 35.0901 82.1296 35.6862 82.0874 36.871L82.0539 37.817L82.1646 37.8523C82.3229 37.9024 87.3641 37.8249 87.4679 37.7708C87.5271 37.7398 87.5545 37.6666 87.5545 37.5382C87.5545 37.3712 87.7712 35.0757 88.1218 31.5247C88.1892 30.8449 88.4114 28.5757 88.6162 26.4821C88.8207 24.3882 89.045 22.1082 89.1143 21.4146C89.1835 20.7211 89.2831 19.7091 89.335 19.1653C89.5572 16.8492 89.5922 16.4874 89.7036 15.3586C89.7678 14.7058 89.8821 13.5593 89.9575 12.8106C90.0329 12.0616 90.0797 11.4109 90.0621 11.3644C90.0224 11.2616 90.0971 11.2598 88.2466 11.4102ZM124.21 13.5911C124.168 13.6931 123.988 14.1659 123.811 14.6416C123.635 15.1173 123.248 16.1409 122.952 16.9159C122.656 17.6906 122.237 18.8032 122.021 19.3878C121.609 20.5022 120.942 22.26 120.406 23.6395C120.232 24.0881 120.013 24.6774 119.918 24.9494C119.709 25.5549 119.052 27.2856 119.049 27.2402C119.047 27.2218 119.536 24.4333 120.134 21.0428C121.326 14.2893 121.269 14.664 121.11 14.6251C120.937 14.5825 117.951 14.026 116.822 13.8259C116.264 13.727 115.642 13.6149 115.439 13.5763C114.985 13.4905 115.024 13.4364 114.923 14.2954C114.877 14.69 114.817 15.157 114.791 15.3337C114.526 17.1424 112.567 32.1003 112.023 36.4638C111.721 38.8852 111.674 38.6439 112.462 38.6908C112.753 38.7085 113.802 38.7885 114.795 38.869C116.808 39.032 116.724 39.0277 116.81 38.9732C116.847 38.9498 116.982 38.3067 117.145 37.3799C117.552 35.0612 118.272 31.3188 118.32 31.2701C118.347 31.2434 118.436 31.4703 119.049 33.1314C119.324 33.879 119.724 34.9469 119.936 35.5045C120.149 36.0617 120.56 37.1407 120.85 37.9021C121.487 39.5755 121.335 39.4092 122.294 39.4918C122.724 39.529 124.143 39.6693 125.448 39.8031C126.752 39.9372 127.823 40.0425 127.827 40.0375C127.832 40.0321 127.647 39.6054 127.416 39.0886C126.91 37.9569 124.553 32.4628 124.282 31.7833C123.997 31.0685 123.844 31.5543 125.788 26.9845C126.377 25.6025 126.858 24.4625 126.858 24.4513C126.858 24.4401 127.171 23.7246 127.554 22.8612C127.937 21.9974 128.359 21.0327 128.491 20.7171C128.623 20.4016 129.233 19.0401 129.846 17.6917C130.459 16.3432 130.961 15.2071 130.961 15.1671C130.961 15.0791 130.77 15.0156 129.601 14.7156C129.112 14.5901 128.433 14.4112 128.094 14.3185C127.487 14.153 124.403 13.4057 124.327 13.4057C124.306 13.4057 124.253 13.489 124.21 13.5911ZM71.1908 13.7559C70.9866 13.8075 70.375 13.9485 69.8311 14.0693C67.3989 14.6099 63.3726 15.6176 63.2817 15.7084C63.2536 15.7362 62.6095 18.0718 61.8503 20.8982C60.3543 26.4688 59.6132 29.1545 59.3485 29.9674L59.1793 30.4864L59.197 24.8134C59.2071 21.6934 59.2082 19.1404 59.1999 19.1404C59.192 19.1404 58.9997 19.2053 58.7732 19.2846C58.5468 19.3636 58.0945 19.5108 57.7681 19.6114C57.4417 19.712 56.908 19.8909 56.5816 20.0088C56.2555 20.1271 55.588 20.3673 55.0986 20.5429C52.7688 21.3786 51.1318 22.0371 51.0957 22.1529C51.0723 22.2275 50.8963 23.7516 50.3784 28.3607C49.9626 32.0632 49.0977 39.5142 49.0393 39.8986C48.9791 40.2939 49.0115 40.3736 49.2153 40.3285C49.2698 40.3163 50.0708 40.2131 50.9951 40.0991C53.0075 39.851 52.8745 39.8903 52.9477 39.5239C52.9794 39.3663 53.1583 38.5361 53.3455 37.6796C53.5326 36.823 53.8857 35.1435 54.1299 33.9472C54.374 32.7506 54.7531 30.8932 54.9724 29.8192C55.4589 27.435 55.4618 27.427 55.4661 28.553C55.4679 29.0395 55.4906 30.419 55.5169 31.6181C55.5433 32.8176 55.5761 34.4885 55.5905 35.3314C55.6046 36.1742 55.6313 37.4592 55.6497 38.1863L55.6828 39.5088H55.865C55.9649 39.5088 56.4452 39.464 56.9321 39.4089C58.2885 39.2559 59.1097 39.1708 59.5847 39.1337C59.8227 39.1149 60.0503 39.0749 60.0907 39.045C60.1607 38.9923 60.5682 37.597 61.3836 34.6144C61.5881 33.8668 61.8543 32.9031 61.9754 32.4729C62.3502 31.1392 63.9186 25.3843 64.0964 24.6911C64.1891 24.3298 64.2897 23.9951 64.32 23.9478C64.3669 23.8743 64.3712 23.8793 64.3489 23.9828C64.3344 24.0492 64.254 24.8945 64.17 25.8614C64.0856 26.828 63.9074 28.787 63.7736 30.2145C63.6398 31.6419 63.4191 34.0337 63.2828 35.529C63.1465 37.0246 63.0228 38.3377 63.008 38.447C62.9528 38.8567 62.8976 38.8484 64.6937 38.6991C65.5614 38.627 66.6159 38.5447 67.0372 38.5155C67.9244 38.4549 67.8407 38.5217 67.9464 37.7877C68.047 37.0866 68.1252 36.5731 68.5385 33.8978C68.7153 32.7556 68.928 31.3541 69.0117 30.7832C69.0954 30.2119 69.2753 29.0665 69.4117 28.237C69.548 27.4079 70.0807 23.9817 70.5953 20.6237C71.11 17.2657 71.5546 14.382 71.5835 14.2157C71.6444 13.8605 71.6502 13.6509 71.5983 13.6578C71.5781 13.6603 71.3945 13.7047 71.1908 13.7559ZM103.349 15.4625C103.306 15.8404 103.251 16.2162 103.226 16.2977C103.164 16.5008 102.979 17.9625 102.911 18.7945C102.901 18.9168 102.745 20.2292 102.564 21.7111C102.005 26.304 101.853 27.6618 101.877 27.8497C101.976 28.6009 101.508 27.8291 101.023 26.4421C99.7044 22.6737 100.472 18.6005 103.176 15.0192C103.445 14.6622 103.44 14.6496 103.349 15.4625ZM83.4276 15.346C83.3075 17.1157 83.1874 18.5417 83.1102 19.1159C83.0575 19.5072 82.9858 20.5913 82.9299 21.8348C82.9136 22.1882 82.8354 23.3895 82.7557 24.5043C82.6756 25.6194 82.5847 26.9207 82.5537 27.3967C82.4737 28.6092 82.5689 28.4974 81.6337 28.4805C81.2056 28.4725 80.7364 28.4725 80.5911 28.4801C80.1695 28.5021 80.1403 28.7286 81.0502 24.8891C81.5064 22.9647 82.1224 20.3554 82.4196 19.091C83.1362 16.0392 83.4153 14.8887 83.4391 14.8887C83.4499 14.8887 83.4445 15.0946 83.4276 15.346ZM0.639478 27.3437L0.314532 27.3718L1.89273 29.1268C4.54531 32.0769 6.43475 34.3605 8.31481 36.8886C8.84929 37.6074 13.8277 44.6805 15.4481 47.0233C18.365 51.2407 21.8035 55.73 23.29 57.2617C23.7524 57.7381 24.3633 57.9985 25.0179 57.9985C25.3256 57.9985 25.3501 58.0699 24.7492 57.2184C22.8829 54.5734 20.6743 50.3841 19.817 47.8639C18.8469 45.0108 16.6685 37.7932 16.1185 35.6087C15.6861 33.8909 15.3605 31.9474 15.2029 30.1441C15.0759 28.6875 15.2086 28.7654 11.9145 28.2129C8.1381 27.5792 2.72259 27.1616 0.639478 27.3437ZM20.3879 30.3998C21.5409 39.7948 24.6025 49.1936 27.8292 53.2441C28.2843 53.8157 28.2901 53.8182 28.9036 53.7724L29.367 53.7378L29.5329 53.5322C30.2253 52.6725 30.6516 51.8877 33.4192 46.3762C35.6463 41.9417 36.0174 41.2951 36.9183 40.282C37.1772 39.991 37.2266 39.8243 37.2266 39.2448V38.7305L37.0088 38.5296C34.9502 36.6319 29.5314 33.6356 24.7683 31.7613C23.5728 31.291 20.4755 30.1651 20.3767 30.1651C20.367 30.1651 20.372 30.2707 20.3879 30.3998ZM83.1791 40.2809C82.8801 40.2888 81.6456 40.3195 80.4353 40.3491C73.9768 40.5063 62.0047 41.0505 57.5456 41.3895C53.7223 41.6802 37.8743 43.0796 37.6717 43.1445C37.6085 43.1647 36.8717 44.357 36.9017 44.3901C36.9074 44.3966 37.4668 44.3469 38.1448 44.2802C42.5473 43.8459 50.9486 43.0431 53.1211 42.8495C59.1195 42.3143 72.4029 41.651 81.523 41.4314C84.0425 41.3708 88.7244 41.3953 91.5094 41.4837C102.464 41.8317 110.448 42.1819 114.696 42.5014C118.212 42.7658 126.629 43.4961 129.219 43.7619C130.467 43.8899 130.541 43.8885 130.691 43.7381C130.958 43.4719 130.786 42.7225 130.459 42.7225C130.432 42.7225 129.249 42.6114 127.83 42.4762C114.855 41.2377 111.154 40.9813 100.359 40.5723C92.7947 40.286 92.8917 40.2881 88.2715 40.2773C85.7696 40.2712 83.4784 40.273 83.1791 40.2809ZM83.4759 42.8047C83.231 42.8116 82.0632 42.8412 80.8803 42.87C76.2103 42.9847 69.3067 43.2105 67.1861 43.3179C64.6082 43.4489 50.6446 44.4388 48.0537 44.6747C45.5136 44.9059 36.5796 45.8035 36.4213 45.8439C36.0819 45.9298 35.9835 46.0798 35.1648 47.7622C34.7352 48.644 33.9364 50.246 33.3897 51.3215C32.8426 52.3973 32.399 53.2823 32.4037 53.2884C32.4083 53.2946 32.7113 53.2661 33.077 53.2257C35.4951 52.957 43.2137 52.1621 45.285 51.9688C48.2762 51.6897 55.3485 51.1512 62.4894 50.6593C65.4503 50.4555 68.1014 50.3268 73.2176 50.1393C74.6721 50.0862 76.5745 50.0138 77.4444 49.9791C79.5784 49.8933 95.4264 49.8951 97.9116 49.9813C101.494 50.1054 105.964 50.3098 110.592 50.5609C113.473 50.7174 121.247 51.3658 124.732 51.7402C128.851 52.1827 129.242 52.1661 129.844 51.522C130.979 50.3088 131.18 46.8725 130.176 45.8522C129.513 45.1796 129.76 45.2287 123.941 44.604C119.099 44.0843 118.536 44.0414 107.7 43.3692C102.908 43.072 102.246 43.0399 99.9633 42.9948C99.2702 42.9811 98.102 42.9577 97.3678 42.9425C91.3276 42.8181 85.1558 42.7571 83.4759 42.8047ZM94.3185 43.6494C94.5345 43.9188 95.0351 43.9303 95.2529 43.6707C95.382 43.5167 95.4069 43.5076 95.6619 43.5224C95.9825 43.5408 96.0189 43.6075 95.8476 43.8618C95.399 44.5279 93.9102 44.415 93.6383 43.6945C93.5185 43.3782 94.0711 43.341 94.3185 43.6494ZM63.9857 44.0771C64.0643 44.1561 64.0906 44.4922 64.0261 44.5954C63.9691 44.6862 63.0285 44.7724 62.9788 44.6913C62.7541 44.3278 62.9052 44.1067 63.4115 44.0584C63.6251 44.0382 63.8259 44.0183 63.858 44.0147C63.8898 44.0107 63.9475 44.0389 63.9857 44.0771ZM89.1121 44.4533C89.1291 44.4807 89.141 45.048 89.1381 45.7137C89.1356 46.3798 89.1457 46.9244 89.1605 46.9244C89.1875 46.9244 90.0877 45.5778 90.4368 45.0152C90.7527 44.5059 90.8003 44.4774 91.328 44.4774H91.7813L91.777 46.4653C91.7716 48.7515 91.8033 48.6033 91.3218 48.5809C91.1397 48.5722 90.9381 48.5632 90.8739 48.5607L90.757 48.556L90.7751 47.2707C90.7848 46.5638 90.7816 45.9857 90.7682 45.986C90.7462 45.9871 89.8634 47.3327 89.3678 48.1207C89.1215 48.512 89.0295 48.5618 88.574 48.5513C88.3198 48.5456 88.1795 48.5199 88.1402 48.4731C88.0821 48.4027 88.1171 44.5423 88.177 44.4453C88.2138 44.3855 89.0746 44.3927 89.1121 44.4533ZM86.9179 44.9964C86.963 45.7494 86.9677 48.4969 86.9241 48.5232C86.9039 48.5355 86.6868 48.5535 86.4422 48.5632L85.9972 48.5809L85.9723 47.7157L85.9478 46.8505H85.2063H84.4648L84.4511 47.7027C84.4356 48.6905 84.4825 48.6209 83.8459 48.5953L83.4759 48.5809L83.4388 47.7157C83.4186 47.2396 83.4074 46.3276 83.4142 45.6885L83.4265 44.5268H83.8961H84.3656L84.3797 45.2157C84.3876 45.6203 84.4158 45.9312 84.4475 45.9694C84.5063 46.0405 85.193 46.0592 85.6636 46.0026L85.9229 45.9716V45.2449C85.9229 44.3847 85.8829 44.4457 86.4397 44.4634L86.8869 44.4774L86.9179 44.9964ZM93.8763 44.4973C93.9322 44.5326 93.9376 44.7544 93.9073 45.7819C93.8875 46.4646 93.8842 47.0233 93.9008 47.0233C93.9174 47.0233 94.2975 46.47 94.7458 45.7931C95.1941 45.1165 95.5966 44.5492 95.6402 44.5326C95.7748 44.481 96.544 44.4983 96.5783 44.5539C96.6479 44.666 96.5419 48.5098 96.4672 48.5845C96.4196 48.6321 96.2844 48.6548 96.051 48.6548C95.4855 48.6548 95.5238 48.7594 95.5508 47.2847C95.5786 45.7736 95.6518 45.7924 94.8273 47.0975C93.8889 48.5831 93.8662 48.6054 93.3007 48.6054C92.803 48.6054 92.8351 48.7673 92.8878 46.5194C92.9134 45.44 92.9484 44.5337 92.9664 44.5048C93.005 44.4421 93.7786 44.4352 93.8763 44.4973ZM79.9798 45.2168C79.996 46.03 79.9621 45.9885 80.5824 45.9514C82.0106 45.8659 82.8011 46.5219 82.5609 47.5938C82.3774 48.4125 82.0066 48.5712 80.2625 48.5769L79.076 48.5809L79.0435 48.1359C79.0255 47.891 79.0021 46.9728 78.9912 46.0949L78.9718 44.4987L79.4687 44.5128L79.9657 44.5268L79.9798 45.2168ZM77.7892 44.6134C77.8325 44.7457 77.945 48.4388 77.9089 48.5398C77.8747 48.635 77.8271 48.6491 77.4844 48.6649C76.9052 48.692 76.9442 48.7598 76.9067 47.6558C76.889 47.1311 76.8609 46.4073 76.8439 46.047L76.8133 45.392H76.282C75.5889 45.392 75.6206 45.3459 75.6642 46.2933C75.7461 48.0641 75.3956 48.6786 74.2426 48.7865C73.8606 48.8222 73.8325 48.794 73.7982 48.3472L73.773 48.0147L73.9526 47.9869C74.6277 47.8838 74.6757 47.7572 74.6768 46.0751C74.6775 45.3221 74.6959 44.688 74.7179 44.666C74.755 44.6289 75.85 44.5827 77.2111 44.5607C77.62 44.5539 77.7744 44.5679 77.7892 44.6134ZM73.148 44.6884C73.2486 44.7558 73.2371 45.3783 73.1343 45.4313C73.0849 45.4566 72.6027 45.4919 72.0628 45.51C70.8784 45.5493 70.8939 45.5431 70.8939 45.9561C70.8939 46.3719 70.8705 46.3636 71.9322 46.3308C72.9745 46.2991 72.9471 46.2897 72.985 46.6868C73.0214 47.0669 73.0362 47.0611 71.9564 47.0932C71.1846 47.1163 71.0075 47.1351 70.9607 47.1989C70.908 47.2699 70.9167 47.7788 70.9733 47.957C70.9909 48.0136 71.1994 48.0222 72.1681 48.0064L73.3409 47.9876L73.3662 48.3036C73.4059 48.8031 73.5119 48.7692 71.7018 48.8326C69.9407 48.8939 70.0154 48.9004 69.9837 48.6873C69.935 48.358 69.8484 44.8359 69.8881 44.797C69.9112 44.7746 70.5084 44.736 71.2153 44.7111C73.0073 44.6484 73.087 44.6473 73.148 44.6884ZM103.609 44.7659C103.643 44.7995 103.837 45.3989 104.039 46.0978C104.242 46.7971 104.426 47.4027 104.449 47.4438C104.479 47.4961 104.634 47.1787 104.976 46.3687C105.242 45.7365 105.497 45.141 105.542 45.0458L105.624 44.8731L106.279 44.8756C106.639 44.8767 106.956 44.8997 106.983 44.9264C107.049 44.9924 106.843 48.8528 106.769 48.9455C106.583 49.1749 105.765 48.9253 105.82 48.6559C105.854 48.4871 105.955 46.2259 105.93 46.2003C105.906 46.1768 105.285 47.5924 105.058 48.1853C104.833 48.7753 104.734 48.8781 104.394 48.8748C104.243 48.8734 104.106 48.8586 104.089 48.8424C104.064 48.8164 103.602 47.3406 103.322 46.3863C103.271 46.2129 103.221 46.0621 103.21 46.0517C103.186 46.0279 103.145 46.5349 103.073 47.7402C103.007 48.8485 103.025 48.811 102.543 48.798C102.129 48.7872 101.97 48.6956 102.012 48.4936C102.025 48.4327 102.073 47.5931 102.119 46.628C102.166 45.6625 102.223 44.8197 102.247 44.7544L102.29 44.6361L102.919 44.6707C103.306 44.692 103.571 44.7284 103.609 44.7659ZM67.9929 44.9506C68.6933 45.145 68.9136 46.0535 68.377 46.5338L68.1173 46.7665L68.2637 46.7989C69.0258 46.9663 69.2364 48.2448 68.5742 48.683C68.2504 48.8972 67.9611 48.9509 66.7284 49.0252C65.4434 49.1031 65.4067 49.0999 65.4056 48.9091C65.4056 48.8373 65.3612 47.9775 65.3075 46.9987C65.1932 44.9138 65.1989 45.1378 65.257 45.0458C65.3298 44.9308 67.6322 44.8503 67.9929 44.9506ZM110.24 45.0945C110.314 45.1338 111.545 49.0725 111.521 49.1954C111.512 49.238 111.467 49.2712 111.42 49.2687C111.373 49.2665 111.178 49.2611 110.988 49.2564C110.568 49.2463 110.493 49.1868 110.397 48.7861C110.309 48.4186 110.286 48.4092 109.472 48.3948L108.791 48.3829L108.627 48.7165L108.463 49.0505H108.03C107.331 49.0505 107.307 49.212 108.338 47.0085C108.831 45.9536 109.266 45.0714 109.303 45.0487C109.378 45.0018 110.135 45.039 110.24 45.0945ZM64.012 45.1053C64.0448 45.1378 64.0719 45.277 64.0723 45.4144C64.0726 45.5514 64.1282 46.3759 64.1952 47.2458C64.3467 49.2026 64.346 49.0923 64.2075 49.1204C63.9561 49.1716 63.4494 49.1947 63.391 49.1576C63.334 49.1211 63.1223 46.6799 63.0733 45.4908L63.0581 45.1201L63.2557 45.0902C63.6038 45.0372 63.9511 45.044 64.012 45.1053ZM61.6743 45.1951C61.7248 45.277 61.7378 45.409 61.82 46.6774C61.8629 47.3435 61.9105 48.0057 61.9257 48.1488L61.9531 48.4089L62.2189 48.3977C62.5954 48.3822 62.572 48.3183 62.5889 49.4118C62.6004 50.1533 62.6329 50.0945 62.1875 50.1353C61.7399 50.1764 61.6985 50.1411 61.6985 49.7177C61.6985 49.2806 61.6382 49.2275 61.1824 49.2643C60.9905 49.2802 60.4661 49.3173 60.0175 49.3473C59.5688 49.3768 59.1242 49.4169 59.0289 49.436L58.8558 49.4706L58.8735 49.9009C58.8941 50.3921 58.9344 50.3528 58.3531 50.409C58.1681 50.4271 58.0361 50.4191 58.0173 50.3885C57.9773 50.3239 57.903 49.6289 57.8828 49.1294L57.8669 48.7392L58.0638 48.6833C58.5269 48.552 58.7105 47.9036 58.6982 46.444L58.6892 45.3459L58.8468 45.3206C58.9334 45.3066 59.4267 45.2698 59.9435 45.2391C60.46 45.2081 60.8921 45.1742 60.9032 45.1637C60.9501 45.1205 61.6458 45.1486 61.6743 45.1951ZM114.083 45.2672C115.486 45.3801 115.882 45.6773 115.882 46.6161C115.882 47.6144 115.415 47.9703 114.119 47.9602C113.203 47.9526 113.278 47.9025 113.24 48.5437C113.191 49.361 113.232 49.2975 112.746 49.2975C112.207 49.2975 112.157 49.2546 112.198 48.8333C112.215 48.6674 112.282 47.7907 112.348 46.8855C112.488 44.9654 112.435 45.1338 112.883 45.1702C113.078 45.1861 113.618 45.2297 114.083 45.2672ZM57.424 45.5255C57.4046 45.5742 57.1247 46.3921 56.8016 47.3428C56.0363 49.5972 55.954 49.7061 54.9749 49.7638C54.4472 49.7948 54.4491 49.7959 54.4058 49.3347L54.3701 48.9516L54.66 48.9513C55.4527 48.9509 55.4481 48.7587 54.624 47.4412C53.762 46.0636 53.572 45.7401 53.6055 45.7069C53.6206 45.6917 53.8738 45.6596 54.1681 45.6355C54.8028 45.5839 54.6709 45.4681 55.2814 46.6089C55.5342 47.0813 55.7539 47.4683 55.7694 47.4683C55.7849 47.4683 55.9032 47.0957 56.0323 46.6402C56.393 45.3682 56.3172 45.4598 57.0205 45.4454C57.4255 45.4368 57.4569 45.4429 57.424 45.5255ZM117.443 45.4905C117.848 45.4916 117.863 45.5882 117.68 47.0233L117.651 47.2458L118.446 46.4596L119.242 45.6733L119.794 45.7051C120.468 45.7437 120.464 45.7401 120.155 46.0261C118.955 47.1379 118.651 47.4373 118.651 47.509C118.651 47.5545 118.985 48.0911 119.392 48.701C119.799 49.3112 120.122 49.8204 120.11 49.8327C120.097 49.8453 119.838 49.8334 119.533 49.8064C118.874 49.748 118.999 49.8637 118.208 48.5751C117.897 48.0673 117.637 47.6717 117.63 47.6959C117.623 47.7204 117.583 48.1409 117.54 48.6303C117.46 49.5536 117.419 49.6809 117.22 49.621C117.177 49.6084 117.025 49.5929 116.881 49.5871C116.417 49.568 116.436 49.7007 116.616 47.7096C116.703 46.7477 116.774 45.9009 116.773 45.8277C116.771 45.5349 116.855 45.4259 117.058 45.4595C117.159 45.4761 117.332 45.4901 117.443 45.4905ZM66.5434 45.6842L66.2715 45.7134L66.2895 46.109C66.3104 46.567 66.3119 46.5685 66.6823 46.5468C67.4176 46.5039 67.599 46.4394 67.6441 46.2028C67.7328 45.7386 67.4191 45.5908 66.5434 45.6842ZM52.6858 45.7278C52.7789 45.7869 52.8265 46.3961 52.7435 46.4628C52.7064 46.4927 52.2105 46.5533 51.6418 46.5973C50.4545 46.6897 50.5544 46.6536 50.5681 46.9868C50.5865 47.4384 50.5825 47.4344 50.9948 47.3958C52.6069 47.2447 53.2131 47.5404 53.2831 48.5124C53.3368 49.264 52.974 49.7097 52.2018 49.8396C51.5397 49.9514 49.9784 50.0722 49.9034 50.0177C49.8486 49.9773 49.797 49.5756 49.6849 48.3162C49.6045 47.4091 49.524 46.5256 49.5064 46.3521C49.4663 45.9619 49.4429 45.9734 50.4267 45.8933C51.8066 45.7808 52.534 45.7152 52.6018 45.6968C52.6155 45.6932 52.6534 45.7072 52.6858 45.7278ZM122.897 45.9153C124.554 46.06 124.484 46.0347 124.438 46.4704C124.405 46.7971 124.34 46.8866 124.164 46.8509C123.853 46.7881 122.15 46.6687 122.113 46.707C122.089 46.7315 122.054 46.9118 122.035 47.1076C121.994 47.5336 121.892 47.4878 123.067 47.574C124.061 47.6472 124.051 47.6425 124.009 48.0464C123.968 48.4337 124.018 48.4208 122.924 48.3248C121.866 48.2318 121.932 48.2047 121.886 48.7457L121.851 49.1579L121.969 49.1464C122.034 49.1399 122.12 49.1471 122.161 49.1626C122.202 49.1781 122.524 49.2156 122.878 49.2459C124.39 49.3754 124.249 49.3206 124.196 49.7566C124.143 50.1937 124.27 50.1692 122.692 50.0451C120.871 49.9016 120.835 49.8969 120.802 49.7938C120.759 49.6574 121.114 45.9326 121.177 45.8558C121.25 45.7682 121.184 45.7657 122.897 45.9153ZM60.1066 46.03C59.6673 46.069 59.6828 46.0344 59.6604 47.0233C59.6424 47.8196 59.6301 47.9159 59.5079 48.2282C59.4347 48.415 59.3748 48.5748 59.3748 48.5831C59.3748 48.5914 59.4917 48.5892 59.6345 48.5776C59.7773 48.5665 60.1112 48.5437 60.3767 48.5272C60.9891 48.4893 60.9581 48.5733 60.8567 47.2155C60.7532 45.8291 60.8394 45.9651 60.1066 46.03ZM113.441 46.0747C113.427 46.0967 113.401 46.338 113.382 46.6114L113.348 47.1076L113.812 47.1397C114.519 47.1881 114.766 47.1044 114.824 46.796C114.876 46.5169 114.809 46.2919 114.649 46.2089C114.441 46.1014 113.49 45.9958 113.441 46.0747ZM127.25 46.2998C128.516 46.4257 128.652 46.465 128.556 46.6759C128.537 46.7174 128.512 46.8476 128.5 46.9652C128.473 47.2378 128.445 47.2465 127.812 47.1751C127.453 47.135 127.273 47.1325 127.238 47.1672C127.21 47.1953 127.113 47.9029 127.022 48.7399C126.931 49.5766 126.845 50.2922 126.832 50.3297C126.799 50.4188 126.026 50.3611 125.924 50.2622C125.86 50.1995 125.995 48.5773 126.163 47.3944C126.217 47.0153 126.22 47.0175 125.587 46.9612C124.931 46.9032 124.912 46.8887 124.983 46.5025C125.013 46.3402 125.05 46.188 125.065 46.1638C125.099 46.1086 125.714 46.1469 127.25 46.2998ZM109.37 46.9215L109.069 47.6107L109.324 47.6367C110.197 47.7251 110.152 47.7586 109.984 47.1415C109.918 46.8999 109.836 46.5962 109.801 46.4671C109.715 46.1404 109.707 46.149 109.37 46.9215ZM80.04 47.2746V47.7734L80.6293 47.7568C81.396 47.7352 81.5991 47.5754 81.4671 47.0968C81.3986 46.8487 81.1948 46.7762 80.564 46.7762H80.04V47.2746ZM66.5806 47.3046L66.3458 47.3255V47.7143C66.3458 48.2779 66.3281 48.2596 66.8576 48.2581C67.6322 48.2563 67.8623 48.1521 67.9121 47.7813C67.9709 47.3435 67.6088 47.214 66.5806 47.3046ZM51.1931 48.1427C50.602 48.1795 50.65 48.0904 50.7535 48.9585L50.7841 49.2131L51.2656 49.1835C52.0024 49.1388 52.2559 49.005 52.2559 48.6606C52.2559 48.2152 52.0042 48.0926 51.1931 48.1427Z" fill="#8489A8"/>
</svg>
