<svg width="201" height="40" viewBox="0 0 201 40" fill="none" xmlns="http://www.w3.org/2000/svg">
<path id="EPICENTR LOGO bez statusa_white 1" fill-rule="evenodd" clip-rule="evenodd" d="M16.0788 0.465604C15.1049 1.05958 14.8213 1.79855 14.8213 3.74379V5.43624L13.6733 5.6707C3.06689 7.83855 -3.02001 19.8781 1.52104 29.7073C7.67154 43.0184 26.5586 43.2658 32.915 30.1186C37.8921 19.8259 31.9873 8.09727 20.5606 5.578C20.013 5.45726 20.0114 5.45241 20.0108 3.71414C20.0097 0.670962 18.1971 -0.826373 16.0788 0.465604ZM196.972 5.77419C195.658 6.42261 195.253 8.31503 196.19 9.42859C197.233 10.6672 198.834 10.7141 199.869 9.53586C201.645 7.51246 199.389 4.58139 196.972 5.77419ZM41.7712 21.3351V37.0059H48.5583H55.3459V33.9169V30.8284L52.5011 30.7729L49.6562 30.7174L49.6018 27.2737L49.5473 23.8301H52.0472H54.5471V20.8359V17.8413H52.0521H49.5565V14.8471V11.8525H52.2515H54.9465V8.75862V5.66424H48.3589H41.7712V21.3351ZM59.3873 21.2849L59.4385 36.9062L63.281 36.9601L67.1241 37.0145V24.4338V11.8525H68.3217H69.5194V24.4294V37.0059H73.412H77.3052V21.3351V5.66424H68.3206H59.3361L59.3873 21.2849ZM81.497 21.3394V37.0145L85.34 36.9601L89.1831 36.9062L89.2343 21.2849L89.2849 5.66424H85.3912H81.497V21.3394ZM93.2751 21.3351V37.0059H100.462H107.649V38.5032V40H110.347H113.046L112.992 35.3587L112.939 30.7174L112.19 30.6554L111.442 30.5934V18.1291V5.66424H107.449H103.456V18.141V30.6177H102.259H101.061V18.141V5.66424H97.1683H93.2751V21.3351ZM117.031 21.3351V37.0059H123.823H130.616L130.561 33.8619L130.506 30.7174L127.662 30.6619L124.817 30.6069V27.2188V23.8301H127.312H129.807V20.8359V17.8413H127.312H124.817V14.8471V11.8525H127.412H130.007V8.75862V5.66424H123.519H117.031V21.3351ZM134.598 21.3351V37.0059H138.491H142.384V30.4182V23.8301H143.582H144.78V30.4182V37.0059H148.672H152.565V21.3351V5.66424H148.672H144.78V11.2536V16.8436H143.582H142.384V11.2536V5.66424H138.491H134.598V21.3351ZM156.558 8.75862V11.8525H158.853H161.149V24.4294V37.0059H165.042H168.935V24.4294V11.8525H171.23H173.526V8.75862V5.66424H165.042H156.558V8.75862ZM177.718 21.3351V37.0059H181.611H185.504V30.7174V24.4294H186.457C193.144 24.4294 194.393 22.9817 194.379 15.2465C194.363 6.45548 193.438 5.67286 183.058 5.66693L177.718 5.66424V21.3351ZM199.343 6.47112C200.692 7.53186 199.895 9.85656 198.183 9.85656C196.918 9.85656 195.887 8.674 196.169 7.54749C196.514 6.17413 198.227 5.59309 199.343 6.47112ZM196.883 7.95983C196.883 9.1246 196.923 9.25719 197.282 9.25719C197.574 9.25719 197.681 9.1246 197.681 8.75862C197.681 8.11614 197.948 8.12422 198.427 8.78018C198.65 9.08741 198.951 9.27175 199.161 9.22917C199.493 9.16233 199.491 9.12568 199.118 8.65298C198.774 8.21639 198.756 8.09781 198.991 7.77657C199.476 7.11414 199.023 6.66246 197.874 6.66246H196.883V7.95983ZM198.43 7.41113C198.478 7.5572 198.341 7.66014 198.097 7.66014C197.852 7.66014 197.681 7.53132 197.681 7.34645C197.681 6.97939 198.304 7.03329 198.43 7.41113ZM14.8531 10.7389C14.913 12.5688 14.975 12.8771 15.37 13.297C15.7436 13.6942 15.8196 13.9998 15.8196 15.1096V16.4442H12.7343C8.88537 16.4442 7.64944 17.0506 8.14371 18.695C8.41051 19.5822 15.8492 33.5773 16.2438 33.9347C16.7838 34.423 18.0532 34.4192 18.5965 33.9277C18.9776 33.5827 26.1096 20.2269 26.5963 18.9468C27.3078 17.0754 26.178 16.4442 22.1178 16.4442H19.0137V15.0466C19.0137 14.278 19.0929 13.6495 19.1905 13.6495C19.6448 13.6495 20.0114 12.2395 20.0114 10.4931V8.69448L21.0597 8.96991C33.0077 12.1058 35.1987 28.5167 24.5034 34.7653C12.0762 42.0245 -2.18564 27.8666 5.07519 15.4788C6.88083 12.3985 11.8606 8.85726 14.6532 8.66753C14.7254 8.66268 14.8154 9.59461 14.8531 10.7389ZM187.656 10.5653C190.549 11.7738 191.163 15.44 188.8 17.3891C185.611 20.0167 180.847 16.6598 182.42 12.8943C183.301 10.7863 185.666 9.73421 187.656 10.5653ZM184.749 11.5857C181.915 12.9822 183.016 17.3422 186.203 17.3422C188.697 17.3422 190.175 14.5254 188.738 12.5079C187.902 11.3334 186.104 10.9178 184.749 11.5857ZM185.915 13.1002L185.928 13.9486L186.354 13.1002C186.726 12.3597 186.864 12.2519 187.44 12.2519C188.228 12.2519 188.235 12.3047 187.593 13.428C187.047 14.3841 187.008 14.1755 188.022 15.7451L188.345 16.2442H187.528C186.787 16.2442 186.674 16.1747 186.316 15.4961L185.921 14.7474L185.912 15.4961C185.904 16.2167 185.877 16.2442 185.204 16.2442H184.506V14.3814C184.506 12.3171 184.531 12.2519 185.338 12.2519C185.868 12.2519 185.904 12.3047 185.915 13.1002Z" fill="#8489A8"/>
</svg>
