<svg width="138" height="68" viewBox="0 0 138 68" fill="none" xmlns="http://www.w3.org/2000/svg">
<path id="PerDim 1" fill-rule="evenodd" clip-rule="evenodd" d="M35.06 0.0388017C34.8193 0.0757199 32.8864 1.13527 30.7652 2.39378C1.86437 19.5403 0.683399 20.2593 0.326112 20.9292C0.0598904 21.428 0 21.9293 0 23.6665C0 27.0466 0.60628 27.4186 3.40715 25.7565C5.10416 24.7498 5.77361 24.6018 6.29128 25.1194L6.6617 25.4894V40.3958C6.6617 56.3289 6.65595 56.221 7.51164 56.6788C7.97845 56.929 11.9558 56.9245 12.5067 56.6739C13.3402 56.294 13.3222 56.6796 13.3677 38.2554C13.4099 21.0892 13.4169 20.7737 13.7611 20.3151C13.9539 20.0579 17.8192 17.5631 22.3507 14.7704C38.9254 4.55596 36.8133 6.25666 36.8133 3.12353C36.8133 0.442441 36.4625 -0.174504 35.06 0.0388017ZM40.5654 7.10127C40.1552 7.55495 39.9804 11.0847 40.3082 12.3018C40.606 13.4069 40.8509 13.5739 48.8556 18.1341C52.9285 20.4546 56.421 22.5569 56.617 22.8055C57.172 23.5114 57.177 49.3013 56.622 49.8563C56.2827 50.1955 56.0378 50.207 49.0082 50.207C39.7483 50.207 40.2315 50.0188 40.2315 53.6257C40.2315 57.1936 39.208 56.9007 51.4509 56.833C62.6277 56.7711 62.59 56.7793 63.4346 54.2566C63.8436 53.035 63.7037 21.1314 63.2849 20.0108C62.741 18.5574 62.0506 18.0574 55.4828 14.3565C52.1081 12.4552 47.6853 9.96202 45.6539 8.81592C41.7464 6.61189 41.1811 6.42115 40.5654 7.10127ZM30.2393 16.2324C27.6362 17.785 23.6527 20.1519 21.3868 21.4916C19.1212 22.8317 17.1686 24.0578 17.048 24.2166C16.8766 24.4422 16.829 27.9392 16.829 40.3232V56.1419L17.2909 56.5049C18.0153 57.0751 35.6269 57.0751 36.3514 56.5049L36.8133 56.1419V35.1575C36.8133 11.7439 36.9031 13.3864 35.62 13.4016C35.1035 13.4077 34.0157 13.98 30.2393 16.2324ZM130.63 13.7543C130.14 14.1514 130.15 14.3016 130.707 14.9644C132.006 16.5076 134.451 16.3501 135.665 14.6453L136.022 14.1453L135.61 13.7585L135.198 13.372L134.395 13.9381C133.377 14.6552 132.741 14.6642 131.763 13.9746C131.035 13.4615 131 13.4549 130.63 13.7543ZM73.9186 16.6664C73.8542 16.7304 73.8017 19.0218 73.8017 21.7582V26.7336L74.8973 26.6811L75.993 26.629L76.0397 22.5532L76.0869 18.4774H78.012H79.9371V22.5971V26.7168H81.0766H82.2162V21.8436C82.2162 18.2867 82.1591 16.9133 82.0057 16.7595C81.7781 16.5318 74.1409 16.4436 73.9186 16.6664ZM85.193 17.2124C84.3697 18.0356 84.2528 18.7625 84.3476 22.4584C84.4526 26.5412 84.6856 26.7529 89.0009 26.6774L91.7698 26.629V25.7528V24.8762L89.4033 24.829C86.666 24.7749 86.5984 24.7371 86.5984 23.2702V22.3448L88.8335 22.2956L91.0687 22.2468V21.3702V20.4936L88.8335 20.4443L86.5984 20.3955V19.7757C86.5984 18.5381 86.7128 18.4774 89.0444 18.4774C91.6824 18.4774 91.6824 18.4778 91.6824 17.4072V16.5495H88.7691H85.8559L85.193 17.2124ZM93.5415 16.8268C93.4832 16.979 93.4352 19.2667 93.4352 21.9104V26.7168H94.5748H95.7143V24.8963V23.0762L97.4441 23.0069C101.314 22.8514 102.954 18.8068 99.8783 17.0044C98.8999 16.4309 93.749 16.2865 93.5415 16.8268ZM102.901 21.4227C102.901 24.9791 102.958 26.3529 103.112 26.5063C103.413 26.8078 115.011 26.8078 115.313 26.5063C115.466 26.3529 115.523 24.9791 115.523 21.4227V16.5495H114.383H113.244V20.6687V24.7884H111.842H110.439V20.6687V16.5495H109.3H108.16V20.6687V24.7884H106.67H105.181V20.6687V16.5495H104.041H102.901V21.4227ZM117.802 21.4227C117.802 26.9157 117.752 26.7168 119.139 26.7168H120.055L121.704 24.0435C122.611 22.5729 123.544 21.0547 123.777 20.6687L124.2 19.9677L124.248 23.3506L124.296 26.7332L125.388 26.6811L126.48 26.629L126.526 21.9338C126.58 16.4535 126.603 16.5495 125.247 16.5495C124.109 16.5495 124.187 16.4592 121.746 20.5522C120.879 22.0072 120.109 23.2005 120.037 23.2042C119.965 23.2079 119.906 21.7119 119.906 19.8799V16.5495H118.854H117.802V21.4227ZM128.67 21.2939C128.67 26.8136 128.647 26.7168 129.995 26.7168H130.956L131.712 25.5333C132.128 24.8827 133.053 23.3867 133.769 22.2095L135.069 20.069L135.117 23.3929L135.164 26.7168H136.3H137.436V21.8436C137.436 16.3485 137.486 16.5495 136.094 16.5495C135.017 16.5495 135.174 16.3645 132.602 20.6417L131.037 23.2436L130.99 19.8967L130.942 16.5495H129.806H128.67V21.2939ZM98.6144 18.9077C99.7577 20.051 98.74 21.2824 96.652 21.2824H95.7143V19.8799V18.4774H96.949C98.0266 18.4774 98.2391 18.5324 98.6144 18.9077ZM102.33 30.256C102.04 30.4722 102.024 31.2212 102.067 42.8443L102.113 55.2029H104.742H107.371L107.504 52.1354C107.674 48.1663 107.592 30.4718 107.401 30.281C107.141 30.0193 102.677 29.9972 102.33 30.256ZM112.967 30.2252C111.67 30.6276 111.754 29.7297 111.754 43.1696V55.2029H114.296H116.838L116.925 48.1909C116.991 42.935 117.062 41.2667 117.207 41.5296C117.314 41.7224 118.333 43.892 119.472 46.3503C122.374 52.6149 122.227 52.4353 124.463 52.4673C127.025 52.5046 126.755 52.8336 129.831 45.9216L132.089 40.8474L132.182 48.0252C132.233 51.973 132.292 55.225 132.313 55.2517C132.334 55.2784 133.476 55.2784 134.85 55.2517L137.348 55.2029L137.393 43.4288C137.446 29.5131 137.581 30.2925 135.088 30.0923C131.977 29.8425 131.471 30.1941 129.94 33.6685C129.351 35.0033 127.951 38.1856 126.829 40.7408C124.515 46.0049 124.595 45.8687 124.28 45.0893C122.742 41.2745 118.045 31.0916 117.633 30.6765C117.076 30.1165 114.21 29.8392 112.967 30.2252ZM82.9681 30.5669C82.2834 30.9845 81.8806 31.7495 81.2575 33.8166C80.8953 35.0189 77.58 45.6874 76.237 49.9724C76.0812 50.4708 75.9749 50.5393 75.1935 50.6468C73.9768 50.8141 73.8017 51.1247 73.8017 53.1113C73.8017 55.5315 72.4222 55.2907 86.2956 55.2907H98.1484L98.4212 54.901C98.6181 54.6204 98.6944 54.0818 98.6944 52.9726C98.6944 51.1599 98.4856 50.8281 97.2251 50.6394L96.4317 50.5204L95.9071 48.9174C95.6183 48.0358 94.8201 45.5004 94.133 43.2828C90.081 30.2006 90.4079 31.1039 89.5264 30.5661C88.6851 30.0534 83.8098 30.0538 82.9681 30.5669ZM86.6796 35.8762C90.035 47.4726 90.9071 50.5729 90.8345 50.6455C90.6922 50.7879 81.7178 50.7448 81.6361 50.6012C81.5947 50.529 81.9372 49.1684 82.3967 47.5776C82.8561 45.9865 83.8328 42.5945 84.567 40.0397C85.3017 37.4846 85.9383 35.2953 85.9818 35.1751C86.1492 34.7149 86.4236 34.9906 86.6796 35.8762ZM6.74046 62.1747C6.69082 62.3035 6.67277 63.4303 6.69984 64.6786L6.74907 66.9482L7.23106 67.0036L7.71346 67.059V65.0314V63.0037H8.67743H9.64182V65.0314V67.059L10.1238 67.0036L10.6058 66.9482V64.494V62.0398L8.71804 61.9901C7.26839 61.9516 6.80937 61.9946 6.74046 62.1747ZM12.4062 62.2969C10.7432 63.6047 11.53 67.036 13.4928 67.036C15.1882 67.036 16.0049 65.8358 15.6989 63.795C15.4569 62.1792 13.6187 61.3428 12.4062 62.2969ZM16.6538 64.5055V67.059L17.1358 67.0036C17.5981 66.9503 17.6199 66.9035 17.6703 65.8419L17.7228 64.736L18.284 64.7902C18.7996 64.8402 18.8734 64.9292 19.1996 65.8965C19.6294 67.173 20.6816 67.6739 20.4449 66.4896C20.1955 65.2434 19.9556 64.5596 19.7386 64.4764C19.5597 64.4079 19.5773 64.2499 19.821 63.7405C20.4375 62.45 20.44 61.952 19.8296 61.952C19.3509 61.952 19.2767 62.0279 19.0974 62.6973C18.6679 64.3045 17.7056 64.4559 17.7056 62.9164C17.7056 61.9618 17.7003 61.952 17.1797 61.952H16.6538V64.5055ZM21.2883 62.1805C21.2399 62.306 21.2227 63.4303 21.2497 64.6786L21.299 66.9482L21.7715 67.0028C22.2268 67.0553 22.2461 67.0229 22.2974 66.1262L22.3507 65.195L23.2921 65.1007C25.0667 64.9227 25.5852 62.9623 24.0715 62.1562C23.5317 61.8687 21.4007 61.8872 21.2883 62.1805ZM25.7694 64.5055V67.059L26.2513 67.0036L26.7333 66.9482L26.7822 64.4501L26.8306 61.952H26.3002H25.7694V64.5055ZM27.9496 62.1805C27.9012 62.306 27.884 63.4303 27.911 64.6786L27.9607 66.9482H29.3053C31.255 66.9482 32.3507 65.5786 31.2673 64.4952C31.0536 64.2811 31.031 64.158 31.1799 64.0095C31.4019 63.7872 31.4437 62.8462 31.2448 62.548C30.8526 61.9606 28.1498 61.6591 27.9496 62.1805ZM33.2236 62.1645C33.1805 62.2887 33.066 63.1399 32.9688 64.0559C32.8232 65.426 32.7243 65.7763 32.4101 66.0331C32.0783 66.3042 32.0553 66.4039 32.2342 66.7965C32.6563 67.7227 33.7736 66.4355 33.9283 64.8447C34.1047 63.0312 34.1174 63.0037 34.8004 63.0037H35.4108V65.0199V67.036H35.9416H36.4724L36.4236 64.5379L36.3747 62.0398L34.8381 61.9889C33.7043 61.9516 33.281 61.9975 33.2236 62.1645ZM37.9987 62.2978C37.3461 62.8109 37.2075 63.6162 37.6648 64.2347C37.9631 64.638 37.9856 64.7594 37.792 64.9202C37.6624 65.0277 37.5114 65.3411 37.4565 65.6167C37.4011 65.8928 37.3026 66.3305 37.2378 66.5897C37.1254 67.0377 37.1488 67.0586 37.7009 67.0049C38.2371 66.9528 38.2994 66.881 38.5004 66.0893C38.9061 64.4924 39.923 64.3914 40.0038 65.9404C40.0534 66.897 40.0809 66.9511 40.5432 67.004L41.0301 67.0602L40.9813 64.5498L40.9329 62.0398L39.6945 61.9889C38.662 61.9466 38.3798 61.9979 37.9987 62.2978ZM49.4348 62.4779C49.4348 62.9746 49.4738 63.0037 50.1362 63.0037H50.8373V65.0199V67.036H51.3632H51.889V65.0199V63.0037H52.5901C53.2525 63.0037 53.2915 62.9746 53.2915 62.4779V61.952H51.3632H49.4348V62.4779ZM54.1985 62.3577C53.5623 63.0349 53.6271 66.1594 54.2883 66.6796C55.0599 67.2867 57.2135 67.1394 57.2902 66.4745C57.3447 66.0048 57.3345 66.0003 56.151 65.9486L54.9569 65.8965L54.902 65.3267L54.847 64.7569H55.9098C56.9267 64.7569 56.9727 64.7381 56.9727 64.3188C56.9727 63.8992 56.9267 63.8803 55.9086 63.8803C54.2588 63.8803 54.3888 63.1186 56.0526 63.0394C57.1372 62.9877 57.1482 62.982 57.1482 62.4696V61.952H55.8639C54.7481 61.952 54.5295 62.0053 54.1985 62.3577ZM58.1471 62.0631C58.0798 62.1308 58.0244 63.2823 58.0244 64.6224V67.059L58.5064 67.0036L58.9888 66.9482L59.0385 64.976L59.0877 63.0037H59.9528H60.8179L60.8676 64.976L60.9172 66.9482L61.4041 67.004L61.891 67.0602L61.8422 64.5498L61.7934 62.0398L60.0316 61.9901C59.0627 61.963 58.2148 61.9959 58.1471 62.0631ZM63.5708 62.3404C63.5121 62.5607 63.4609 63.1354 63.4572 63.6174C63.4481 64.8078 63.1885 65.8423 62.8337 66.102C62.3685 66.4421 62.6339 67.2456 63.1483 67.0553C63.9781 66.7485 64.4851 65.5113 64.5032 63.7491C64.5106 63.0206 64.5237 63.0037 65.1054 63.0037C65.8458 63.0037 65.9483 63.3192 65.8971 65.4416L65.861 66.9482H66.3692H66.877V64.494V62.0398L65.2777 61.9897C63.7402 61.9413 63.6742 61.9553 63.5708 62.3404ZM68.6774 62.2969C67.0149 63.6047 67.8012 67.036 69.764 67.036C71.4594 67.036 72.2765 65.8358 71.9705 63.795C71.7281 62.1792 69.89 61.3428 68.6774 62.2969ZM73.0063 62.169C72.9554 62.3011 72.9361 63.4303 72.9636 64.6786L73.0128 66.9482L73.4887 67.0032C74.1056 67.0742 74.1569 66.8358 74.1052 64.1433L74.0646 62.0398L73.5814 61.9844C73.2914 61.9507 73.0617 62.0246 73.0063 62.169ZM75.4232 62.1329C74.6237 62.4541 75.1775 63.265 76.0291 63.0193C76.8208 62.7912 77.3388 62.9586 77.2728 63.4213C77.2334 63.6982 77.0751 63.8069 76.6501 63.8475C75.824 63.9275 75.8092 64.7077 76.6325 64.7898C77.3294 64.8591 77.6502 65.3082 77.3023 65.7271C77.103 65.9674 76.8581 66.0081 76.0479 65.9342C74.9941 65.8386 74.5015 66.2279 75.02 66.7468C75.4269 67.1538 77.5784 66.9966 78.0821 66.5233C78.6548 65.9851 78.72 64.8755 78.1978 64.5494C77.8655 64.3418 77.8655 64.3332 78.1978 63.9107C79.2168 62.6157 77.2913 61.3822 75.4232 62.1329ZM80.129 62.4032C78.8746 63.4586 79.035 66.2177 80.3862 66.8334C82.3019 67.7063 83.9702 65.9707 83.45 63.6461C83.096 62.064 81.3215 61.3998 80.129 62.4032ZM85.1151 62.1645C85.0736 62.2887 84.9662 63.1247 84.8759 64.0223C84.7455 65.3197 84.6327 65.7386 84.3254 66.0655C83.7872 66.6381 84.1113 67.3925 84.7213 66.9872C85.5027 66.4683 85.748 65.9133 85.8493 64.4325L85.9474 63.0037H86.6234H87.2998V65.0199V67.036H87.8306H88.361L88.3126 64.5379L88.2638 62.0398L86.7272 61.9889C85.5921 61.9516 85.1709 61.9975 85.1151 62.1645ZM89.8878 62.2978C89.2392 62.8081 89.0965 63.6166 89.5473 64.2261C89.8406 64.6228 89.8632 64.7508 89.6765 64.9514C89.3721 65.2791 89.0309 66.7337 89.2155 66.9183C89.601 67.3035 90.1794 66.9445 90.3989 66.184C90.8825 64.5071 91.81 64.3558 91.8924 65.9404C91.9425 66.897 91.97 66.9511 92.4323 67.004L92.9192 67.0602L92.8704 64.5498L92.8215 62.0398L91.5831 61.9889C90.5511 61.9466 90.2689 61.9979 89.8878 62.2978ZM94.0001 64.4501L94.0489 66.9482L95.7471 66.9983L97.4449 67.0483L97.4999 67.5242C97.5434 67.9003 97.6468 68 97.993 68C98.5377 68 98.7662 66.4232 98.2736 66.0626C98.0672 65.9121 97.9938 65.4252 97.9556 63.9534L97.9052 62.0398H97.3793H96.8534L96.8042 64.012L96.7546 65.9839H95.8837H95.0128V63.9681V61.952H94.4821H93.9517L94.0001 64.4501ZM99.2966 62.1805C99.2486 62.306 99.2314 63.4303 99.2584 64.6786L99.3077 66.9482L99.7901 67.0036L100.272 67.059V64.5055V61.952H99.8282C99.5842 61.952 99.345 62.0549 99.2966 62.1805ZM101.844 62.4569C101.558 62.7428 101.324 63.137 101.324 63.3327C101.324 63.8044 101.686 64.5818 101.905 64.5818C102.001 64.5818 101.953 64.7208 101.799 64.8911C101.566 65.1487 101.168 66.3941 101.153 66.9154C101.133 67.5857 102.287 66.8695 102.485 66.0893C102.719 65.1704 102.933 64.9391 103.559 64.935C103.925 64.9325 103.953 65.0092 103.953 65.9839V67.036H104.484H105.015L104.966 64.5379L104.918 62.0398L103.641 61.9881C102.428 61.9393 102.338 61.9626 101.844 62.4569ZM115.136 62.4036C113.29 63.3307 113.426 66.5097 115.311 66.5097C115.504 66.5097 115.706 66.6283 115.762 66.7731C115.817 66.9175 116.065 67.036 116.312 67.036C116.559 67.036 116.807 66.9175 116.862 66.7731C116.918 66.6283 117.12 66.5097 117.312 66.5097C117.505 66.5097 117.93 66.2419 118.258 65.9137C120.153 64.0182 117.612 61.1603 115.136 62.4036ZM120.643 62.2485C120.437 62.6497 119.205 66.5873 119.205 66.8445C119.205 67.3383 120.228 67.0381 120.344 66.5097C120.452 66.0146 120.509 65.9839 121.3 65.9839C122.094 65.9839 122.147 66.0134 122.246 66.5097C122.37 67.1308 123.423 67.3306 123.399 66.7292C123.347 65.4075 121.901 62.0377 121.363 61.9856C120.965 61.947 120.759 62.0221 120.643 62.2485ZM124.922 62.3183C123.519 63.4213 123.625 66.3087 125.089 66.865C125.842 67.1513 127.794 66.938 127.794 66.5688C127.794 66.0889 127.376 65.8054 126.822 65.9096C125.429 66.1709 124.719 65.3005 125.15 63.8598C125.37 63.1243 125.798 62.9028 126.731 63.0398C127.4 63.1379 127.825 62.4253 127.274 62.1308C126.689 61.8174 125.431 61.9175 124.922 62.3183ZM129.586 62.1714C129.346 62.4639 127.997 66.737 128.092 66.9044C128.3 67.2752 129.047 67.0151 129.223 66.5097C129.388 66.0355 129.48 65.9839 130.161 65.9839C130.842 65.9839 130.933 66.0355 131.098 66.5097C131.236 66.9048 131.391 67.036 131.719 67.036C132.398 67.036 132.389 66.8933 131.56 64.3898C131.132 63.0973 130.78 62.0201 130.778 61.9959C130.765 61.8412 129.732 61.993 129.586 62.1714ZM134.308 62.2588C134.22 62.4278 133.93 63.3147 133.663 64.2306C133.396 65.1462 133.062 65.9798 132.921 66.0827C132.085 66.6939 132.717 66.9482 135.072 66.9482H137.348L137.404 66.4663C137.441 66.1426 137.378 65.9839 137.212 65.9839C137.053 65.9839 136.835 65.4932 136.593 64.5892C135.963 62.2366 135.801 61.952 135.084 61.952C134.675 61.952 134.414 62.0553 134.308 62.2588ZM44.1173 62.9455C43.8503 63.2129 43.991 65.9428 44.2777 66.0528C44.7782 66.2452 46.9026 66.1672 47.1208 65.949C47.3391 65.7308 47.417 63.6063 47.225 63.1059C47.1147 62.8191 44.3848 62.6784 44.1173 62.9455ZM107.991 63.1678C107.7 63.7117 107.764 65.563 108.085 65.8838C108.426 66.2246 110.779 66.2755 111.106 65.949C111.23 65.8247 111.316 65.2283 111.316 64.494C111.316 62.9139 111.224 62.8286 109.534 62.8286C108.368 62.8286 108.147 62.877 107.991 63.1678ZM14.3686 63.343C14.9039 64.3435 14.4748 65.9839 13.6774 65.9839C13.0186 65.9839 12.6219 65.4239 12.6219 64.494C12.6219 63.2117 13.8612 62.395 14.3686 63.343ZM23.6589 63.2585C24.0637 63.7462 23.7118 64.2311 22.9525 64.2311C22.2818 64.2311 22.2634 64.2147 22.2634 63.6174C22.2634 62.9373 23.1933 62.6977 23.6589 63.2585ZM30.2393 63.4422C30.2393 63.7208 30.1044 63.804 29.5822 63.8471C28.9759 63.8976 28.9246 63.866 28.9246 63.4422C28.9246 63.0185 28.9759 62.9869 29.5822 63.0374C30.1044 63.0804 30.2393 63.1637 30.2393 63.4422ZM39.9685 63.53C39.9685 64.1273 38.8429 64.3484 38.6296 63.793C38.4397 63.2978 38.708 63.0037 39.3495 63.0037C39.9205 63.0037 39.9685 63.0447 39.9685 63.53ZM70.6398 63.343C71.1755 64.3435 70.7461 65.9839 69.9486 65.9839C69.2898 65.9839 68.8932 65.4239 68.8932 64.494C68.8932 63.2117 70.1324 62.395 70.6398 63.343ZM82.1472 63.3106C82.8044 64.1761 82.2555 65.9839 81.3359 65.9839C80.52 65.9839 80.0975 64.286 80.6804 63.352C80.9544 62.9139 81.8273 62.8889 82.1472 63.3106ZM91.8576 63.53C91.8576 64.0149 91.8096 64.0559 91.2386 64.0559C90.5966 64.0559 90.3287 63.7618 90.5187 63.2671C90.732 62.7113 91.8576 62.9324 91.8576 63.53ZM103.953 63.53C103.953 64.131 102.983 64.3131 102.551 63.793C102.226 63.4012 102.634 63.0037 103.361 63.0037C103.902 63.0037 103.953 63.0493 103.953 63.53ZM135.762 65.4145L135.886 65.9839H135.083C134.641 65.9839 134.28 65.9342 134.28 65.8735C134.28 65.8128 134.455 65.1249 134.669 64.3447L135.058 62.9262L135.348 63.8853C135.508 64.4128 135.694 65.1011 135.762 65.4145ZM115.62 65.5946C115.568 65.6471 115.367 65.5466 115.174 65.3714C114.688 64.9321 114.709 63.9931 115.216 63.4861L115.611 63.0915L115.663 64.2955C115.692 64.9579 115.673 65.5425 115.62 65.5946ZM117.77 64.3119C117.823 64.937 117.456 65.6335 117.074 65.6335C116.992 65.6335 116.925 65.0716 116.925 64.3849V63.1366L117.32 63.3971C117.588 63.5739 117.732 63.8676 117.77 64.3119ZM130.483 64.3623C130.58 64.8808 130.551 64.9321 130.156 64.9321C129.656 64.9321 129.656 64.9325 129.929 64.0214C130.149 63.286 130.297 63.3774 130.483 64.3623ZM121.598 64.2311C121.783 64.9231 121.779 64.9321 121.308 64.9321C120.837 64.9321 120.833 64.9231 121.018 64.2311C121.121 63.8455 121.251 63.53 121.308 63.53C121.365 63.53 121.495 63.8455 121.598 64.2311ZM30.225 64.8632C31.0019 65.1614 30.4231 65.9839 29.4362 65.9839C28.9685 65.9839 28.9246 65.9313 28.9246 65.3706C28.9246 64.7352 29.4038 64.5481 30.225 64.8632Z" fill="#8489A8"/>
</svg>
