<svg width="107" height="40" viewBox="0 0 107 40" fill="none" xmlns="http://www.w3.org/2000/svg">
<path id="logo-oldi1 1" fill-rule="evenodd" clip-rule="evenodd" d="M10.7317 0.326335C8.57543 0.702065 7.07111 1.37233 5.82195 2.51393C4.99633 3.26855 3.61327 5.09729 3.61327 5.43401C3.61327 5.52469 3.47549 5.86843 3.30748 6.19742C2.77746 7.23428 2.65198 7.65886 1.91177 10.9213C1.76028 11.5887 1.54236 12.6808 1.42708 13.3479C1.31179 14.0153 1.14484 14.7482 1.05557 14.9763C0.966643 15.2047 0.843275 15.8233 0.781766 16.3516C0.719906 16.8795 0.551547 17.7122 0.407793 18.2014C-0.592513 21.5988 0.305865 25.7772 2.46359 27.7648C3.03263 28.2888 3.59113 28.7176 3.7043 28.7176C3.81783 28.7176 4.11659 28.8238 4.36859 28.9535C5.88979 29.7362 18.5989 30.0258 21.5713 29.3454C25.6165 28.4189 28.3875 24.7737 29.0107 19.5585C29.0757 19.0144 29.1762 18.4925 29.2346 18.3983C29.3284 18.2464 29.6367 16.8033 30.6412 11.8112C30.8022 11.0102 31.0183 10.0275 31.1213 9.62714C31.4658 8.28871 31.0739 5.92608 30.2398 4.31279C29.8841 3.62495 27.7306 1.53788 27.377 1.53788C27.2196 1.53788 27.0491 1.46969 26.9974 1.38639C26.3075 0.269748 15.2078 -0.453594 10.7317 0.326335ZM37.9235 0.508049C37.6033 0.914709 37.45 2.00886 37.7094 2.03557C38.9385 2.1607 39.2281 3.12093 38.3913 4.29592C38.2166 4.54161 38.0735 4.82912 38.0735 4.93526C38.0735 5.04106 37.9699 5.32118 37.8437 5.55738C37.4476 6.29794 36.1327 9.24824 35.7411 10.2742C35.6902 10.4074 35.5872 10.626 35.5123 10.7596C35.3798 10.9954 34.609 12.6368 33.8955 14.2016C33.7019 14.6269 33.5433 15.0729 33.5433 15.1931C33.5433 15.3133 33.434 15.5021 33.3008 15.6132C33.1673 15.7239 33.058 15.9119 33.058 16.0314C33.058 16.1509 32.6576 17.0813 32.1684 18.0992C31.6788 19.1174 31.2784 20.0576 31.2784 20.1887C31.2784 20.3198 31.1765 20.5117 31.0517 20.615C30.9269 20.7187 30.7821 20.9742 30.7298 21.1827C30.6774 21.3911 30.2655 22.3527 29.8145 23.3196C27.8979 27.4288 27.9187 27.3655 28.2065 28.2382C28.675 29.6582 28.7155 29.6677 34.5183 29.7007L39.6102 29.7295L39.9656 29.0315C40.394 28.1897 40.2829 27.9096 39.425 27.6688C38.703 27.466 38.5653 27.1075 38.9287 26.3782C39.6464 24.9379 40.3385 23.3984 40.3385 23.2413C40.3385 23.1432 40.4836 22.8244 40.6615 22.5334C40.839 22.242 40.9845 21.8737 40.9848 21.7148C40.9859 21.319 41.459 20.6284 41.7289 20.6284C41.995 20.6284 42.0698 20.9567 42.1911 22.6508C42.5823 28.1321 42.7665 28.8607 43.9102 29.4519C44.3091 29.6585 52.3854 29.8058 57.1236 29.693C57.2347 29.6905 57.3257 29.5826 57.3257 29.4533C57.3257 28.6196 58.1598 28.0319 58.3759 28.7134C58.6993 29.732 58.0723 29.6884 72.343 29.6884C87.9999 29.6884 86.7314 29.9042 87.55 27.0998C87.7447 26.4323 87.9039 25.6225 87.9036 25.2999C87.9032 24.9776 88.0122 24.404 88.1458 24.0258C88.3999 23.3056 88.4754 22.0898 88.267 22.0768C88.2002 22.0726 87.7683 22.0533 87.3071 22.0336C86.846 22.0139 86.427 21.9563 86.3761 21.9057C86.1789 21.7085 85.6453 19.3782 85.639 18.6868C85.6355 18.2865 85.4896 17.4127 85.3146 16.7456C85.1396 16.0782 84.9955 15.204 84.9937 14.803C84.9923 14.402 84.9157 13.8196 84.8236 13.5089C84.6162 12.8087 84.2451 10.8457 83.9365 8.81804C83.8078 7.97273 83.6324 6.91724 83.5463 6.47227C83.4602 6.0273 83.3133 5.19008 83.2201 4.61155C82.4736 -0.0233852 82.6652 0.0817068 74.9523 0.0817068H69.3213L68.9783 0.517891C68.5112 1.11154 68.586 1.89533 69.1213 2.02046C69.3361 2.07072 69.6521 2.30023 69.8243 2.5308C70.1701 2.99405 70.2482 2.71709 68.9874 5.50149C68.8264 5.85754 68.5815 6.40338 68.4433 6.71479C68.3052 7.0262 67.9267 7.86342 67.6019 8.57551C67.0009 9.8932 66.6286 10.7171 66.177 11.73C66.0382 12.0414 65.6224 12.9518 65.2533 13.7524C64.8839 14.5534 64.4783 15.4451 64.3514 15.7344C62.3455 20.3078 61.7248 21.5591 61.3206 21.842C61.1115 21.9886 60.6096 22.0846 60.0511 22.0846C59.3081 22.0846 59.1123 22.1397 59.0508 22.3675C59.009 22.5232 58.8515 23.2332 58.7011 23.9449C58.551 24.6567 58.3253 25.6805 58.2002 26.2204C58.0754 26.7599 57.9728 27.356 57.9728 27.5455C57.9728 28.0242 57.7145 28.1345 57.2902 27.8372C57.092 27.6984 56.8027 27.5852 56.6467 27.5852C56.2217 27.5852 55.8836 26.7736 55.6875 25.2816C55.5912 24.5463 55.4105 23.5474 55.2865 23.0617C55.1624 22.5756 55.0608 21.9071 55.0608 21.5753C55.0608 21.2438 54.9156 20.3672 54.7385 19.6274C54.561 18.8879 54.4155 17.9779 54.4148 17.6053C54.4141 17.2331 54.3392 16.733 54.2485 16.494C54.1575 16.2549 54.0138 15.6132 53.9287 15.0677C53.4711 12.1286 53.1175 10.1308 52.966 9.62819C52.8725 9.31713 52.7952 8.73473 52.7941 8.3337C52.7931 7.93266 52.6852 7.2515 52.5541 6.81988C52.4233 6.38827 52.2708 5.55105 52.2156 4.95951C51.7748 0.242684 51.4972 0.0817068 43.8149 0.0817068H38.2588L37.9235 0.508049ZM92.4397 0.468684C92.0602 1.46758 92.0538 2.02292 92.4225 2.02292C92.9132 2.02292 93.6281 2.76946 93.4752 3.12234C93.368 3.36978 93.1121 4.54864 92.5905 7.20018C92.4942 7.68944 92.2728 8.74528 92.0985 9.54595C91.9238 10.347 91.6278 11.7666 91.4405 12.7008C91.2532 13.635 90.9667 15.055 90.8043 15.8557C90.1432 19.1118 89.8606 20.5374 89.6659 21.5992C89.4859 22.5805 89.1689 24.1505 88.7999 25.8865C88.5728 26.955 88.4962 27.7054 88.5338 28.4962C88.5429 28.6857 88.7998 29.0315 89.1049 29.2642L89.6599 29.6874L96.1499 29.7018C103.156 29.7172 102.907 29.7496 103.258 28.7788C103.499 28.111 103.139 27.5852 102.441 27.5852C101.786 27.5852 101.902 26.5209 103.181 20.7901C103.33 20.1226 103.525 19.1037 103.614 18.5251C103.704 17.9466 103.882 17.199 104.01 16.8637C104.138 16.528 104.243 15.9769 104.243 15.6392C104.243 15.301 104.361 14.629 104.505 14.1457C104.649 13.6624 104.86 12.7212 104.973 12.0537C105.282 10.2355 105.988 6.75275 106.251 5.74401C106.378 5.25475 106.563 4.38098 106.662 3.8028C106.76 3.22427 106.884 2.54627 106.937 2.29566C106.997 2.01519 106.922 1.59236 106.742 1.19378C106.244 0.0890881 106.191 0.0817068 98.9618 0.0817068H92.587L92.4397 0.468684ZM17.7163 8.08661C17.8984 8.48624 17.7933 9.44085 17.3778 11.1638C17.2917 11.5198 17.1466 12.2116 17.0552 12.7008C16.7772 14.1872 16.0791 17.5758 15.8391 18.606C15.7146 19.1399 15.5667 19.9156 15.5104 20.3296C15.3836 21.2653 14.8247 21.9225 14.1569 21.9225C13.2209 21.9225 13.119 21.1577 13.7158 18.606C13.8617 17.9832 14.081 16.8911 14.2036 16.1794C14.3267 15.4673 14.4954 14.7028 14.579 14.4807C14.6627 14.2582 14.7822 13.6143 14.8444 13.0498C14.9066 12.4854 15.0321 11.8302 15.1228 11.5937C15.2134 11.3575 15.3902 10.5867 15.515 9.8809C15.8538 7.96676 17.1722 6.89229 17.7163 8.08661ZM74.9776 16.3537C75.0314 16.8806 75.1608 18.258 75.2644 19.4151C75.3685 20.5718 75.4848 21.66 75.5235 21.8332C75.7157 22.6947 72.6533 22.9815 71.8941 22.1735C71.5374 21.7939 71.5349 21.654 71.8755 21.1138C72.1405 20.6931 73.0016 18.7308 73.1092 18.302C73.1661 18.0763 73.3145 17.8067 73.4392 17.703C73.564 17.5993 73.6659 17.4099 73.6659 17.2816C73.6659 16.8321 74.481 15.2645 74.6806 15.3302C74.7917 15.3668 74.9228 15.8177 74.9776 16.3537ZM46.2746 31.0863C46.2176 31.1432 46.2943 31.398 46.4443 31.6525C46.8218 32.2915 48.646 32.3674 48.8108 31.7509C49.0337 30.9204 48.8365 30.7896 48.0077 31.2195C47.6063 31.4279 47.5188 31.4279 47.2889 31.2195C47.0197 30.9759 46.4587 30.9021 46.2746 31.0863ZM0.591617 32.47C0.255252 32.8419 0.209911 38.1088 0.539597 38.5063C1.07103 39.1463 3.65264 38.6307 4.27229 37.7608C5.22339 36.4248 4.3106 34.542 2.71173 34.542C2.13812 34.542 1.83374 34.3715 1.83374 34.0499C1.83374 33.6749 2.30507 33.5234 3.04177 33.6615C3.90886 33.8243 4.59952 32.7674 3.90605 32.3389C3.46776 32.0679 0.862254 32.1713 0.591617 32.47ZM5.23709 32.3502C5.0241 32.6071 5.40229 34.2668 5.71862 34.4622C5.80649 34.5167 5.87819 34.8024 5.87819 35.0977C5.87819 35.3933 5.98258 35.7215 6.11052 35.8273C6.75091 36.3588 6.52878 37.454 5.78048 37.454C5.34113 37.454 5.07401 38.1383 5.345 38.571C5.90209 39.4616 7.93574 38.2571 8.18705 36.8877C8.2953 36.298 9.21231 33.6 9.43761 33.2092C9.79541 32.5874 9.41089 32.005 8.75187 32.1716C8.40918 32.2584 7.89427 33.1424 7.58356 34.1778C7.40325 34.7782 7.06197 34.5929 6.85846 33.7849C6.51296 32.4124 5.74779 31.7351 5.23709 32.3502ZM11.0569 32.3558C10.9736 32.4563 10.8678 33.0531 10.8221 33.6823C10.776 34.3114 10.6643 35.0217 10.5732 35.2607C10.4826 35.4998 10.408 35.9704 10.408 36.3067C10.408 36.7257 10.2808 37.0663 10.0038 37.3882C9.22215 38.2975 9.62916 40.2602 10.5395 39.9713C10.7644 39.8999 10.8934 39.7273 10.8934 39.4978C10.8934 38.5151 12.9158 38.3654 13.3685 39.3143C13.83 40.282 15.1558 39.9213 14.889 38.901C14.7519 38.377 15.1765 37.9633 15.4078 38.3956C15.6415 38.8325 16.1645 38.8536 16.3884 38.4353C16.7121 37.8308 16.6032 32.6932 16.2601 32.3829C15.3818 31.5878 15.0999 32.2605 15.0999 35.1518C15.0999 37.6772 14.9987 38.0694 14.4806 37.5513C14.2564 37.3267 14.2233 36.9489 14.2641 35.065C14.3256 32.2257 14.326 32.2257 12.5281 32.1955C11.719 32.1818 11.1497 32.244 11.0569 32.3558ZM17.4724 32.3041C17.1293 32.496 17.0605 38.2174 17.3972 38.5541C17.717 38.8739 19.7074 38.7984 20.4048 38.4399C21.597 37.8269 21.836 36.6913 20.9858 35.6808C20.5914 35.2122 20.5801 35.1564 20.8237 34.8871C21.1882 34.484 21.1752 33.2137 20.803 32.889C20.0919 32.269 18.1458 31.927 17.4724 32.3041ZM22.3839 32.3379C22.2057 32.5161 22.1453 38.0459 22.3168 38.4922C22.4419 38.8184 25.1128 38.863 25.6182 38.5474C25.8738 38.3878 26.0052 38.3878 26.2607 38.5474C26.8435 38.9115 27.3264 38.7833 27.9429 38.1007L28.5281 37.4529V35.588C28.5281 34.0102 28.5689 33.7072 28.7928 33.6211C29.4567 33.3663 29.5794 33.736 29.5871 36.0164C29.5959 38.481 29.656 38.7481 30.2043 38.7481C30.76 38.7481 30.7934 38.5611 30.7906 35.459C30.7874 32.0613 30.882 32.2338 29.0124 32.2096C27.0839 32.1846 27.0719 32.2001 27.0719 34.6692C27.0719 37.5415 26.6287 37.9151 23.8791 37.3601C22.8795 37.1584 23.3396 35.9978 24.4193 35.9978C25.7117 35.9978 25.5873 34.769 24.2851 34.672C22.9206 34.5701 23.0827 33.626 24.4545 33.6844C25.5602 33.7315 26.0541 33.2018 25.549 32.5111C25.2892 32.1561 22.7073 32.0145 22.3839 32.3379ZM31.9578 32.309C31.7529 32.514 31.6682 37.9872 31.8619 38.4922C31.9856 38.8142 34.0048 38.8543 34.5567 38.546C36.2733 37.5865 36.3383 35.8938 34.7029 34.7335C34.4126 34.5276 34.0147 34.3719 33.8189 34.3873C33.1029 34.4446 33.058 34.3986 33.058 33.607C33.058 32.4672 32.4808 31.7864 31.9578 32.309ZM36.6497 32.309C36.3763 32.5825 36.3763 38.2806 36.6497 38.5541C37.3196 39.224 37.992 38.4286 37.856 37.1267C37.7432 36.0488 37.8739 35.872 38.6412 36.0646C39.0292 36.1623 39.0419 36.2034 38.941 37.0607C38.7818 38.4146 39.452 39.2462 40.1441 38.5541C40.4661 38.2321 40.4123 32.6974 40.084 32.3691C39.4802 31.7653 38.8429 32.4331 38.9174 33.5912L38.9631 34.2991H38.3969H37.8307L37.8764 33.5912C37.9491 32.4658 37.237 31.7221 36.6497 32.309ZM41.2534 32.411C40.9367 32.7607 40.8516 37.8726 41.1528 38.4353C41.4829 39.0518 42.6034 38.6184 42.6034 37.8743C42.6034 37.4649 43.4318 36.1145 43.5875 36.2702C43.6599 36.343 43.7411 36.912 43.7682 37.5348L43.8167 38.6673H44.3021H44.7875V35.5303C44.7875 32.7438 44.7565 32.3734 44.5102 32.218C44.1119 31.9667 43.2505 32.8092 43.2505 33.4503C43.2505 34.0879 42.9791 34.542 42.5978 34.542C42.2396 34.542 42.1841 34.168 42.4417 33.49C42.7893 32.5755 41.8646 31.7354 41.2534 32.411ZM46.0015 32.4057C45.566 32.7582 45.4317 38.0146 45.8454 38.5133C46.3969 39.1776 47.1712 38.3759 47.7174 36.5753C47.9546 35.7936 48.1817 36.0878 48.2337 37.2434C48.2973 38.6711 49.1521 39.4553 49.4888 38.3949C49.6846 37.7773 49.5974 32.598 49.3869 32.3438C49.0056 31.8845 47.7803 32.9435 47.7803 33.7325C47.7803 34.2271 47.4886 34.7037 47.1856 34.7037C46.9649 34.7037 46.9406 34.5596 47.0243 33.7564C47.1533 32.5238 46.6598 31.8725 46.0015 32.4057ZM53.3885 32.4198C51.8184 33.4549 51.8248 37.4835 53.3983 38.5147C54.4018 39.172 55.5567 38.8585 55.6014 37.9165C55.6263 37.3865 55.6109 37.3728 54.9656 37.3584C53.9568 37.3355 53.9284 37.2849 53.9284 35.523C53.9284 33.7294 54.0482 33.5051 54.9874 33.5403C55.5501 33.5614 55.639 33.4394 55.5543 32.7621C55.471 32.096 54.1874 31.8932 53.3885 32.4198ZM56.3546 32.3582C56.1353 32.6226 56.6498 34.5539 57.0966 35.143C57.2168 35.3019 57.3177 35.5982 57.3205 35.8013C57.3236 36.0048 57.4414 36.3472 57.5823 36.5626C57.8547 36.9781 57.7781 37.2923 57.4048 37.2923C56.4766 37.2923 56.0428 37.9654 56.6077 38.5302C57.4976 39.4201 59.5907 37.6884 59.5907 36.0621C59.5907 35.84 59.6901 35.4618 59.8117 35.2214C59.9333 34.981 60.0852 34.4935 60.1492 34.1374C60.2131 33.7814 60.3748 33.368 60.5087 33.2187C60.8194 32.8725 60.6567 32.3291 60.1987 32.1836C59.6395 32.0061 58.9436 32.9016 58.9436 33.799C58.9436 35.0963 58.0948 34.9479 57.9127 33.619C57.7503 32.4359 56.8769 31.7288 56.3546 32.3582ZM61.3537 32.4697C61.2732 32.6201 61.1604 33.9336 61.1031 35.388C60.9899 38.2599 61.0834 38.7481 61.748 38.7481C62.4316 38.7481 62.503 38.4933 62.503 36.0495V33.7392L62.9248 33.6331C63.556 33.4749 63.6302 33.7406 63.633 36.1679C63.6355 38.4135 63.7212 38.7481 64.2952 38.7481C64.8902 38.7481 64.97 38.3534 64.97 35.4189C64.97 33.6313 64.9064 32.5125 64.7985 32.4046C64.4881 32.0939 61.5248 32.1502 61.3537 32.4697ZM65.9608 32.3523C65.9236 32.4496 65.9127 33.9104 65.9373 35.5985L65.9812 38.6673L67.5541 38.7137C69.1073 38.7594 69.1284 38.7548 69.2271 38.3611C69.4064 37.6462 69.1016 37.3766 68.1105 37.3749C67.0982 37.3728 66.9924 37.3102 66.9924 36.7141C66.9924 36.1848 67.2585 36.0034 68.0409 36.0003C68.5498 35.9982 68.6605 35.9342 68.7466 35.5915C68.8844 35.0425 68.5667 34.7037 67.9143 34.7037C67.3144 34.7037 66.8378 34.3314 66.9763 33.9708C67.075 33.7135 67.2181 33.6812 68.327 33.6636L69.0552 33.652V32.9336V32.2152L67.5421 32.1952C66.578 32.1825 66.0041 32.2394 65.9608 32.3523ZM70.4576 32.2655C69.9178 32.6197 69.7399 37.5116 70.2352 38.3843C70.7227 39.2433 71.7156 38.5172 71.5072 37.454C71.3142 36.4698 71.5191 36.1964 72.5377 36.0783C73.6709 35.9468 74.3134 35.247 74.3134 34.1441C74.3134 33.4721 73.3173 32.2904 72.7289 32.2648C72.5771 32.2581 72.0354 32.2345 71.5258 32.2127C71.0158 32.1909 70.5353 32.2145 70.4576 32.2655ZM75.1316 32.2676C74.8349 32.4553 74.6835 37.9074 74.9604 38.4251C75.5383 39.5048 76.1973 38.5643 76.0205 36.912C75.8658 35.4678 76.2127 35.1704 76.7614 36.2772C77.1593 37.0796 77.5817 37.2849 77.6854 36.7261C77.9069 35.5331 78.5272 35.7855 78.4119 37.0213C78.2713 38.527 78.8319 39.2518 79.5293 38.4652C79.976 37.9615 80.0822 32.8689 79.6551 32.4415C79.0544 31.8409 78.5986 32.1519 77.8682 33.6612C77.6766 34.0566 77.4527 34.3799 77.3701 34.3799C77.174 34.3799 76.5797 33.4004 76.5786 33.0756C76.5776 32.5691 75.5565 31.9987 75.1316 32.2676ZM81.8954 32.3983C81.4659 32.9185 81.1081 33.8988 81.1081 34.5553C81.1081 34.9128 81.0087 35.4017 80.8874 35.6418C80.5971 36.2164 80.3918 38.5246 80.6185 38.6648C80.9109 38.8455 81.3408 38.6054 81.6265 38.1014C82.0462 37.3615 82.9344 37.402 83.3945 38.1819C83.7822 38.8388 84.3407 38.9376 84.6897 38.4114L84.9136 38.0743L85.3417 38.4114C86.1989 39.0855 86.6087 38.7038 86.6087 37.2315C86.6087 36.2157 86.6587 36.1623 87.7043 36.0656C90.5319 35.8041 89.7379 32.3294 86.8228 32.2075C85.1403 32.1375 85.1209 32.172 85.0942 35.278C85.0654 38.6247 84.8134 38.7959 84.1716 35.9047C83.9333 34.8298 83.656 33.7972 83.5555 33.6099C83.4553 33.4222 83.373 33.1238 83.373 32.9463C83.373 32.211 82.3601 31.8352 81.8954 32.3983ZM90.1843 32.3382C90.0673 32.4792 90.0335 32.8819 90.0926 33.4303C90.1439 33.9083 90.1221 35.1363 90.0437 36.1598C89.8877 38.204 89.9973 38.7481 90.566 38.7481C91.1428 38.7481 91.3006 38.4276 91.3006 37.2547C91.3006 35.4052 92.3129 35.4491 92.4011 37.3028C92.4559 38.4479 92.6169 38.7481 93.1754 38.7481C93.8734 38.7481 94.2214 36.5317 93.6432 35.7672C93.3332 35.3574 93.4995 33.8 93.91 33.2707C94.1283 32.9891 94.1641 32.812 94.0474 32.5941C93.5574 31.6785 92.4331 32.3196 92.4331 33.5146C92.4331 34.0752 92.3558 34.2615 92.0359 34.4713C91.4633 34.846 91.3006 34.6471 91.3006 33.5733C91.3006 32.3386 90.7186 31.6947 90.1843 32.3382ZM94.8544 32.3646C94.7532 32.4862 94.7075 33.729 94.7349 35.6143L94.7788 38.6673L96.3774 38.714C97.6964 38.7523 98.0286 38.7126 98.2781 38.4866C98.9452 37.8828 98.3759 37.3907 96.9977 37.3798C95.4864 37.3679 95.3426 36.2087 96.828 36.0105C97.8792 35.8702 97.9007 34.7037 96.8519 34.7037C96.3243 34.7037 95.8305 34.4253 95.8305 34.1276C95.8305 33.8 96.5904 33.5346 97.1661 33.6612C97.526 33.7403 97.7291 33.6777 98.0289 33.3958C98.4033 33.044 98.4314 33.0408 98.6356 33.3202C98.7537 33.4812 99.1354 33.6598 99.4841 33.7171L100.118 33.8207L100.132 35.9205C100.149 38.3657 100.233 38.7481 100.756 38.7481C101.39 38.7481 101.481 38.4335 101.529 36.0681L101.574 33.8137L102.059 33.7599C102.992 33.6563 103.436 32.8465 102.804 32.4036C102.316 32.062 99.1396 32.1604 98.7316 32.5294C98.4338 32.799 98.404 32.7987 98.0964 32.5203C97.6982 32.16 95.1268 32.0363 94.8544 32.3646ZM72.7637 33.9016C73.0646 34.1958 72.577 34.8653 72.0625 34.8653C71.5033 34.8653 71.2797 34.4239 71.5673 33.8865C71.7546 33.5368 72.3985 33.5448 72.7637 33.9016ZM87.8024 33.9009C87.8804 33.9736 87.8973 34.22 87.8396 34.4492C87.6621 35.1564 86.4471 34.9037 86.4471 34.1596C86.4471 33.6812 87.375 33.5041 87.8024 33.9009ZM12.7004 33.935C12.8845 34.5378 12.5826 37.3717 12.3289 37.4199C11.8385 37.5134 11.4994 37.0016 11.7827 36.5967C11.944 36.3669 12.0259 35.8611 12.0259 35.0991C12.0259 34.4664 12.0744 33.9002 12.1338 33.8408C12.3106 33.6643 12.6339 33.7181 12.7004 33.935ZM19.9106 34.0056C20.0564 34.4499 19.1542 34.7852 18.7908 34.4218C18.608 34.239 18.5103 34.0049 18.5736 33.9023C18.7205 33.6643 19.8266 33.7501 19.9106 34.0056ZM82.7896 35.2829C82.9305 35.6505 82.7284 36.3215 82.4768 36.3215C82.1717 36.3215 82.029 35.7461 82.2374 35.3567C82.4486 34.962 82.6557 34.9342 82.7896 35.2829ZM2.80698 36.1293C3.25617 36.493 3.12788 37.0635 2.53599 37.3334C2.0506 37.5545 1.83971 37.3187 1.8362 36.5507C1.83198 35.7627 2.17186 35.615 2.80698 36.1293ZM33.8776 36.0034C34.5841 36.3816 34.0256 37.6255 33.2769 37.3408C32.865 37.1844 32.9634 35.8361 33.3869 35.8361C33.4847 35.8361 33.7054 35.9113 33.8776 36.0034ZM19.9232 36.6048C19.9928 37.3264 19.234 37.6807 18.7908 37.1331C18.3377 36.5735 18.7173 35.9591 19.4681 36.0368C19.7957 36.0709 19.8821 36.1792 19.9232 36.6048Z" fill="#8489A8"/>
</svg>
