<svg width="111" height="58" viewBox="0 0 111 58" fill="none" xmlns="http://www.w3.org/2000/svg">
<path id="StareMisto (1) 1" fill-rule="evenodd" clip-rule="evenodd" d="M0 28.9999V58H55.2826H110.565V28.9999V0H55.2826H0V28.9999ZM107.892 28.946V55.2193L107.558 55.2511C107.375 55.2685 83.7 55.2724 54.9484 55.2599L2.67291 55.2375V28.9551V2.67291H55.2826H107.892V28.946ZM21.6053 6.3376C18.1484 6.54518 14.9998 7.46564 12.9632 8.86346C5.63108 13.8953 5.36821 26.3477 12.5176 29.964C14.159 30.7941 16.5737 31.4154 21.0707 32.1648C26.9389 33.1427 28.8567 34.2959 29.6204 37.3058C30.7418 41.727 28.4902 45.9 24.2328 47.2907C19.7707 48.7479 13.3098 46.873 10.9656 43.4408C10.5214 42.7904 10.3378 41.3411 10.3356 38.4662L10.3348 37.4194H9.10007H7.86505L7.80894 37.8871C7.77798 38.1444 7.752 38.896 7.75117 39.5575C7.74758 42.2074 7.53889 44.5486 7.12095 46.6336C6.90894 47.692 6.87798 47.9787 6.96865 48.0403C8.51988 49.0931 12.5679 50.4722 15.3019 50.8793C27.4862 52.694 36.5642 47.0408 37.4288 37.1001C37.7613 33.2746 36.7375 29.8764 34.626 27.7986C32.7851 25.9872 31.0224 25.3288 25.5552 24.4097C19.687 23.4235 17.7609 22.8511 16.5328 21.7288C13.5066 18.963 14.1125 13.4395 17.7031 11.0585C21.1428 8.77722 27.4591 9.38284 30.4994 12.2852C31.1943 12.9488 31.2841 13.2902 31.4024 15.7251C31.4309 16.3131 31.4776 17.1451 31.5064 17.5738L31.5581 18.3533H32.7878H34.0179L34.0684 17.6183C34.0964 17.2139 34.142 16.4421 34.1693 15.9031C34.2915 13.5158 34.527 11.6411 34.9145 9.97685C35.1393 9.01134 35.0063 8.65338 34.3067 8.34131C30.5989 6.68864 26.5061 6.04294 21.6053 6.3376ZM50.2784 13.2971C50.0658 13.5346 49.0777 14.8359 43.9693 21.6053C41.1595 25.3285 40.6949 25.9262 40.6092 25.9262C40.536 25.9262 39.5409 25.1834 34.8803 21.6495C34.1942 21.1296 32.1493 19.5875 30.3363 18.2231C28.5233 16.8587 26.9539 15.6654 26.8488 15.5712L26.6578 15.3998L25.8175 16.498C24.3047 18.4746 24.0579 18.8201 24.1043 18.895C24.1295 18.9357 25.121 19.6999 26.3076 20.5936C27.4945 21.487 28.9465 22.584 29.5344 23.0316C30.1226 23.4791 31.5257 24.5413 32.6529 25.3921C34.5746 26.843 35.9746 27.9025 39.8684 30.8521C40.7502 31.5202 41.4973 32.0379 41.5294 32.0034C41.5612 31.9685 43.2111 29.7912 45.1957 27.1648C47.1806 24.5383 49.1595 21.9212 49.5935 21.3488L50.3823 20.3078L50.405 35.9912L50.4274 51.6743H53.3673H56.3072V32.3856V13.0967H53.3825C50.4622 13.0967 50.4578 13.097 50.2784 13.2971ZM70.0721 37.9015C67.7469 38.4366 66.5699 39.9563 66.6589 42.308C66.7407 44.4682 67.7366 45.3375 70.6511 45.7939C72.8052 46.1311 73.3334 46.5244 73.3406 47.7965C73.3517 49.6993 71.1791 50.6206 69.1021 49.5943C68.1369 49.1172 67.9785 48.8612 67.9785 47.778V46.9523H67.3546H66.7311L66.7283 47.7763C66.7255 48.558 66.6498 49.3582 66.5094 50.0869C66.4356 50.47 66.7435 50.6748 68.0194 51.0913C72.1084 52.4261 76.0755 50.2939 76.0846 46.7564C76.0898 44.7676 75.1055 43.6307 73.0468 43.2478C72.6358 43.1713 71.8784 43.0303 71.364 42.9341C69.7879 42.64 69.2229 42.1732 69.2276 41.1695C69.2354 39.5892 71.1954 38.681 72.8785 39.4778C73.747 39.8889 73.774 39.9298 73.8329 40.9174L73.8849 41.7848H74.4391H74.9936L75.0486 41.4509C75.079 41.2671 75.1044 40.9097 75.105 40.6568C75.1055 40.4038 75.1633 39.8966 75.2335 39.5298C75.43 38.5035 75.3814 38.4449 73.9921 38.033C73.1781 37.7917 70.8839 37.7149 70.0721 37.9015ZM94.6175 37.9053C91.187 38.5546 89.2717 40.9779 89.2717 44.6689C89.2717 48.6827 91.3451 51.0214 95.2499 51.4117C100.695 51.9562 104.282 47.8263 103.109 42.3639C102.388 39.0088 98.7844 37.1165 94.6175 37.9053ZM59.1054 38.0764C59.0797 38.1442 59.0708 38.3946 59.086 38.6331L59.1137 39.0668L59.8116 39.163C60.2287 39.2205 60.5416 39.3101 60.5897 39.3861C60.7202 39.592 60.7439 48.6592 60.6162 49.5545C60.5629 49.9298 60.5021 49.9619 59.6734 50.0534L59.1137 50.115L59.0855 50.5089C59.07 50.7256 59.081 50.9976 59.1101 51.1135L59.1631 51.3241L62.212 51.2986L65.2611 51.2735V50.6941V50.115L64.7013 50.0534C63.8271 49.9569 63.8102 49.9459 63.7472 49.4204C63.6275 48.4242 63.7375 39.3783 63.8705 39.2962C63.9385 39.2542 64.2892 39.192 64.6499 39.1583L65.3056 39.097V38.5253V37.954H62.2291C59.6986 37.954 59.1441 37.9755 59.1054 38.0764ZM76.91 38.0129C76.7823 38.0645 76.767 38.7606 76.8569 40.4345L76.9152 41.5175H77.4766H78.038L78.0819 41.2281C78.1063 41.0689 78.1502 40.6592 78.1795 40.3179C78.2459 39.5508 78.0416 39.644 79.7885 39.5821L81.282 39.5293L81.2223 44.4657C81.1493 50.5288 81.251 50.0686 79.9837 50.07L79.5605 50.0705V50.672V51.2735H82.679H85.7972V50.6825V50.0916L85.1468 50.0307C84.7894 49.997 84.4383 49.9337 84.3673 49.8898C84.2567 49.8212 84.2379 49.0708 84.2379 44.7059V39.6022L85.5896 39.6075C87.1616 39.6138 87.2226 39.6387 87.2226 40.2687C87.2226 40.5009 87.2481 40.877 87.2793 41.1043L87.336 41.5175H87.9029C88.461 41.5175 88.4701 41.5139 88.4742 41.2726C88.4767 41.138 88.5323 40.406 88.5975 39.6467C88.6716 38.7868 88.6854 38.2069 88.6346 38.1099C88.5552 37.9584 77.2762 37.8653 76.91 38.0129ZM97.3383 39.3385C99.3094 39.848 100.215 41.7165 100.117 45.0722C100.016 48.5356 98.945 49.937 96.3993 49.937C93.8458 49.937 92.5591 48.2667 92.4192 44.7695C92.2536 40.6366 94.1711 38.5198 97.3383 39.3385Z" fill="#8489A8"/>
</svg>
