<svg width="84" height="58" viewBox="0 0 84 58" fill="none" xmlns="http://www.w3.org/2000/svg">
<path id="Ducat_logo 1" fill-rule="evenodd" clip-rule="evenodd" d="M28.1367 0.170011C27.4215 0.380775 26.438 1.4114 26.2358 2.16233C26.1205 2.58982 26.0817 7.9991 26.1102 19.5404L26.152 36.2975L26.5228 36.8937C26.7266 37.2214 27.178 37.6781 27.5256 37.9084L28.1582 38.3273L32.1856 38.376L36.2127 38.4244L36.2567 47.1972L36.3008 55.9701L36.6713 56.5663C36.8751 56.894 37.3265 57.3507 37.6747 57.581L38.3077 57.9999H52.6831C69.6439 57.9999 69.1482 58.0499 73.3012 55.9184C86.289 49.2522 86.8447 29.7005 74.2552 22.3437L73.2236 21.7405L73.1623 18.8704C72.9635 9.58083 67.4505 2.62031 58.5497 0.420874C57.065 0.0540248 29.3078 -0.174966 28.1367 0.170011ZM55.0979 4.49697C61.508 6.18938 66.0063 11.6232 66.4599 18.2222L66.559 19.663L52.4332 19.7055L38.3074 19.7475L37.6747 20.1664C37.3265 20.3967 36.8751 20.8534 36.6713 21.1811L36.3008 21.7773L36.2547 28.0011L36.209 34.2253L35.2334 34.163C34.0941 34.0908 33.4303 33.7014 33.0386 32.8759C32.8066 32.3868 32.7864 31.0857 32.8242 18.938L32.8659 5.53952L33.2122 5.05404C33.9529 4.01546 33.5562 4.04993 44.1852 4.10295C53.5212 4.14968 53.8237 4.16061 55.0979 4.49697ZM18.1403 20.411C17.6797 20.807 0 49.8706 0 50.2318C0 51.1487 2.9159 52.6576 3.47131 52.0279C4.01413 51.4119 21.5463 22.4871 21.5463 22.2071C21.5463 21.3028 18.7925 19.8506 18.1403 20.411ZM64.1041 23.9695C65.8081 24.2667 65.7193 24.1239 65.0612 25.5094C63.1205 29.5958 59.4789 32.6055 55.0979 33.7438C53.9032 34.054 53.3071 34.0898 48.3551 34.1494L42.9226 34.2147L42.9687 29.7134C43.0197 24.679 43.0439 24.5679 44.2194 23.9887C44.97 23.6185 61.9984 23.6023 64.1041 23.9695ZM74.0156 30.2997C79.8852 38.943 75.4118 50.7385 65.2464 53.4217C63.4274 53.9019 45.2188 54.0713 44.2611 53.6166C42.9803 53.0088 43.0197 53.2607 42.9707 45.4034L42.9269 38.4277L50.0747 38.3627C56.6306 38.3031 57.3321 38.2713 58.5497 37.9757C63.9361 36.668 68.4122 33.2915 70.8999 28.66L71.564 27.4235L72.4621 28.3793C72.9562 28.9048 73.6551 29.7691 74.0156 30.2997ZM21.891 40.5522C21.4638 40.9237 14.6763 52.6774 14.6763 53.0459C14.6763 53.7041 17.103 55.2517 17.7681 55.0181C18.2344 54.854 25.2715 43.0168 25.2861 42.3719C25.3066 41.4556 22.5508 39.9786 21.891 40.5522Z" fill="#8489A8"/>
</svg>
