<svg width="179" height="38" viewBox="0 0 179 38" fill="none" xmlns="http://www.w3.org/2000/svg">
<path id="BudGild 1" fill-rule="evenodd" clip-rule="evenodd" d="M19 9.50024V19H9.49976H0V28.4998V38H37.9995H75.9995V19V0H47.4998H19V9.50024ZM138.465 12.2814C138.346 12.302 137.975 12.3625 137.641 12.4163C135.801 12.7118 134.104 13.8274 133.28 15.282C132.161 17.2563 132.202 21.0222 133.362 22.8187C135.589 26.2671 141.895 26.8869 144.776 23.9406L145.145 23.564V24.4486V25.3332H146.057H146.969L146.947 22.1016L146.924 18.8701L142.564 18.8476L138.204 18.8251V19.6931V20.5616H141.638H145.072L145.013 20.8434C144.226 24.6069 137.444 25.4089 135.164 22.0078C134.238 20.6265 134.123 18.1071 134.911 16.4401C136.636 12.786 143.198 13.0063 144.617 16.7659L144.707 17.0047H145.663C146.775 17.0047 146.731 17.0609 146.397 16.0664C145.568 13.5988 143.489 12.3532 140.07 12.2756C139.306 12.2585 138.584 12.2609 138.465 12.2814ZM88.7059 12.6883C88.683 12.7479 88.6747 15.6273 88.6869 19.0869L88.7093 25.3766L93.481 25.3752C99.2592 25.3732 99.8717 25.2887 101.04 24.3314C102.771 22.9129 102.245 19.1778 100.214 18.4695L99.9333 18.3719L100.402 17.9547C102.239 16.3165 101.477 13.4356 99.0502 12.8495C97.9297 12.5784 88.8021 12.4363 88.7059 12.6883ZM103.884 12.6996C103.859 12.7655 103.852 14.7466 103.868 17.1024L103.898 21.3861L104.136 22.1558C104.822 24.3724 106.289 25.4133 109.117 25.6897C112.234 25.994 114.721 25.022 115.644 23.1386C116.273 21.8554 116.298 21.6088 116.298 16.8743V12.6234L115.416 12.5989L114.534 12.574L114.496 16.8064C114.452 21.7944 114.397 22.1549 113.536 23.0639C112.243 24.4295 108.21 24.4647 106.725 23.1225C105.8 22.2872 105.672 21.473 105.671 16.4191L105.671 12.5799H104.8C104.141 12.5799 103.919 12.6087 103.884 12.6996ZM118.295 12.6761C118.27 12.7425 118.259 15.6273 118.271 19.0869L118.294 25.3766L122.198 25.3698C125.819 25.3635 126.163 25.3498 126.95 25.1813C129.925 24.5429 131.351 22.4367 131.351 18.6815C131.351 15.2004 129.842 13.3785 126.471 12.7875C125.408 12.6014 118.36 12.5052 118.295 12.6761ZM148.915 12.6883C148.893 12.7479 148.884 15.6273 148.896 19.0869L148.919 25.3766L149.808 25.4016L150.698 25.426V19.0029V12.5799H149.827C149.211 12.5799 148.945 12.6116 148.915 12.6883ZM152.693 18.9976V25.4216L158.094 25.3991L163.495 25.3766L163.519 24.5741L163.544 23.7716H159.03H154.516L154.494 18.1975L154.472 12.6234L153.583 12.5984L152.693 12.574V18.9976ZM165.491 12.6761C165.465 12.7425 165.455 15.6273 165.467 19.0869L165.49 25.3766L169.307 25.3737C172.095 25.3718 173.3 25.3395 173.775 25.255C177 24.6816 178.547 22.5544 178.547 18.6928C178.547 15.2219 177.021 13.3756 173.667 12.7875C172.604 12.6014 165.556 12.5052 165.491 12.6761ZM97.5047 14.3153C98.929 14.4438 99.3452 14.7549 99.4077 15.7391C99.5196 17.498 99.1782 17.626 94.24 17.6763L90.4878 17.7144V15.9712V14.2284L93.5464 14.2313C95.2281 14.2328 97.0095 14.2709 97.5047 14.3153ZM124.974 14.3148C128.614 14.603 129.927 16.4279 129.323 20.3642C128.907 23.0741 127.801 23.6583 122.914 23.7457L120.072 23.7965V19.0122V14.2284L122.003 14.2303C123.064 14.2313 124.401 14.2694 124.974 14.3148ZM172.157 14.3163C175.783 14.6167 177.109 16.4332 176.517 20.2929C176.088 23.0888 175.04 23.6534 170.11 23.7443L167.268 23.7965V19.0122V14.2284L169.199 14.2299C170.261 14.2303 171.592 14.2694 172.157 14.3163ZM99.0126 19.593C100.039 20.0057 100.463 21.5443 99.8708 22.7053C99.3789 23.6686 99.1503 23.7125 94.4139 23.754L90.4878 23.7882V21.5629V19.3375L94.5003 19.3649C98.4626 19.3912 98.5192 19.3942 99.0126 19.593Z" fill="#8489A8"/>
</svg>
