<svg width="274" height="40" viewBox="0 0 274 40" fill="none" xmlns="http://www.w3.org/2000/svg">
<path fill-rule="evenodd" clip-rule="evenodd" d="M0.0162585 6.61337V13.2267L6.55686 19.7898L13.0967 26.3529L13.099 19.9005L13.1021 13.4489H19.7317H26.3614L19.8262 19.9919L13.291 26.534H19.9214H26.551V33.2589V39.983H33.0932H39.6361V33.1714V26.3598L33.0963 19.8138L26.5565 13.267L33.0963 13.3739L39.6361 13.4807V6.74035V0H33.0065H26.3761L19.7395 6.62963L13.1021 13.26V6.62963V0H6.55918H0.0162585V6.61337ZM82.0672 9.4625C69.7315 12.554 71.9652 29.898 84.708 29.97C98.5588 30.0482 99.597 10.3621 85.7989 9.30069C84.499 9.20081 82.8197 9.27359 82.0672 9.4625ZM126.925 9.45708C114.604 12.0437 116.945 30.011 129.598 29.963C134.497 29.9444 139.958 25.9402 139.958 22.3664C139.958 21.3661 135.603 22.2828 134.928 23.4255C131.89 28.5756 123.213 25.9162 123.246 19.844C123.278 13.6921 131.914 10.5627 134.809 15.6531C135.369 16.6372 135.571 16.7162 137.543 16.7177L139.673 16.72L139.423 15.7244C138.312 11.2974 132.364 8.31511 126.925 9.45708ZM56.3561 19.628V29.442H58.5371H60.7181V25.4439V21.4459H62.1496C63.5618 21.4459 63.6199 21.5008 66.3521 25.4439L69.123 29.442H71.4635C74.3296 29.442 74.4279 29.9924 70.5181 24.1502C68.5532 21.2151 67.3392 19.0636 67.4979 18.7988C67.6442 18.5549 69.0409 16.5071 70.6018 14.2472C73.9959 9.3332 73.9386 9.81399 71.1329 9.81399H68.8265L66.2042 13.6309C63.6237 17.3882 63.5602 17.447 62.1504 17.447H60.7181V13.6309V9.81399H58.5371H56.3561V19.628ZM98.5201 19.628V29.442H100.701H102.882V25.4439V21.4459H107.244H111.606V25.4439V29.442H113.787H115.968V19.628V9.81399H113.787H111.606V13.6309V17.447H107.244H102.882V13.6309V9.81399H100.701H98.5201V19.628ZM141.048 11.813V13.8128H144.319H147.591V21.627V29.442H149.59H151.589V21.627V13.8128H154.86H158.132V11.813V9.81399H149.59H141.048V11.813ZM160.313 19.628V29.442H162.494H164.674V26.5673V23.6926L168.4 23.5688C175.017 23.3489 178.214 20.2853 177.241 15.0996C176.513 11.2192 173.57 9.83257 166.037 9.82251L160.313 9.81399V19.628ZM177.76 9.90225C177.76 9.96961 178.873 12.7994 180.234 16.1897L182.708 22.354L184.595 22.4639C186.834 22.5948 186.793 22.3563 185.243 26.1918L184.004 29.2608L186.024 29.3708C187.134 29.4319 188.162 29.3498 188.307 29.1896C188.555 28.9155 195.934 10.325 195.934 9.97581C195.934 9.88677 194.976 9.81399 193.805 9.81399H191.677L190.018 14.0854L188.359 18.3559L186.967 18.462L185.575 18.5681L183.932 14.282L182.289 9.99593L180.024 9.88754C178.779 9.82793 177.76 9.8349 177.76 9.90225ZM197.388 19.628V29.442H199.569H201.75V25.4439V21.4459L203.294 21.4598L204.839 21.4737L207.522 25.4578L210.206 29.442H212.724H215.243L211.767 24.329L208.291 19.2161L211.381 14.7326C215.066 9.38507 214.995 9.81399 212.199 9.81632L209.928 9.81786L207.382 13.5419C204.882 17.1977 204.808 17.2674 203.293 17.3773L201.75 17.4888V13.6518V9.81399H199.569H197.388V19.628ZM215.562 11.813V13.8128H218.652H221.741V21.627V29.442H223.922H226.103V21.627V13.8128H229.193H232.282V11.813V9.81399H223.922H215.562V11.813ZM234.463 19.6435V29.473L237.26 29.3669L240.057 29.2608L243.915 22.6351C246.037 18.9916 247.846 15.9381 247.934 15.8498C248.022 15.7615 248.037 18.7841 247.969 22.5661L247.844 29.442H250.059H252.274V19.628V9.81399H249.582H246.892L243.012 16.5342C240.878 20.2303 239.022 23.3233 238.887 23.4062C238.754 23.4898 238.691 20.4657 238.749 16.686L238.855 9.81399H236.659H234.463V19.6435ZM255.909 19.628V29.442L262.178 29.4342C267.506 29.4273 268.672 29.3243 269.938 28.7498C273.844 26.9761 274.425 21.7323 270.935 19.7379L269.673 19.0164L270.598 18.4101C273.541 16.4816 273.075 12.252 269.73 10.5456C268.459 9.89761 267.592 9.81399 262.102 9.81399H255.909V19.628ZM86.8588 13.4404C89.55 14.2123 91.4251 17.1551 91.172 20.211C90.5154 28.1312 79.1004 28.1126 78.5956 20.1908C78.275 15.1484 82.0532 12.0623 86.8588 13.4404ZM267.309 14.2023C269.612 16.0139 267.949 17.447 263.542 17.447H260.271V15.448V13.4489H263.311C265.836 13.4489 266.514 13.5767 267.309 14.2023ZM172.142 14.7047C174.723 17.2852 172.562 19.628 167.6 19.628H164.674V16.72V13.8128H167.962C170.968 13.8128 171.327 13.8887 172.142 14.7047ZM267.335 21.5945C271.117 23.1747 268.761 25.8078 263.566 25.8078H260.271V23.4449V21.082H263.19C264.879 21.082 266.626 21.298 267.335 21.5945ZM0.0991002 33.1683L0.1982 39.8018L6.64976 39.9009L13.1021 40V33.2674V26.534H6.55144H0L0.0991002 33.1683Z" fill="#8489A8"/>
</svg>
