<svg width="86" height="68" viewBox="0 0 86 68" fill="none" xmlns="http://www.w3.org/2000/svg">
<path d="M9.10156 51.666H76.1357L42.6177 18.1499L9.10156 51.666Z" fill="#8489A8"/>
<path d="M7.57842 50.2228L12.7869 45.0658L11.0348 43.3136L7.78612 46.5605L1.90836 40.6845L0 42.5911L7.57842 50.2228Z" fill="#8489A8"/>
<path d="M9.79744 35.9393L11.0863 37.2299L13.7668 34.5476L15.3663 36.0938L12.6325 38.7761L14.3349 40.4253L17.635 37.1252L19.1813 38.6732L13.9213 43.9314L6.29138 36.3015L11.5496 31.0415L13.0976 32.5877L9.79744 35.9393Z" fill="#8489A8"/>
<path d="M26.7615 31.093L21.6044 29.5983C22.2222 28.4639 21.9133 26.9159 20.8819 25.8845C19.7476 24.7501 17.8392 24.8016 16.5504 26.0904L12.684 29.9586L20.3156 37.5903L22.224 35.6305L16.0373 29.442L17.3262 28.2047C17.8427 27.6366 18.7712 27.6366 19.286 28.2047C19.8026 28.7195 19.8026 29.5983 19.2345 30.1646L18.1002 31.2989L24.7004 33.1558L26.7615 31.093Z" fill="#8489A8"/>
<path d="M31.0415 19.0783C29.9586 17.9439 28.5651 17.3244 27.2266 17.2729C25.8348 17.2729 24.4945 17.7877 23.3069 18.9736C20.8837 21.3985 21.1429 24.5424 23.3584 26.7597C24.4927 27.8958 25.833 28.5136 27.2248 28.5136C28.5651 28.5651 29.9568 28.0503 31.1427 26.8644C33.5162 24.4412 33.3102 21.2955 31.0415 19.0783ZM29.6497 25.3182C28.9272 26.0389 28.1035 26.1969 27.2266 25.8845C26.6585 25.6786 26.0407 25.2667 25.4726 24.6472C23.9779 23.2039 23.6158 21.7074 24.8016 20.5233C25.5241 19.8008 26.3478 19.6464 27.2248 19.9553C27.7911 20.163 28.3592 20.5748 28.9787 21.1926C30.422 22.6358 30.8356 24.1306 29.6497 25.3182Z" fill="#8489A8"/>
<path d="M33.3635 15.0059L31.9699 10.6726L34.1872 8.40389L36.0956 15.7782L39.0868 18.7694L37.127 20.7293L34.1872 17.7362L27.1218 15.5208L29.2361 13.4065L33.3102 14.9527L33.3635 15.0059Z" fill="#8489A8"/>
<path d="M68.6833 41.2508L76.2653 33.6191L74.2522 31.6078L66.6223 39.2413L68.6833 41.2508Z" fill="#8489A8"/>
<path d="M39.4472 12.0644L45.3782 9.22937L41.0449 13.6124L42.7988 15.4178L50.4305 7.78612L48.0073 5.36294L42.2307 8.14649L45.119 2.47466L42.6444 0L35.0127 7.63167L36.7648 9.38382L41.1496 5.0008L38.3128 10.9318L39.4472 12.0644Z" fill="#8489A8"/>
<path d="M52.6992 13.1491L51.4104 14.4361L54.2969 17.3759L52.7507 18.9239L49.8109 16.0356L48.1617 17.6847L51.7193 21.2441L50.1731 22.7903L44.7054 17.2729L52.3388 9.69271L57.803 15.1604L56.2567 16.7048L52.6992 13.1491Z" fill="#8489A8"/>
<path d="M60.0735 32.6907L65.2287 37.8477L66.9826 36.0938L63.734 32.8984L69.6117 26.9692L67.7051 25.059L60.0735 32.6907Z" fill="#8489A8"/>
<path d="M80.595 37.9507L78.1736 46.0457L83.4318 40.7857L85.2355 42.5911L77.6056 50.2228L75.2321 47.7978L77.2967 39.4969L72.0882 44.7054L70.3343 42.9515L77.9659 35.3216L80.595 37.9507Z" fill="#8489A8"/>
<path d="M58.6284 31.2474L60.0735 26.0389C61.2078 26.6585 62.7541 26.4011 63.8369 25.3182C64.9198 24.1838 64.9198 22.2755 63.6292 20.9867L59.5054 16.8628L51.8737 24.4927L53.8336 26.4508L59.9687 20.2641L61.4652 21.7589C62.0333 22.3252 62.0333 23.2021 61.5167 23.7187C61.0019 24.285 60.0752 24.2353 59.5569 23.7187L58.1651 22.327L56.5159 29.1331L58.6284 31.2474Z" fill="#8489A8"/>
<path d="M16.1705 58.6036L12.2384 62.4895C12.1301 62.6032 11.9916 62.7381 11.823 62.8978C11.6543 63.0576 11.475 63.2138 11.2851 63.3683C11.0951 63.5227 10.9034 63.6576 10.7117 63.7713C10.5182 63.8849 10.3442 63.9452 10.1862 63.9559C10.0602 63.9648 9.92526 63.9452 9.77969 63.8955C9.63412 63.8476 9.50276 63.7766 9.38559 63.6843C9.26843 63.592 9.17612 63.4854 9.11043 63.363C9.04475 63.2405 9.01635 63.1109 9.02877 62.9724C9.03587 62.9192 9.03942 62.8535 9.03942 62.7736C9.03942 62.6937 9.05895 62.5907 9.09801 62.4611C9.13706 62.3316 9.20274 62.1665 9.29506 61.9659C9.38737 61.7653 9.52583 61.5079 9.71046 61.1954C9.89508 60.883 10.1365 60.5031 10.433 60.0557C10.7294 59.6084 11.1005 59.0811 11.5443 58.4704C12.162 57.6166 12.6342 56.9562 12.9609 56.4858C13.2875 56.0153 13.4455 55.6869 13.4331 55.497C13.4402 55.4437 13.4189 55.4064 13.3692 55.3833C13.3195 55.3603 13.2698 55.3461 13.2165 55.339C12.6378 55.6834 12.1159 55.9976 11.6508 56.2816C11.1839 56.5656 10.7561 56.8319 10.3673 57.0787C9.97852 57.3254 9.61104 57.5598 9.26665 57.7763C8.92226 57.9947 8.57787 58.2095 8.23347 58.4225C8.18377 58.4687 8.10566 58.5148 7.99737 58.5645C7.88908 58.6142 7.80387 58.6409 7.74174 58.6444C7.59439 58.6551 7.50208 58.6125 7.4648 58.5202C7.42575 58.4172 7.4435 58.2059 7.51628 57.8846L7.69558 57.0183C7.75949 56.7077 7.86245 56.4751 8.00447 56.3171C8.14649 56.1609 8.34354 55.9887 8.59562 55.8023C8.90806 55.5804 9.31991 55.3159 9.83117 55.007C10.3424 54.6981 10.8768 54.3999 11.4324 54.1087C11.9881 53.8194 12.5348 53.5691 13.0745 53.3578C13.6142 53.1466 14.0722 53.0294 14.4503 53.0045C14.7237 52.9868 14.9793 53.0347 15.219 53.1501C15.4586 53.2655 15.59 53.4821 15.6095 53.7963C15.6219 53.9756 15.5705 54.1939 15.4551 54.4549C15.3397 54.7159 15.203 54.9804 15.0414 55.2502C14.8799 55.52 14.7148 55.7774 14.5479 56.026C14.3793 56.2745 14.2426 56.4769 14.1379 56.6313C13.5716 57.471 13.1082 58.1456 12.7461 58.6551C12.3839 59.1646 12.0981 59.5746 11.8869 59.8835C11.6756 60.1924 11.5336 60.425 11.459 60.5759C11.3845 60.7285 11.3454 60.8634 11.3437 60.9788C11.3401 61.0853 11.4164 61.1564 11.5709 61.1936C11.7253 61.2309 11.9277 61.1297 12.1762 60.8918C12.5224 60.5634 12.7887 60.3149 12.9733 60.1498C13.1579 59.9847 13.3142 59.8445 13.4437 59.7309C13.5733 59.6172 13.7047 59.4947 13.8378 59.3652C13.971 59.2356 14.1734 59.0332 14.4467 58.7634C14.7184 58.4917 15.0858 58.1172 15.5492 57.6379C16.0125 57.1586 16.6285 56.5195 17.3989 55.7189C17.438 55.6745 17.4913 55.6159 17.5605 55.5413C17.6297 55.4685 17.7043 55.394 17.7824 55.3212C17.8623 55.2466 17.9422 55.181 18.022 55.1224C18.1019 55.0638 18.1747 55.0336 18.2368 55.0283C18.3309 55.0212 18.425 55.0496 18.5191 55.1117C18.6132 55.1739 18.6966 55.2502 18.7712 55.3407C18.8457 55.4313 18.9079 55.5289 18.9576 55.6372C19.0073 55.7455 19.0339 55.8413 19.0392 55.9248C19.0463 56.0402 19.0091 56.1804 18.9256 56.3437C18.8422 56.5071 18.6949 56.7538 18.4854 57.0858C18.2759 57.416 17.999 57.8491 17.6546 58.3835C17.3102 58.9178 16.8823 59.6084 16.3693 60.4551C16.0746 60.9398 15.8048 61.3836 15.5563 61.7901C15.3095 62.1966 15.1054 62.5499 14.9474 62.8517C14.7876 63.1535 14.6846 63.386 14.6385 63.5529C14.5923 63.7198 14.6207 63.805 14.7272 63.8085C14.7805 63.805 14.8337 63.789 14.8906 63.7588C14.9456 63.7287 15.0379 63.6683 15.1622 63.5742C15.2882 63.4819 15.4746 63.3523 15.7214 63.189C15.9681 63.0257 16.3161 62.8073 16.7616 62.5339C17.2693 62.2357 17.6439 62.0795 17.8853 62.0635C18.1268 62.0475 18.251 62.1026 18.2599 62.2286C18.2635 62.2925 18.2297 62.3759 18.1587 62.4807C18.0859 62.5854 18.0007 62.6884 17.9031 62.7896C17.8037 62.8907 17.7025 62.9884 17.5978 63.0789C17.493 63.1712 17.4149 63.2334 17.3652 63.2689C17.1256 63.4748 16.8415 63.7287 16.5149 64.0304C16.1865 64.3322 15.8563 64.6447 15.5261 64.966C15.1941 65.2891 14.8817 65.6068 14.5852 65.9228C14.2905 66.237 14.0562 66.5175 13.8822 66.7607C13.8041 66.8601 13.7154 66.9755 13.6124 67.1033C13.5094 67.2312 13.3994 67.3554 13.2804 67.4744C13.1615 67.5933 12.549 67.7069 11.4448 67.8188C10.3389 67.9288 9.71933 67.9892 9.58264 67.9981C9.36252 68.0123 9.18677 67.9484 9.0554 67.8046C8.92404 67.6608 8.85125 67.4832 8.83705 67.2738C8.8193 67.011 9.38914 66.7483 10.5484 66.4874C11.7058 66.2246 12.4123 65.7062 12.6662 64.9305C12.9201 64.1547 13.2165 63.4677 13.5574 62.8694C13.8964 62.2712 14.2355 61.7013 14.5746 61.1564C14.9119 60.6114 15.2243 60.1161 15.5119 59.6705C15.7995 59.2249 16.0285 58.8787 16.2024 58.6355L16.1705 58.6036Z" fill="#8489A8"/>
<path d="M60.883 58.2042C60.7214 58.332 60.551 58.4758 60.3646 58.6338C60.18 58.7935 59.9954 58.9444 59.809 59.0829C59.6226 59.2214 59.4379 59.3421 59.2551 59.4433C59.0722 59.5445 58.8965 59.6013 58.7279 59.6119C58.6018 59.6208 58.4882 59.5995 58.3835 59.548C58.2805 59.4965 58.2237 59.4024 58.2148 59.2675C58.2024 59.0776 58.2592 58.8699 58.3852 58.6391C58.5131 58.4083 58.6551 58.1811 58.8148 57.9539C58.9728 57.7266 59.1166 57.5136 59.2462 57.3166C59.3758 57.1177 59.4362 56.9544 59.4273 56.8301C59.4149 56.6526 59.3669 56.5177 59.2817 56.4289C59.1965 56.3384 59.0776 56.2674 58.9285 56.2159C58.9995 56.1893 59.1078 56.136 59.2498 56.0526C59.3918 55.9692 59.4592 55.8804 59.4539 55.7863C59.4504 55.7437 59.4273 55.6798 59.3847 55.5928C59.3421 55.5058 59.2764 55.4224 59.1876 55.3443C59.0971 55.2662 58.9853 55.2023 58.8503 55.1543C58.7154 55.1046 58.5592 55.0869 58.3799 55.0975C58.0763 55.1277 57.7231 55.2129 57.3201 55.3514C56.9189 55.4881 56.5017 55.6674 56.0739 55.8857C55.6443 56.1041 55.2307 56.3562 54.8259 56.642C54.4229 56.9278 54.0643 57.2278 53.7484 57.5456C53.4324 57.8615 53.1838 58.19 53.0081 58.529C53.0063 58.5326 53.0028 58.5379 53.001 58.5415C52.9992 58.5415 52.9992 58.5432 52.9992 58.5432L52.4276 59.09C52.3584 59.1575 52.2696 59.2409 52.1595 59.3385C52.0512 59.4362 51.9359 59.5303 51.8151 59.6226C51.6944 59.7149 51.5737 59.793 51.4512 59.8604C51.3305 59.9261 51.2204 59.9616 51.1264 59.9687C51.0429 59.9741 50.9719 59.951 50.9151 59.8959C50.8583 59.8409 50.8281 59.7788 50.8228 59.7042C50.805 59.4308 50.8849 59.1468 51.066 58.8486C51.1335 58.7492 51.2009 58.6497 51.2684 58.5503L52.1933 57.9503C52.0548 57.9272 51.9163 57.9113 51.7779 57.8988C51.9625 57.6645 52.1382 57.4461 52.3033 57.2473C52.488 57.0236 52.5767 56.8337 52.5661 56.6757C52.5323 56.5088 52.4915 56.3562 52.44 56.2177C52.3885 56.0792 52.3317 55.9532 52.2714 55.8413C52.1737 55.6478 52.0832 55.5538 51.9998 55.5591C51.927 55.5644 51.7921 55.6212 51.6003 55.7277C51.5293 55.7757 51.453 55.8271 51.3731 55.8857L50.379 57.8189C50.2192 57.8083 50.0612 57.803 49.9032 57.803C49.4932 57.8101 49.0884 57.826 48.689 57.8527C48.5629 57.8722 48.4387 57.8846 48.3126 57.8935C48.4493 57.7373 48.5771 57.5757 48.6908 57.4089C48.8736 57.1444 48.9588 56.9313 48.9499 56.7751L48.9446 56.6899C48.9428 56.6526 48.9144 56.6189 48.8576 56.5852C48.8026 56.5532 48.7138 56.5266 48.5913 56.5088C48.4689 56.4911 48.2913 56.484 48.0606 56.4893C47.9239 56.4982 47.8138 56.5159 47.7321 56.5426C47.6505 56.5692 47.5582 56.6278 47.4588 56.7183C47.2404 56.9242 47.0274 57.1745 46.8214 57.4728C46.6137 57.771 46.4327 58.0852 46.2747 58.4119C46.1291 58.7137 46.0155 59.0154 45.9338 59.3172L45.9019 59.2107C45.751 59.3368 45.5912 59.4806 45.4244 59.6385C45.2557 59.7983 45.0782 59.9528 44.8936 60.1019C44.7089 60.251 44.5172 60.3788 44.3184 60.48C44.1196 60.583 43.9154 60.6415 43.7042 60.6557C43.3367 60.6806 43.0846 60.6131 42.9479 60.4534C42.8094 60.2936 42.7633 60.0486 42.8041 59.7184C42.9639 59.5924 43.1627 59.4131 43.4006 59.1805C43.6385 58.9498 43.8675 58.6995 44.0858 58.4314C44.3042 58.1633 44.4906 57.8953 44.6415 57.6272C44.7924 57.3592 44.8616 57.1248 44.8474 56.926C44.835 56.7467 44.7462 56.6349 44.5793 56.5887C44.4125 56.5408 44.2616 56.523 44.1249 56.5319C43.8835 56.5479 43.6048 56.6757 43.2888 56.9118C42.9728 57.1479 42.6745 57.4568 42.3923 57.8331C42.1118 58.2113 41.8792 58.632 41.6946 59.0971C41.6378 59.2391 41.5916 59.3811 41.5561 59.5267H41.5544C41.4017 59.6474 41.2419 59.7823 41.0697 59.9315C40.8851 60.0912 40.7005 60.2421 40.5141 60.3806C40.3277 60.5191 40.1431 60.6398 39.9602 60.741C39.7774 60.8421 39.6016 60.8989 39.433 60.9096C39.3069 60.9185 39.1933 60.8972 39.0886 60.8457C38.9856 60.7942 38.9288 60.7001 38.9199 60.5652C38.9075 60.3753 38.9643 60.1676 39.0904 59.9368C39.2182 59.706 39.3602 59.4788 39.52 59.2515C39.678 59.0243 39.8218 58.8113 39.9513 58.6142C40.0809 58.4154 40.1413 58.2521 40.1324 58.1278C40.12 57.9503 40.0721 57.8154 39.9868 57.7266C39.9016 57.6361 39.7827 57.5651 39.6336 57.5136C39.7046 57.487 39.8129 57.4337 39.9549 57.3503C40.0969 57.2668 40.1644 57.1781 40.159 57.084C40.1555 57.0414 40.1324 56.9775 40.0898 56.8905C40.0472 56.8035 39.9815 56.7201 39.8928 56.642C39.8022 56.5639 39.6904 56.5 39.5555 56.452C39.4206 56.4023 39.2643 56.3846 39.085 56.3952C38.7815 56.4254 38.4282 56.5106 38.0252 56.6491C37.624 56.7858 37.2069 56.9651 36.779 57.1834C36.3494 57.4018 35.9358 57.6538 35.5328 57.9397C35.1298 58.2255 34.7695 58.5255 34.4535 58.8432C34.1375 59.1592 33.889 59.4877 33.7132 59.8267C33.6795 59.8906 33.6493 59.9545 33.6245 60.0167C33.36 60.2758 33.1327 60.4942 32.9392 60.6699C32.6747 60.9096 32.4351 61.0942 32.2167 61.2238C31.9984 61.3552 31.7729 61.4404 31.5386 61.483C31.3042 61.5256 31.0167 61.5469 30.6794 61.5487C31.5084 60.7126 32.1102 59.9971 32.4812 59.4024C32.8522 58.8077 33.0244 58.2965 32.996 57.8651C32.9818 57.6556 32.9126 57.4834 32.7866 57.3485C32.6623 57.2136 32.4954 57.155 32.2842 57.1692C32.0747 57.1834 31.8297 57.258 31.5474 57.3929C31.267 57.5278 30.9847 57.684 30.7007 57.8598C30.4166 58.0373 30.1468 58.2219 29.8912 58.4119C29.6355 58.6036 29.4278 58.7669 29.2681 58.9036L29.2343 58.8752C29.3675 58.5077 29.5414 58.1669 29.7509 57.8527C29.9604 57.5385 30.1947 57.2296 30.4486 56.9278C30.5072 56.8621 30.5942 56.7627 30.706 56.6331C30.8196 56.5053 30.9297 56.3704 31.0344 56.2319C31.1409 56.0917 31.235 55.955 31.3167 55.8183C31.3966 55.6816 31.4338 55.5697 31.4285 55.4863C31.4232 55.4135 31.393 55.3549 31.338 55.3106C31.2812 55.2679 31.2137 55.2324 31.1338 55.2058C31.0522 55.1792 30.9705 55.165 30.8853 55.1597C30.8001 55.1543 30.7326 55.1543 30.6794 55.1579C30.532 55.1685 30.4024 55.204 30.2906 55.2626C30.1788 55.323 30.0776 55.3993 29.9888 55.4881C29.8983 55.5786 29.8148 55.6763 29.7314 55.7828C29.648 55.8875 29.5628 55.9976 29.4758 56.1076L25.6022 60.8759L25.6164 60.9735C25.4336 61.1297 25.2703 61.27 25.1211 61.3925C24.8069 61.6516 24.5442 61.8469 24.3383 61.9836C24.1324 62.1185 23.9655 62.2091 23.843 62.2534C23.7205 62.2978 23.6211 62.3227 23.5483 62.328C23.2731 62.3262 23.0672 62.2712 22.927 62.1629C22.7885 62.0564 22.6376 61.9037 22.4778 61.7031C22.5187 61.68 22.5631 61.6499 22.6128 61.6144L22.2009 61.1191L22.0056 61.2753C21.9613 61.2362 21.9115 61.2025 21.8565 61.1741C21.7252 61.0889 21.5672 61.0197 21.3843 60.9682C21.4713 60.8244 21.6222 60.654 21.8405 60.4551C22.0589 60.2563 22.2968 60.061 22.5524 59.8693C22.808 59.6776 23.0601 59.5143 23.3104 59.3758C23.559 59.2373 23.7578 59.1646 23.9051 59.1539C23.946 59.1504 23.9921 59.1557 24.04 59.1681C24.088 59.1805 24.1146 59.2125 24.1181 59.2657C24.1235 59.3492 24.1039 59.4308 24.056 59.5072C24.0187 59.5622 23.9797 59.6172 23.9406 59.6723L25.1851 59.5888C25.3963 59.2888 25.4904 58.9569 25.4655 58.5894C25.4584 58.474 25.4318 58.3515 25.3857 58.2237C25.3395 58.0941 25.2791 57.9752 25.2028 57.8651C25.1265 57.7533 25.0359 57.6645 24.9312 57.5988C24.8265 57.5314 24.7057 57.503 24.5691 57.5118C24.3898 57.5243 24.1608 57.613 23.882 57.7799C23.6033 57.9468 23.2998 58.1527 22.9749 58.4012C22.6483 58.6497 22.311 58.9249 21.963 59.2285C21.6133 59.5303 21.2849 59.8303 20.9707 60.125C20.6582 60.4196 20.376 60.693 20.1239 60.9398C19.8718 61.1883 19.6801 61.3818 19.5541 61.5167L19.5558 61.0907C19.7014 60.9132 19.9535 60.6185 20.3121 60.2102C20.6707 59.8019 21.079 59.3385 21.5405 58.8237C21.8831 58.4314 22.2364 58.0231 22.5986 57.597L20.1612 57.8083C19.8825 58.2166 19.6339 58.6142 19.4174 58.9959C19.2949 59.216 19.1724 59.4344 19.0499 59.6527C18.9274 59.8729 18.8173 60.093 18.7233 60.3149C18.6274 60.5386 18.5511 60.7676 18.4925 61.0019C18.4339 61.238 18.4126 61.4812 18.4303 61.7333C18.4374 61.8274 18.4587 61.9783 18.4925 62.1878C18.528 62.3972 18.5795 62.6067 18.6451 62.818C18.7126 63.0292 18.796 63.2156 18.8955 63.3718C18.9949 63.5281 19.1138 63.6026 19.2505 63.592C19.3978 63.5813 19.5097 63.5245 19.5878 63.4198C19.6659 63.315 19.7316 63.2014 19.7866 63.0825C19.8896 62.8765 19.9996 62.6777 20.1204 62.4913C20.2393 62.3049 20.3831 62.1256 20.55 61.957C20.6884 62.1363 20.8411 62.3351 21.0097 62.5499C21.1766 62.7647 21.3595 62.9671 21.5565 63.1553C21.7536 63.3417 21.9666 63.4943 22.1956 63.6097C22.4246 63.7269 22.6713 63.7748 22.9341 63.7588C23.1968 63.7411 23.495 63.6239 23.827 63.4073C24.1608 63.1908 24.4945 62.9334 24.8282 62.6369C25.162 62.3404 25.4762 62.0422 25.7727 61.744C26.0691 61.4439 26.3105 61.199 26.4987 61.0072L26.4401 60.8208L28.0449 59.0669L28.0787 59.0971C27.6224 60.0025 27.2141 60.7978 26.8538 61.4794C26.4934 62.1629 26.1472 62.7754 25.8135 63.3132C25.5188 63.7979 25.3004 64.2435 25.1602 64.6553C25.0182 65.0654 24.9667 65.4701 25.004 65.8678C25.0146 66.0151 25.0555 66.1678 25.13 66.3258C25.2046 66.4838 25.3306 66.5583 25.5099 66.5459C25.5827 66.5406 25.6555 66.5122 25.7247 66.4589C25.7957 66.4075 25.8596 66.3453 25.9182 66.2725C25.9768 66.1998 26.0265 66.1252 26.0691 66.0489C26.1099 65.9725 26.1455 65.9015 26.1739 65.8358L27.4591 62.8393C27.5656 62.8535 27.6686 62.8677 27.7716 62.8801C27.8727 62.8961 27.981 62.8978 28.0964 62.8907C28.2225 62.8819 28.345 62.8641 28.4657 62.8339C28.5846 62.8055 28.7018 62.7771 28.8154 62.7487C29.0107 62.8304 29.1971 62.8943 29.3728 62.9404C29.5485 62.9866 29.7438 63.0026 29.9533 62.9884C30.3723 62.96 30.7752 62.8659 31.1604 62.7097C31.5457 62.5517 31.9096 62.3564 32.2522 62.1221C32.5948 61.8877 32.9179 61.6232 33.2197 61.3286C33.3244 61.2256 33.4292 61.1226 33.5321 61.0179C33.5694 61.1617 33.628 61.3037 33.7097 61.4475C33.8304 61.6552 33.9671 61.8469 34.1197 62.0209C34.2724 62.1966 34.4304 62.3351 34.5902 62.4416C34.7499 62.5464 34.8884 62.5961 35.0038 62.5872C35.0979 62.5801 35.2222 62.5286 35.373 62.4274C35.5239 62.328 35.6766 62.2144 35.8328 62.0883C35.9873 61.9623 36.1382 61.8363 36.282 61.7102C36.4258 61.5842 36.534 61.4865 36.6033 61.4191L37.9737 60.1569L38.0075 60.1853C37.9613 60.2936 37.9098 60.4267 37.8513 60.583C37.7927 60.7392 37.7412 60.9007 37.695 61.0676C37.6471 61.2345 37.6081 61.3978 37.5761 61.5576C37.5459 61.7173 37.5335 61.8611 37.5406 61.9872C37.5566 62.2179 37.6311 62.4114 37.7607 62.5659C37.8921 62.7203 38.0891 62.7896 38.3519 62.7718C38.54 62.7594 38.7939 62.6493 39.1134 62.4434C39.433 62.2375 39.7614 61.9943 40.1005 61.7138C40.4395 61.4315 40.7608 61.1386 41.0609 60.835C41.2082 60.6841 41.3396 60.5475 41.4532 60.4214C41.455 60.4551 41.4567 60.4889 41.4585 60.5226C41.4727 60.7232 41.5135 60.9309 41.5792 61.1475C41.6467 61.3641 41.7408 61.5611 41.865 61.7369C41.9875 61.9144 42.1402 62.0564 42.3213 62.1647C42.5041 62.2747 42.7083 62.3209 42.939 62.3049C43.2337 62.2854 43.532 62.186 43.8373 62.0067C44.1409 61.8274 44.4338 61.6144 44.7125 61.3641C44.9894 61.1138 45.2468 60.8492 45.4812 60.5688C45.6019 60.425 45.7155 60.2865 45.8185 60.1534C45.8202 60.2013 45.822 60.2474 45.8273 60.2936C45.8362 60.4303 45.8628 60.583 45.9054 60.7552C45.9498 60.9274 46.0066 61.0889 46.0812 61.2416C46.1557 61.3942 46.2498 61.5221 46.3688 61.6268C46.4859 61.7298 46.6333 61.7741 46.8126 61.7617C46.9173 61.7546 47.0309 61.7049 47.1499 61.6126C47.2102 61.5664 47.2706 61.5096 47.3292 61.4422L47.6203 59.4131C47.5919 59.4575 47.5475 59.509 47.4872 59.564C47.4268 59.6208 47.3718 59.651 47.3185 59.6545C47.2031 59.6616 47.141 59.6084 47.1339 59.493C47.1286 59.4095 47.2031 59.2675 47.3576 59.0669C47.8049 58.9728 48.2647 58.9018 48.7351 58.8486C49.092 58.8255 49.4505 58.8113 49.8074 58.8095C49.7044 58.9959 49.5997 59.1859 49.4985 59.3847C49.3778 59.635 49.2784 59.8871 49.2002 60.1392C49.1221 60.393 49.092 60.6344 49.1079 60.8652C49.1257 61.1386 49.2127 61.3747 49.3689 61.5753C49.5251 61.7759 49.7541 61.8664 50.0594 61.8451C50.3417 61.8256 50.6453 61.7013 50.9684 61.4688C51.2897 61.2362 51.6039 60.9646 51.9092 60.654C52.2146 60.3433 52.5057 60.0291 52.7791 59.7096L52.8075 59.6758C52.843 59.8356 52.9069 59.9936 52.9974 60.1534C53.1182 60.3611 53.2548 60.5528 53.4075 60.7267C53.5602 60.9025 53.7182 61.041 53.878 61.1475C54.0377 61.2522 54.1762 61.3019 54.2916 61.293C54.3857 61.2859 54.5099 61.2345 54.6608 61.1333C54.8117 61.0339 54.9644 60.9202 55.1206 60.7942C55.275 60.6682 55.4259 60.5421 55.5697 60.4161C55.7135 60.29 55.8218 60.1924 55.8911 60.125L57.2615 58.8628L57.2952 58.8912C57.2491 58.9995 57.1976 59.1326 57.139 59.2888C57.0804 59.445 57.029 59.6066 56.9828 59.7735C56.9349 59.9403 56.8958 60.1037 56.8639 60.2634C56.8337 60.4232 56.8213 60.567 56.8284 60.693C56.8443 60.9238 56.9189 61.1173 57.0485 61.2717C57.1781 61.4262 57.3769 61.4954 57.6396 61.4777C57.8278 61.4652 58.0817 61.3552 58.4012 61.1493C58.7208 60.9433 59.0492 60.7001 59.3882 60.4196C59.7273 60.1374 60.0486 59.8445 60.3486 59.5409C60.6504 59.2356 60.8776 58.9835 61.0339 58.7829L60.883 58.2042ZM29.7687 61.3161C29.3497 61.2078 28.9059 61.1848 28.4355 61.2469C28.6272 60.9504 28.8278 60.6611 29.0426 60.3841C29.2556 60.1072 29.5042 59.8533 29.7829 59.6226C29.8344 59.5871 29.9125 59.5303 30.0172 59.4486C30.1219 59.3669 30.2338 59.2888 30.3492 59.2125C30.4663 59.1362 30.58 59.0687 30.6918 59.0083C30.8036 58.948 30.8924 58.916 30.9545 58.9125C31.0184 58.9089 31.0646 58.9285 31.093 58.9746C31.1214 59.0208 31.1391 59.0687 31.1427 59.122C31.1533 59.2693 31.1178 59.4078 31.0362 59.5409C30.9563 59.674 30.8764 59.8001 30.8001 59.9208L29.7687 61.3161ZM37.4625 59.4095C37.1021 59.7912 36.795 60.1072 36.5376 60.3575C36.2802 60.606 36.0672 60.7995 35.8967 60.938C35.7263 61.0747 35.5825 61.1777 35.4654 61.2433C35.3482 61.309 35.2559 61.3516 35.1902 61.3729C35.1227 61.3925 35.0624 61.4102 35.0109 61.4244C34.8955 61.4546 34.8156 61.4226 34.7677 61.3303C34.7198 61.238 34.6878 61.1723 34.6754 61.1297C34.663 60.9416 34.6914 60.7339 34.7588 60.5066C34.8281 60.2812 35.002 60.0397 35.2807 59.7841C35.5577 59.5285 35.9678 59.248 36.5056 58.9427C37.0435 58.6373 37.7714 58.3125 38.6856 57.9663L38.7193 57.9947C38.2418 58.5557 37.8229 59.0261 37.4625 59.4095ZM56.7556 58.1172C56.3952 58.4989 56.0881 58.8148 55.8307 59.0651C55.5733 59.3137 55.3603 59.5072 55.1881 59.6456C55.0176 59.7823 54.8756 59.8853 54.7585 59.951C54.6413 60.0167 54.549 60.0593 54.4815 60.0806C54.4141 60.1001 54.3555 60.1179 54.304 60.1321C54.1886 60.1622 54.1087 60.1303 54.0608 60.038C54.0129 59.9457 53.9809 59.88 53.9685 59.8374C53.9561 59.6492 53.9845 59.4415 54.0519 59.2143C54.1212 58.9888 54.2951 58.7474 54.5738 58.4917C54.8508 58.2361 55.2591 57.9556 55.7987 57.6503C56.3366 57.345 57.0645 57.0201 57.9787 56.6739L58.0124 56.7023C57.5349 57.2651 57.116 57.7355 56.7556 58.1172Z" fill="#8489A8"/>
<path d="M46.9049 53.2158C46.8534 53.1501 46.7842 53.1004 46.6972 53.0631C46.6102 53.0276 46.5161 53.0045 46.4167 52.9957C46.3155 52.9868 46.2232 52.9797 46.138 52.9744C45.9356 52.9548 45.7652 52.9992 45.625 53.104C45.4847 53.2087 45.3711 53.3347 45.2859 53.4821C45.2007 53.6312 45.1403 53.7785 45.103 53.9294C45.0658 54.0803 45.0498 54.1851 45.0533 54.249C45.0516 54.3661 45.0853 54.4584 45.1581 54.5277C45.2308 54.5969 45.3232 54.6537 45.4315 54.6981C45.5415 54.7443 45.6534 54.7727 45.7687 54.7851C45.8859 54.7993 45.9924 54.8028 46.0865 54.7957C46.2338 54.7851 46.3617 54.7318 46.4717 54.636C46.5818 54.5383 46.6741 54.4212 46.7487 54.2845C46.8232 54.1478 46.88 54.0058 46.9173 53.8549C46.9546 53.704 46.9759 53.5762 46.9794 53.4714C46.9812 53.3667 46.9564 53.2815 46.9049 53.2158ZM43.9119 53.4164C43.8604 53.3507 43.7911 53.301 43.7042 53.2637C43.6172 53.2282 43.5231 53.2051 43.4237 53.1963C43.3225 53.1874 43.2302 53.1803 43.145 53.175C42.9426 53.1554 42.7722 53.1998 42.6319 53.3046C42.4917 53.4093 42.3781 53.5353 42.2946 53.6827C42.2094 53.8318 42.1473 53.9791 42.11 54.13C42.0727 54.2809 42.0568 54.3857 42.0603 54.4496C42.0585 54.5667 42.0923 54.659 42.165 54.7283C42.2378 54.7975 42.3301 54.8543 42.4384 54.8987C42.5467 54.9449 42.6603 54.9733 42.7757 54.9857C42.8929 54.9999 42.9994 55.0034 43.0935 54.9963C43.2391 54.9857 43.3686 54.9324 43.4769 54.8366C43.587 54.7389 43.6793 54.6218 43.7539 54.4851C43.8284 54.3484 43.8852 54.2064 43.9225 54.0555C43.9598 53.9046 43.9811 53.7768 43.9846 53.672C43.9882 53.5673 43.9633 53.4821 43.9119 53.4164Z" fill="#8489A8"/>
<path d="M69.6384 65.9494L68.2182 64.9731C64.3127 61.8664 62.4487 59.7929 62.4487 56.9846C62.4487 54.6828 64.1465 52.6353 66.443 52.6353C68.0407 52.5465 68.9283 53.1678 69.6384 54.1442C70.1709 53.2566 71.0926 52.6353 72.39 52.6353C75.0528 52.5465 76.7392 54.594 76.7392 56.8958C76.7392 59.7041 74.7865 62.1327 70.9698 64.9731L69.6384 65.9494Z" fill="#8489A8"/>
</svg>
