<svg width="163" height="48" viewBox="0 0 163 48" fill="none" xmlns="http://www.w3.org/2000/svg">
<path fill-rule="evenodd" clip-rule="evenodd" d="M11.0171 5.58259C5.4959 8.71933 0.746066 11.478 0.462942 11.7137C-0.00238605 12.0999 -0.0449374 13.3044 0.0287077 24.0457L0.110536 35.9495L1.20485 36.687L2.29916 37.4246L2.45518 25.29L2.61174 13.1555L6.67586 10.8545C8.91085 9.58889 13.0677 7.2317 15.9131 5.61696C22.1195 2.094 20.7655 2.10927 26.7002 5.49367C29.4142 7.04131 31.7512 8.30746 31.8941 8.30746C32.037 8.30746 32.1543 13.209 32.1543 19.1998V30.0928L26.7952 33.1591C22.6563 35.5267 21.3214 36.1546 20.9336 35.9151C20.657 35.7449 19.7274 35.2147 18.8677 34.7368C18.0079 34.2589 16.2361 33.2519 14.9296 32.4985C12.0296 30.826 12.0885 30.827 12.2069 32.4445C12.3073 33.8247 13.7671 34.8923 20.0394 38.1768L21.5233 38.9536L28.0111 35.2228L34.499 31.492L34.5748 19.3526L34.6506 7.21315L28.4039 3.66782C24.9682 1.71814 21.9095 0.0679397 21.6067 0.00138636C21.2985 -0.0668035 16.6392 2.38858 11.0171 5.58259ZM14.1473 8.44711C10.3472 10.5855 6.54875 12.7398 5.70647 13.2346L4.17466 14.1347L4.09283 26.1989L4.011 38.2636L5.06767 38.9165C5.64865 39.2755 6.21326 39.5695 6.32182 39.5695C6.43038 39.5695 6.51929 34.164 6.51929 27.5572V15.5454L13.0061 11.8801C16.5738 9.86437 19.908 7.96488 20.4148 7.65884L21.3361 7.10296L24.0097 8.54586C25.4799 9.33959 27.4569 10.4541 28.4028 11.0231C30.5849 12.3356 30.6465 12.3268 30.5309 10.7312L30.4349 9.40341L26.1018 6.97967C20.8228 4.02677 22.3323 3.8413 14.1473 8.44711ZM36.1437 20.4098L36.0619 32.5121L31.216 35.2774C28.5512 36.7983 25.2453 38.6503 23.8695 39.3922L21.3689 40.7419L16.9922 38.2854C11.861 35.4061 12.0841 35.4607 12.2069 37.1152L12.3029 38.4125L16.6796 40.8668C19.0864 42.2158 21.2178 43.3205 21.4152 43.3205C21.7273 43.3205 28.7236 39.4866 36.2932 35.1666L38.7126 33.7859L38.7158 21.6672L38.7191 9.54852L37.7028 8.92935C37.1442 8.5884 36.5834 8.3091 36.4563 8.30855C36.3292 8.30801 36.1884 13.7534 36.1437 20.4098ZM14.7217 12.7169L8.07512 16.4919L8.15694 28.5757L8.23877 40.6595L14.6475 44.3248C18.1721 46.3405 21.2009 47.9945 21.3771 48C21.5538 48.0054 25.0004 46.1343 29.0367 43.8415C33.0724 41.5487 37.8163 38.8674 39.5789 37.8839L42.7832 36.0951V23.9519V11.8081L41.6709 11.1518C41.0594 10.7912 40.497 10.4955 40.4206 10.4955C40.3442 10.4955 40.282 15.9496 40.282 22.6159V34.7357L38.4845 35.746C37.4961 36.3019 35.9135 37.1938 34.9676 37.7284C34.0222 38.263 32.5449 39.0917 31.6852 39.5706C30.8255 40.049 28.2391 41.511 25.9376 42.8186C20.8681 45.6995 22.1004 45.7748 15.8351 42.1995L10.5834 39.2029L10.584 28.5228V17.8426L15.8111 14.8722C18.686 13.239 21.1507 11.855 21.2881 11.7961C21.4256 11.7377 23.4969 12.8282 25.8912 14.2193C31.0022 17.1885 30.592 17.0838 30.5865 15.4194L30.5821 14.0911L26.1705 11.5899C23.7446 10.2146 21.6716 9.05592 21.5642 9.01555C21.4567 8.97518 18.3778 10.6406 14.7217 12.7169ZM48.0977 23.9382V35.818H49.9732H51.8492V32.0665V28.3149H54.9058C59.6278 28.3149 59.3517 28.819 59.3517 20.1916C59.3517 11.2609 59.9524 12.059 53.2337 12.059H48.0977V23.9382ZM62.7907 23.9382V35.818H64.5102H66.2297V32.0665V28.3149H67.2967H68.3643L69.2251 32.0665L70.0859 35.818H71.8812H73.6771L73.2232 33.8639C72.9734 32.7893 72.5697 31.1424 72.3258 30.2041C72.082 29.2658 71.9118 28.4922 71.9478 28.4846C71.9838 28.4775 72.4349 28.2549 72.951 27.9909L73.8887 27.5097L73.9728 20.3629C74.0797 11.28 74.6492 12.059 67.9006 12.059H62.7907V23.9382ZM78.0309 12.3967C77.1395 12.916 77.1946 35.0155 78.0887 35.4945C79.0543 36.0111 87.2398 35.9118 87.9751 35.3739C88.9194 34.6833 88.9194 13.1931 87.9751 12.5025C87.2452 11.969 78.9173 11.8801 78.0309 12.3967ZM91.8641 23.9382V35.818H93.576H95.2878L95.3735 30.5816L95.4591 25.3451L98.3509 25.2551L101.243 25.1656V23.9382V22.7114L98.3509 22.6213L95.4591 22.5319L95.3718 18.7018L95.284 14.8722H98.4196H101.555V13.4659V12.059H96.71H91.8641V23.9382ZM104.369 23.9382V35.818H109.163C114.632 35.818 114.274 35.9298 114.115 34.2709L113.994 33.0042H110.901H107.808V22.5319V12.059H106.089H104.369V23.9382ZM116.873 23.9382V35.818H118.593H120.312V23.9382V12.059H118.593H116.873V23.9382ZM123.439 23.9382V35.818H128.574C135.407 35.818 134.693 37.2036 134.693 23.9382C134.693 10.6728 135.407 12.059 128.574 12.059H123.439V23.9382ZM138.132 23.9382V35.818H142.977H147.823V34.4111V33.0042H144.687H141.551L141.639 29.1747L141.727 25.3451L144.619 25.2551L147.51 25.1656V23.9268V22.6879H144.541H141.571V18.7803V14.8722H144.697H147.823V13.4659V12.059H142.977H138.132V23.9382ZM151.262 23.9306V35.818H152.981H154.7V32.0665V28.3149H155.719H156.738L157.305 30.8941C157.617 32.3125 158.007 34.0009 158.174 34.6457L158.476 35.818H160.183C162.184 35.818 162.134 36.0226 161.109 32.0665C160.157 28.3875 160.157 28.4257 161.121 28.184C162.346 27.8763 162.517 26.8868 162.512 20.0885C162.505 11.5484 163.026 12.2368 156.489 12.1294L151.262 12.0437V23.9306ZM55.9133 20.1872V25.5017H53.8813H51.8492V20.1872V14.8722H53.8813H55.9133V20.1872ZM70.6064 20.1872V25.5017H68.4177H66.2297V20.1872V14.8722H68.4177H70.6064V20.1872ZM84.9868 23.9382V33.0042H82.9547H80.9227V23.9382V14.8722H82.9547H84.9868V23.9382ZM131.254 23.9382V33.0042H129.066H126.878V23.9382V14.8722H129.066H131.254V23.9382ZM158.843 15.2634C158.8 15.3921 158.764 17.7488 158.764 20.4998V25.5017H156.732H154.7V20.1725V14.8439L156.811 14.9361C157.971 14.9873 158.886 15.1341 158.843 15.2634Z" fill="#8489A8"/>
</svg>
