<svg width="68" height="68" viewBox="0 0 68 68" fill="none" xmlns="http://www.w3.org/2000/svg">
<path fill-rule="evenodd" clip-rule="evenodd" d="M0.134811 0.144555L0 0.28891V34.0085V67.728L0.136004 67.864L0.27181 68H33.9876H67.7031L67.8515 67.8549L67.9998 67.7099V33.991V0.272009L67.8638 0.136005L67.728 0H33.9989H0.269822L0.134811 0.144555ZM33.3952 1.68494C48.2452 1.71378 61.7452 1.74937 63.3951 1.76408L66.3952 1.79072V34.093V66.3954H57.2557C43.4118 66.3954 1.85157 66.323 1.73247 66.2986L1.62788 66.2773V33.9566C1.62788 8.14296 1.63961 1.63126 1.68594 1.61296C1.71795 1.60064 2.79067 1.59984 4.06979 1.61157C5.34871 1.6231 18.5453 1.65631 33.3952 1.68494ZM16.5675 6.32699C16.2883 6.58687 16.4502 7.06984 16.8162 7.06984C17.0282 7.06984 17.2093 6.87697 17.2093 6.65129C17.2093 6.30531 16.8083 6.1027 16.5675 6.32699ZM35.6143 6.47671C35.7632 7.02829 35.7479 7.79202 35.5789 8.23264L35.4272 8.62793L35.3924 10.6513C35.3733 11.764 35.342 12.8361 35.3232 13.0338C35.2949 13.3286 35.3041 13.4332 35.3739 13.6152C35.5876 14.1739 35.4287 14.7704 34.9185 15.3249C34.568 15.7057 34.5648 15.7182 34.6509 16.34C34.6763 16.5239 34.7197 16.8524 34.7473 17.0697C34.7748 17.2873 34.8181 17.601 34.8438 17.7671C34.908 18.1836 34.9038 21.2668 34.8384 21.7641C34.7263 22.6153 34.7004 22.8324 34.6461 23.3721L34.59 23.9302L34.7308 24.2326C35.2227 25.2899 35.0647 25.882 34.1071 26.5696C33.8943 26.7225 33.8553 26.8213 33.9884 26.87C34.1671 26.9354 34.5893 27.2548 34.7215 27.4246C34.978 27.7542 35.0696 28.0223 35.0696 28.4418C35.0696 28.8566 34.9609 29.305 34.7428 29.7875C34.6145 30.0715 34.7074 30.4717 35.1046 31.3488C35.1569 31.4639 35.2341 31.6419 35.2762 31.7443C35.4866 32.2543 35.5868 32.4617 36.0282 33.3024C36.4345 34.0757 36.9312 34.7799 37.1163 34.8448C37.3408 34.9235 39.7228 34.9235 39.9567 34.845C40.3541 34.7111 40.9298 33.777 40.9304 33.2648C40.9329 31.215 41.9524 30.8298 42.9082 32.518C43.0482 32.7651 43.1627 32.987 43.1627 33.0109C43.1627 33.0347 43.2363 33.2056 43.3259 33.3901C43.4906 33.7281 43.5103 33.74 43.6743 33.6012C44.101 33.2403 44.4945 33.2248 45.4418 33.532C45.7629 33.636 47.046 33.7667 47.7548 33.7671C47.9654 33.7673 48.2794 33.7877 48.4526 33.8126C48.7898 33.8609 49.258 33.9204 49.9301 34.0005C50.3274 34.0476 50.4994 34.0773 51.0116 34.1868C51.1331 34.2127 51.379 34.263 51.558 34.2986C52.0451 34.3954 53.0206 34.6489 53.2077 34.7272C53.4376 34.8239 53.6639 34.8145 53.8981 34.6988C54.1621 34.5684 54.6825 34.3856 55.1162 34.2713C55.308 34.2206 55.5383 34.1594 55.6278 34.1353C56.657 33.8567 58.9839 33.8559 60.1626 34.1335C60.265 34.1576 60.5579 34.2192 60.8138 34.2703C61.0695 34.3214 61.394 34.3948 61.5348 34.4334C61.6754 34.4719 61.8899 34.5181 62.0114 34.536L62.2323 34.5688V20.4742C62.2323 12.7224 62.2196 6.34667 62.2041 6.30611C62.1785 6.2393 60.9596 6.23254 48.8622 6.23254H35.5484L35.6143 6.47671ZM9.18348 7.31958C8.89019 7.42815 8.67863 7.61366 8.51558 7.90555C8.47164 7.98409 8.44977 8.1708 8.44977 8.46508C8.44977 9.78933 10.1791 10.1954 10.8332 9.02481C10.9233 8.86335 10.9233 8.06701 10.8332 7.90555C10.5262 7.35637 9.79053 7.0949 9.18348 7.31958ZM12.6985 7.30785C12.6351 7.3331 12.5458 7.38758 12.5001 7.42894C12.4235 7.49834 12.4126 7.49794 12.3587 7.42437C12.3106 7.35875 12.238 7.34682 11.9525 7.35835L11.6045 7.37207V8.93036V10.4884L11.9883 10.502L12.372 10.5155V9.97863C12.372 9.49008 12.4046 9.35309 12.4887 9.48909C12.6259 9.71099 13.2405 9.72173 13.5448 9.50778C14.5389 8.80847 13.7935 6.87081 12.6985 7.30785ZM21.1292 7.35577C20.2611 7.77691 20.268 9.16697 21.1403 9.57698C21.7311 9.85455 22.6509 9.52965 22.7078 9.02341C22.7282 8.84048 22.1502 8.81961 22.0096 8.99816C21.8277 9.22961 21.4519 9.21132 21.301 8.96396C21.1119 8.65378 21.1179 8.65119 21.9999 8.65119H22.7907V8.44361C22.7907 7.56355 21.9013 6.98116 21.1292 7.35577ZM32.1587 7.40707C31.53 7.83179 31.5117 9.07312 32.1279 9.50659C32.4436 9.72869 32.9095 9.72272 33.1781 9.49346C33.2559 9.42705 33.2674 9.42765 33.3083 9.50102C33.3447 9.56604 33.4199 9.58155 33.6999 9.58155H34.0464V8.46508V7.34881H33.6999C33.4199 7.34881 33.3447 7.36432 33.3083 7.42934C33.2676 7.50211 33.2553 7.50291 33.1781 7.43829C32.897 7.20247 32.4804 7.18974 32.1587 7.40707ZM6.26356 7.37983C6.24646 7.39693 6.23254 7.52021 6.23254 7.65402C6.23254 7.92961 6.26058 7.95347 6.58508 7.95347H6.79067V8.7693V9.58513L7.17443 9.57181L7.55818 9.55829L7.57071 8.75836L7.58344 7.95824L7.82661 7.94433L8.06979 7.93021L8.08351 7.63951L8.09743 7.34881H7.1959C6.7002 7.34881 6.28066 7.36293 6.26356 7.37983ZM14.5789 7.40806C14.5664 7.44067 14.5618 7.93776 14.5688 8.5128L14.5813 9.55829L14.9651 9.57181L15.3488 9.58513V8.7693V7.95347H15.624C16.0314 7.95347 16.0465 7.94174 16.0465 7.62301V7.34881H15.3242C14.7821 7.34881 14.596 7.36372 14.5789 7.40806ZM16.4394 7.40806C16.4269 7.44067 16.4223 7.93776 16.4293 8.5128L16.4418 9.55829L16.8256 9.57181L17.2093 9.58513V8.46707V7.34881H16.8357C16.5762 7.34881 16.4551 7.3669 16.4394 7.40806ZM17.9534 8.46508V9.58155H18.7704C19.6934 9.58155 19.7934 9.5549 19.9461 9.26957C20.0728 9.03296 19.9561 8.59989 19.7391 8.50087C19.6091 8.44162 19.6011 8.40563 19.7004 8.32351C19.8833 8.1714 19.9477 7.84173 19.8364 7.62639C19.7103 7.38241 19.5755 7.34881 18.7233 7.34881H17.9534V8.46508ZM23.6598 7.37903C23.6423 7.39653 23.6278 7.75026 23.6278 8.16484C23.6278 8.96336 23.624 8.97788 23.3953 9.04708C22.9989 9.16717 23.1722 9.67441 23.6097 9.67441C24.2201 9.67441 24.372 9.44714 24.372 8.53328V7.90695H24.6047H24.8371V8.74604V9.58513L25.2209 9.57181L25.6046 9.55829V8.46508V7.37207L24.6482 7.35955C24.1221 7.35279 23.6773 7.36134 23.6598 7.37903ZM26.2999 7.40806C26.2874 7.44067 26.2828 7.93776 26.2896 8.5128L26.3023 9.55829L26.9967 9.57121C27.7427 9.58493 27.8821 9.5551 28.0746 9.34036C28.5546 8.8043 28.1704 8.09306 27.4005 8.09306H27.0696V7.72103V7.34881H26.6962C26.4367 7.34881 26.3157 7.3669 26.2999 7.40806ZM28.8115 7.40806C28.7989 7.44067 28.7944 7.93776 28.8013 8.5128L28.8138 9.55829L29.1976 9.57181L29.5813 9.58513V9.16479V8.74425H29.9068H30.2325V9.16479V9.58513L30.6161 9.57181L30.9999 9.55829V8.46508V7.37207L30.6161 7.35855L30.2325 7.34523V7.76557V8.18611H29.9068H29.5813V7.76756V7.34881H29.2077C28.9483 7.34881 28.8274 7.3669 28.8115 7.40806ZM21.9323 7.89064C22.1536 8.12924 22.0985 8.18611 21.646 8.18611H21.2457L21.2759 8.05826C21.3463 7.7606 21.7229 7.66456 21.9323 7.89064ZM9.96431 7.96063C10.324 8.33703 10.1345 9.04648 9.67441 9.04648C9.22324 9.04648 9.02461 8.34041 9.37237 7.97256C9.49048 7.84769 9.84938 7.84033 9.96431 7.96063ZM19.0891 7.88885C19.2872 7.96481 19.1271 8.18611 18.8744 8.18611C18.7034 8.18611 18.6976 8.18074 18.6976 8.02326C18.6976 7.85505 18.8579 7.79997 19.0891 7.88885ZM12.9317 7.97753C13.3137 8.17518 13.2867 8.80986 12.8892 8.9745C12.3549 9.1958 12.0326 8.25889 12.547 7.97992C12.7098 7.89144 12.7647 7.89124 12.9317 7.97753ZM33.0856 7.95864C33.2684 8.04196 33.3662 8.31675 33.3187 8.61341C33.2473 9.0602 32.786 9.15266 32.5506 8.76751C32.2921 8.34439 32.6719 7.77015 33.0856 7.95864ZM27.4313 8.67704C27.5671 8.77208 27.5628 8.90988 27.4212 9.00254C27.2387 9.12224 27.0957 9.07571 27.078 8.89099C27.0504 8.60287 27.1979 8.5136 27.4313 8.67704ZM19.1728 8.77109C19.2554 8.95223 19.1736 9.0437 18.9138 9.0608L18.6976 9.07491V8.86315V8.65119H18.908C19.0887 8.65119 19.1259 8.66809 19.1728 8.77109ZM8.41855 15.7898V17.2541L8.52314 17.2779C8.5808 17.2909 9.5384 17.3078 10.6511 17.3151C12.9399 17.3302 13.1075 17.3529 13.4338 17.6895C13.8303 18.0985 13.7995 18.9575 13.3781 19.2454C13.0791 19.4498 13 19.4566 10.6861 19.4769L8.46508 19.4962V20.9574V22.4187L9.3837 22.4226C9.88895 22.4248 10.7837 22.4411 11.3721 22.4588L12.4418 22.491L12.7208 22.6485C13.0739 22.8477 13.2582 23.0295 13.4165 23.3347C13.6772 23.8374 13.6881 23.9286 13.7172 25.8605L13.7442 27.6512H15.4186H17.093L17.0896 27.3953C17.0878 27.2548 17.0701 26.4175 17.0503 25.5348C17.0278 24.5291 17.0318 23.7228 17.0612 23.3747C17.1554 22.2588 16.9516 21.7927 16.1448 21.2787C15.798 21.0576 15.7982 21.0689 16.1324 20.8421C17.3342 20.0261 17.6977 18.1705 16.9697 16.5687C16.8968 16.4082 16.8371 16.2694 16.8371 16.2603C16.8371 16.2513 16.7687 16.1314 16.685 15.994C15.9996 14.8686 15.4013 14.5815 13.3089 14.3735C13.0441 14.3473 11.8354 14.3256 10.6229 14.3256H8.41855V15.7898ZM19.8139 18.7004C19.8139 21.3451 19.8316 23.0124 19.862 23.2235C19.9767 24.0197 20.0183 24.2229 20.1386 24.5786C20.2839 25.0089 20.5826 25.6265 20.7991 25.9454C21.056 26.3234 21.9975 27.1629 22.1645 27.1629C22.1812 27.1629 22.2504 27.2017 22.3182 27.2492C22.971 27.7063 24.953 27.935 26.2791 27.7063C28.0115 27.4073 29.2972 26.2719 29.842 24.5601C30.1321 23.6489 30.1468 23.3516 30.1307 18.7209L30.1162 14.535H28.5116H26.9068L26.8807 18.6746C26.8559 22.6141 26.8501 22.833 26.7606 23.2094C26.5109 24.2615 26.0023 24.6745 24.9564 24.6745C24.1082 24.6745 23.7224 24.4575 23.4303 23.8163C23.1277 23.1522 23.1462 23.447 23.1184 18.8372C23.1044 16.5221 23.076 14.6018 23.0553 14.5698C23.0265 14.5252 22.6463 14.5117 21.4157 14.5117H19.8139V18.7004ZM6.27907 48.1324V62.4976L18.6626 62.5393C37.2071 62.6022 35.8169 62.6135 35.4361 62.4031C34.9295 62.1234 34.736 61.7846 34.6479 61.0236C34.5889 60.5142 34.5972 60.21 34.7203 58.3954C34.7585 57.8325 34.7899 57.228 34.7901 57.0518C34.7905 56.8757 34.81 56.656 34.8338 56.5635C34.8577 56.471 34.9016 56.2698 34.9315 56.1163C34.9911 55.8099 35.3138 54.9921 35.5691 54.5004C35.6739 54.2986 35.7228 54.1496 35.7065 54.0818C35.6928 54.024 35.6156 53.736 35.5351 53.4418C35.3926 52.9204 35.3687 52.8136 35.2558 52.1861C35.2257 52.0197 35.182 51.7791 35.1583 51.651C35.1347 51.5232 35.0961 51.2512 35.0724 51.0466C34.9945 50.3721 34.9911 50.3644 34.7962 50.4059C33.1171 50.7636 32.7071 49.4871 34.0458 48.0698C34.3681 47.7284 34.3751 47.6491 34.1387 47.0001C33.9309 46.4292 33.9611 46.2606 34.3369 45.8923C34.5708 45.6635 34.6085 45.6038 34.5837 45.5044C34.5457 45.3529 34.6978 45.0992 35.0669 44.6985C35.4456 44.2875 35.4751 44.2253 35.3947 44.0099C35.3212 43.8131 35.3154 42.5026 35.3864 42.1329C35.4419 41.8446 35.4011 41.7913 35.0718 41.7213C34.0906 41.5132 34.1103 40.7878 35.1279 39.6499C35.3552 39.3955 35.35 39.3753 35.0418 39.3013C34.5666 39.1872 34.4185 38.975 34.4185 38.4085C34.4187 37.813 34.7748 36.5335 35.1426 35.8079C35.2599 35.5761 35.2894 35.3953 35.2096 35.3953C35.147 35.3953 34.5966 35.6085 34.2558 35.765C33.6108 36.0608 32.5941 36.3649 31.4375 36.6078C30.5632 36.7916 29.3571 36.3203 28.999 35.6552C28.9037 35.4785 28.7769 35.4063 28.6838 35.4761C28.653 35.4993 28.5337 35.5453 28.4186 35.5785C28.3034 35.6117 28.1569 35.6554 28.0929 35.6759C28.029 35.6964 27.7226 35.7393 27.412 35.7717L26.8473 35.8302L26.7042 36.1392C26.4809 36.6212 25.9122 37.1354 25.6947 37.0518C25.5877 37.0109 25.6494 36.7777 25.8432 36.4897C26.1091 36.0948 25.9393 35.5148 25.4827 35.2583C25.1527 35.0728 25.0254 35.1442 25.0238 35.516C25.0214 36.0497 24.4331 35.863 23.5439 35.0466C23.1728 34.7058 23.1313 34.6944 22.9609 34.8881C22.4441 35.4753 21.4793 35.6978 19.9236 35.5886C18.9187 35.5182 17.7681 35.518 17.5961 35.5884C17.5187 35.62 17.1882 35.6427 16.7906 35.6437C15.828 35.6461 15.4492 35.4526 15.2317 34.8473C15.1309 34.567 15.0955 34.5477 14.43 34.4103C13.851 34.2906 12.5275 34.2659 11.7906 34.361C11.5604 34.3908 11.1418 34.4375 10.8605 34.4652C10.5791 34.4928 10.2441 34.5348 10.1162 34.5586C9.85614 34.6068 9.36919 34.67 8.67446 34.7457C7.63374 34.8593 6.72227 34.538 6.46021 33.9651C6.4105 33.8563 6.34926 33.7675 6.3244 33.7675C6.29497 33.7675 6.27907 38.8322 6.27907 48.1324ZM53.9645 40.4536C53.9186 40.4856 53.9084 40.8938 53.918 42.3286L53.9301 44.1629H55.558H57.1859L57.198 42.3516C57.2048 41.3557 57.1944 40.5253 57.1747 40.5066C57.1224 40.4563 54.0337 40.4054 53.9645 40.4536ZM40.0308 41.1473C39.9596 41.2185 39.996 54.2644 40.0676 54.3238C40.1792 54.4163 45.1801 54.3614 45.5813 54.2632C47.1907 53.8697 48.1782 53.1924 48.9826 51.9302C50.4399 49.644 50.4145 45.6533 48.9282 43.3953C48.5848 42.8736 47.3683 41.7675 47.138 41.7675C47.1227 41.7675 46.9808 41.7066 46.8225 41.6323C46.5153 41.4877 46.4063 41.4509 45.8603 41.307C45.2298 41.1409 40.1758 41.0023 40.0308 41.1473ZM44.0366 44.3267C45.8414 44.5168 46.6557 45.4726 46.7298 47.4884C46.8026 49.4615 46.0647 50.8082 44.7673 51.0706C43.9688 51.2321 43.2394 51.2623 43.1909 51.1357C43.1108 50.9267 43.1619 44.3772 43.244 44.3293C43.3482 44.2686 43.4816 44.2682 44.0366 44.3267ZM53.9283 46.1047C53.916 46.1367 53.9114 48.0046 53.9182 50.2558L53.9301 54.3489H55.558H57.1859L57.1978 50.2355C57.2071 46.9754 57.1976 46.1144 57.1513 46.085C57.0473 46.019 53.9538 46.0379 53.9283 46.1047ZM58.7688 57.1877C58.4095 57.547 58.6632 58.1029 59.1627 58.0502C59.5639 58.0079 59.7123 57.4362 59.3961 57.1511C59.1889 56.9644 58.9798 56.9765 58.7688 57.1877ZM40.7198 58.4067C39.7686 58.7465 39.4731 59.9441 40.1408 60.7542C40.6331 61.3517 41.9713 61.3517 42.4638 60.7542C43.4699 59.5337 42.2315 57.8667 40.7198 58.4067ZM52.0095 58.3817C51.1961 58.6549 50.9559 60.1994 51.6228 60.8673C52.0177 61.2626 52.5794 61.3197 53.0343 61.0109C53.168 60.9202 53.2557 60.9355 53.2557 61.0493C53.2557 61.1029 53.3437 61.1163 53.6975 61.1163H54.1395V59.7674V58.4187H53.6975C53.2867 58.4187 53.2557 58.425 53.2557 58.5115C53.2557 58.6358 53.1974 58.629 52.9691 58.4779C52.7526 58.3345 52.2883 58.288 52.0095 58.3817ZM36.4651 59.7674V61.1163H36.9302H37.3952V60.5814C37.3952 60.2845 37.4143 60.0465 37.4382 60.0465C37.462 60.0465 37.6436 60.2871 37.842 60.5814L38.2029 61.1163H38.7758C39.0909 61.1163 39.3486 61.1006 39.3486 61.0813C39.3486 61.0622 39.1078 60.7454 38.8137 60.3778C38.5197 60.0099 38.2795 59.696 38.2801 59.6801C38.2805 59.6642 38.5004 59.39 38.7684 59.0708C39.0364 58.7517 39.2558 58.4743 39.2558 58.4546C39.2558 58.4348 39.0072 58.4187 38.7034 58.4187H38.151L37.8138 58.907C37.6283 59.1756 37.4583 59.3953 37.436 59.3953C37.4135 59.3953 37.3952 59.1756 37.3952 58.907V58.4187H36.9302H36.4651V59.7674ZM43.7475 58.4767C43.7379 58.5087 43.7065 58.6919 43.6775 58.8837C43.564 59.632 43.5385 59.8034 43.4874 60.1627C43.4582 60.3675 43.4152 60.6353 43.3916 60.758C43.3192 61.135 43.2985 61.1163 43.7874 61.1163C44.2953 61.1163 44.244 61.1759 44.3263 60.4883C44.3943 59.9207 44.3981 59.9069 44.4868 59.9069C44.5313 59.9069 44.5579 59.9495 44.5579 60.0205C44.5579 60.0829 44.579 60.1469 44.6045 60.1627C44.6301 60.1786 44.651 60.2414 44.651 60.3022C44.651 60.3633 44.6721 60.4259 44.6975 60.4418C44.7232 60.4577 44.744 60.5204 44.744 60.5814C44.744 60.6422 44.7649 60.7051 44.7906 60.721C44.8162 60.7367 44.8377 60.7955 44.8385 60.8516C44.8415 61.055 44.9405 61.1163 45.2668 61.1163C45.6054 61.1163 45.6273 61.1004 45.7205 60.7906C45.7551 60.6755 45.8009 60.5615 45.8219 60.5373C45.843 60.5128 45.8603 60.446 45.8603 60.3887C45.8603 60.3315 45.8812 60.2716 45.9068 60.2557C45.9325 60.24 45.9534 60.1772 45.9534 60.1163C45.9534 60.0553 45.9743 59.9924 45.9999 59.9767C46.0256 59.9608 46.0464 59.9073 46.0464 59.8576C46.0464 59.6103 46.1284 59.8177 46.1806 60.1976C46.2133 60.4343 46.2606 60.7377 46.286 60.8721L46.332 61.1163H46.7712H47.2102L47.1842 60.9186C47.1697 60.8099 47.1388 60.5953 47.1154 60.4418C47.0919 60.2883 47.0494 60.0058 47.0207 59.8139C46.9919 59.622 46.9493 59.3647 46.9261 59.2418C46.9026 59.1192 46.8835 58.9621 46.8833 58.8931C46.8831 58.8239 46.8613 58.6889 46.8346 58.593L46.7861 58.4187H46.3033H45.8206L45.7474 58.5652C45.7072 58.6459 45.6742 58.7493 45.6742 58.795C45.6742 58.8408 45.6533 58.8911 45.6279 58.907C45.6022 58.9227 45.5813 58.9855 45.5813 59.0464C45.5813 59.1074 45.5603 59.1703 45.5348 59.186C45.5092 59.2019 45.4883 59.2647 45.4883 59.3255C45.4883 59.3864 45.4674 59.4492 45.4418 59.4651C45.4161 59.4808 45.3952 59.5304 45.3952 59.5749C45.3952 59.6636 45.293 59.9063 45.2557 59.9062C45.2429 59.906 45.1626 59.6813 45.0771 59.4065C44.9916 59.1317 44.9027 58.8706 44.8795 58.8263C44.8562 58.7817 44.8365 58.7086 44.8355 58.6634C44.8319 58.458 44.7357 58.4187 44.2374 58.4187C43.8992 58.4187 43.7596 58.4352 43.7475 58.4767ZM47.8139 59.7674V61.1163H48.279H48.744V60.1163V59.1162H49.1626H49.5814V60.1163V61.1163H50.0464H50.5115V59.7674V58.4187H49.1626H47.8139V59.7674ZM54.9766 59.7674V61.1163H55.4417H55.9067V60.5814V60.0465H56.3255H56.744V60.5814V61.1163H57.2091H57.6742V59.7674V58.4187H57.2091H56.744V58.8837V59.3488H56.3255H55.9067V58.8837V58.4187H55.4417H54.9766V59.7674ZM58.6046 59.7674V61.1163H59.0696H59.5347V59.7674V58.4187H59.0696H58.6046V59.7674ZM60.7713 58.5131C60.4086 58.694 60.279 58.901 60.279 59.2985C60.279 59.6401 60.5369 60.0931 60.7313 60.0931C60.8798 60.0931 60.8313 60.2525 60.5625 60.648C60.4066 60.8779 60.279 61.0771 60.279 61.091C60.279 61.1049 60.4877 61.1163 60.743 61.1163C61.2682 61.1163 61.1998 61.1622 61.5024 60.6061C61.7331 60.1821 61.7673 60.1935 61.7673 60.6937V61.1163H62.2323H62.6974V59.7674V58.4187L61.8255 58.4204C61.0558 58.422 60.9319 58.433 60.7713 58.5131ZM41.6193 59.1647C42.0669 59.5818 41.8532 60.4651 41.3046 60.4651C40.75 60.4651 40.5307 59.5882 40.9803 59.1693C41.1262 59.0335 41.4756 59.0309 41.6193 59.1647ZM61.7673 59.3488V59.6278H61.5782C61.3364 59.6278 61.2276 59.5683 61.189 59.4148C61.1348 59.1985 61.2642 59.0696 61.5358 59.0696H61.7673V59.3488ZM52.9904 59.2166C53.5203 59.5003 53.3346 60.372 52.744 60.372C52.1587 60.372 51.9694 59.5188 52.4881 59.2194C52.609 59.1496 52.8626 59.1482 52.9904 59.2166Z" fill="#8489A8"/>
</svg>
