<svg width="150" height="44" viewBox="0 0 150 44" fill="none" xmlns="http://www.w3.org/2000/svg">
<path fill-rule="evenodd" clip-rule="evenodd" d="M27.4394 1.8701C27.4308 4.13345 27.4323 9.91296 27.4416 10.0736L27.4483 10.1892L30.3472 12.214C37.5879 17.2715 37.4262 17.1589 37.4575 17.1552C37.4824 17.1525 37.488 17.1458 37.4936 17.1112C37.51 17.009 37.5048 7.12366 37.4884 7.07483C37.4623 6.99767 37.8597 7.28283 33.7188 4.37014C32.8078 3.72938 29.9566 1.72733 28.4387 0.66238C27.6627 0.11779 27.4878 0 27.4558 0C27.4506 0 27.4435 0.826391 27.4394 1.8701ZM18.6711 6.03224C18.6003 6.07772 15.5076 8.23968 12.5957 10.2794C11.6828 10.9186 11.499 11.0528 11.499 11.0804C11.499 11.0976 11.7178 11.2534 13.0075 12.1562C13.7281 12.6601 14.8657 13.4571 15.5359 13.9268C16.2061 14.396 17.245 15.1229 17.8444 15.5415C19.1363 16.4436 23.2306 19.3085 24.7597 20.3802C25.3538 20.7966 25.8537 21.1402 25.8708 21.144C25.8884 21.1477 25.9133 21.154 25.9264 21.1578L25.9506 21.1645V16.0753V10.9857L25.8995 10.9436C25.8716 10.9201 25.4403 10.6171 24.9412 10.2697C24.4425 9.92228 22.8724 8.82863 21.4526 7.83972C19.0614 6.17426 18.7804 5.98043 18.7591 5.98043C18.755 5.98043 18.7155 6.00354 18.6711 6.03224ZM10.071 12.0492C9.98155 12.1055 9.37583 12.5289 5.93756 14.9403C5.00158 15.5967 3.88296 16.3798 3.45168 16.681C2.30771 17.4802 1.14062 18.2958 0.558382 18.7025C0.2777 18.8981 0.0372752 19.0707 0.0242289 19.0856L0 19.1125V24.1312C0 26.8918 0.00260926 29.1503 0.00596403 29.1503C0.0529308 29.1503 0.206132 29.0448 3.12813 26.9988C4.32765 26.1586 5.96627 25.0124 6.76955 24.4514C7.57245 23.89 9.05601 22.8538 10.0658 22.1482C12.1856 20.6669 13.6781 19.625 15.7775 18.1608C17.4575 16.9893 17.3721 17.0553 17.3057 16.9796C17.2592 16.9267 10.2246 12.0034 10.1847 11.9959C10.1709 11.9933 10.1273 12.0134 10.071 12.0492ZM27.4319 12.085C27.4166 12.1256 27.4178 22.1724 27.4334 22.2238C27.4461 22.266 26.9485 21.9163 34.941 27.4994C36.3448 28.4801 37.4522 29.2469 37.4649 29.2465C37.4772 29.2465 37.4932 29.2428 37.5011 29.2379C37.5119 29.2308 37.5145 28.2512 37.5149 24.1677V19.1061L37.469 19.0659C37.444 19.0439 37.2081 18.875 36.9453 18.6905C36.6825 18.506 35.839 17.9133 35.0715 17.3732C34.304 16.8331 33.2144 16.0675 32.6505 15.672C32.0865 15.2761 30.9436 14.4736 30.1113 13.888C29.2785 13.3024 28.3772 12.6698 28.1088 12.482C27.8401 12.2941 27.5956 12.1219 27.5654 12.0988C27.4979 12.0477 27.4483 12.0425 27.4319 12.085ZM67.9098 16.3746C65.97 16.3795 64.3325 16.3877 64.2714 16.3921L64.1599 16.4003L64.1014 16.5077C63.9892 16.7142 63.3182 17.9853 62.1922 20.126C61.5678 21.3128 60.9036 22.5739 60.7161 22.9283C60.5286 23.2825 60.1737 23.9564 59.9269 24.4261C59.4927 25.2532 59.1181 25.9614 58.9433 26.285L58.8583 26.4423L58.7707 26.4501C58.5988 26.4654 56.3742 26.4438 56.3511 26.4266C56.3306 26.4117 56.3303 26.3442 56.3243 21.4273C56.3209 18.686 56.3146 16.4305 56.3098 16.4149C56.2967 16.3716 56.5737 16.3739 51.196 16.3735C46.134 16.3735 46.0923 16.3739 46.0781 16.4111C46.0647 16.4454 46.0699 43.899 46.0833 43.9512L46.0952 43.9989H51.1322C56.0429 43.9989 56.277 43.9974 56.3079 43.9664C56.3161 43.9582 56.3209 42.5123 56.3247 39.0103C56.3299 34.276 56.331 34.0654 56.3493 34.052C56.3877 34.0237 58.7025 34.0129 58.7651 34.0404C58.7845 34.0486 59.1561 34.6659 60.3105 36.6068C60.6445 37.1678 61.0758 37.8902 61.2692 38.2119C61.4623 38.534 61.8984 39.2634 62.2384 39.8334C62.578 40.4029 63.0983 41.2752 63.395 41.7713C63.6914 42.2671 64.0365 42.8471 64.1625 43.0595C64.4007 43.4629 64.6057 43.8024 64.6855 43.9269L64.7321 44L70.355 43.9966C76.1584 43.9937 76.0373 43.9944 76.0373 43.9568C76.0373 43.9486 76.3511 44.479 73.3639 39.436C72.911 38.6711 72.0388 37.1977 71.426 36.1614C70.4829 34.5664 68.1771 30.6737 67.5575 29.6304L67.3745 29.3218L69.141 26.5116C74.4412 18.0811 75.4793 16.4283 75.4793 16.4179C75.4793 16.3597 74.8616 16.3564 67.9098 16.3746ZM113.662 16.3735C111.821 16.378 111.392 16.3813 111.38 16.3929C111.364 16.4089 111.354 43.8543 111.37 43.9307C111.385 44.0026 111.039 43.9974 115.914 43.9981C120.476 43.9989 120.459 43.9989 120.496 43.962C120.5 43.9579 120.506 41.3397 120.509 38.1441C120.514 32.7768 120.516 32.3336 120.532 32.3306C120.558 32.3254 120.586 32.3996 120.856 33.1924C121.229 34.2857 121.291 34.4669 121.946 36.3493C122.722 38.5821 123.019 39.4398 123.591 41.0981C124.115 42.6156 124.084 42.5347 124.127 42.4892C124.137 42.4781 124.437 41.8917 124.793 41.1861C125.545 39.6943 125.899 38.9966 126.945 36.9397C127.366 36.1129 127.942 34.9798 128.226 34.4218C128.509 33.8638 128.905 33.0858 129.104 32.6933C129.304 32.3004 129.476 31.9612 129.487 31.9396C129.518 31.8762 129.513 31.7875 129.472 31.6932C129.454 31.6496 129.426 31.5754 129.409 31.5285C129.393 31.4811 129.034 30.5414 128.612 29.4399C127.532 26.6245 125.862 22.2559 125.233 20.5983C125.078 20.1908 124.776 19.401 124.562 18.843C124.348 18.285 124.065 17.548 123.934 17.2055C123.633 16.4197 123.64 16.435 123.594 16.3955L123.557 16.3627L119.744 16.3653C117.646 16.3668 114.909 16.3705 113.662 16.3735ZM79.6235 16.3873C79.6079 16.3955 79.5941 16.4141 79.59 16.4328C79.5773 16.4913 79.5795 43.8639 79.5918 43.9225C79.5985 43.953 79.6112 43.9795 79.6217 43.9847C79.6496 43.9985 98.8941 44.0022 99.1158 43.9884C99.5415 43.962 99.7573 43.9441 99.8837 43.9247C99.9575 43.9135 100.151 43.8844 100.313 43.8598C102.169 43.5799 103.982 42.5992 105.117 41.261C105.943 40.2878 106.351 39.6217 106.772 38.5545C107.09 37.7493 107.361 36.5506 107.41 35.7316C107.416 35.6343 107.429 35.4435 107.438 35.3078C107.523 34.1236 107.272 32.5088 106.819 31.3071C105.689 28.3135 103.292 26.3871 100.088 25.8977C99.8941 25.8682 99.7223 25.8503 99.3201 25.819L98.8799 25.7847L94.2559 25.7791C91.7126 25.7762 89.6278 25.7695 89.623 25.7646C89.6032 25.7449 89.6054 22.9455 89.6252 22.8721L89.6431 22.805L96.4894 22.8027C104.787 22.8001 104.086 22.8031 104.133 22.774C104.149 22.7643 104.147 16.4033 104.132 16.3877C104.116 16.372 79.6548 16.3716 79.6235 16.3873ZM139.628 16.3873L139.599 16.3992V30.134C139.599 44.2292 139.598 43.9642 139.64 43.9847C139.671 44 148.955 44.0007 149.031 43.9855L149.096 43.972V30.1843C149.096 22.6011 149.091 16.3929 149.087 16.3877C149.072 16.3735 139.664 16.3731 139.628 16.3873ZM137.755 18.4378C137.722 18.4959 137.35 19.2448 135.599 22.7833C135.037 23.9202 134.285 25.4373 133.93 26.1545C133.574 26.8721 132.982 28.0678 132.615 28.8119C131.838 30.3837 131.519 31.0275 130.51 33.0582C130.104 33.8761 129.604 34.8858 129.399 35.3022C129.073 35.9635 128.265 37.5969 127.225 39.6988C127.052 40.0473 126.592 40.9751 126.203 41.7605C125.177 43.8256 125.124 43.9374 125.155 43.9679C125.161 43.9739 125.201 43.984 125.245 43.9903C125.33 44.0026 133.998 43.9918 134.547 43.9791L134.837 43.972L135.066 43.5158C135.948 41.7534 137.888 37.8377 137.911 37.7717L137.94 37.6912L137.938 36.4779C137.937 35.8106 137.928 33.8201 137.919 32.0544C137.91 30.2887 137.895 27.455 137.887 25.7575C137.847 18.017 137.85 18.4065 137.825 18.3901C137.798 18.3733 137.786 18.3819 137.755 18.4378ZM27.4595 24.167C27.4435 24.2158 27.4427 24.6341 27.4539 29.6897C27.4666 35.4092 27.4673 35.2493 27.4267 35.2899C27.423 35.2936 23.5997 35.2981 18.9306 35.2996C9.73814 35.303 10.3398 35.2981 10.3193 35.3671C10.3014 35.4263 10.323 43.8196 10.3413 43.9266L10.3536 43.9989L23.8293 43.9981C36.5655 43.9974 37.4672 43.9959 37.4891 43.9739C37.5111 43.9519 37.4996 31.1438 37.4776 31.1151C37.4407 31.0666 37.3583 31.0074 36.435 30.3632C35.9333 30.0132 34.991 29.3538 34.3413 28.898C32.927 27.9057 31.9094 27.193 30.052 25.8954C27.8882 24.3836 27.603 24.1853 27.5378 24.1487L27.477 24.1141L27.4595 24.167ZM8.6102 24.9874C8.53676 25.0366 8.30752 25.1947 8.10102 25.3386C7.45355 25.7892 4.84652 27.6097 3.02786 28.8804C2.06803 29.551 1.015 30.2872 0.686982 30.5161C0.0298202 30.9749 0.0253471 30.9787 0.0160283 31.0435C-0.00260926 31.1773 0.0160283 43.9445 0.0354114 43.9638C0.0562855 43.9847 8.7798 43.9948 8.80067 43.9739C8.82341 43.9512 8.80067 25.0087 8.77756 24.9419C8.75892 24.8886 8.75669 24.8894 8.6102 24.9874ZM94.3651 31.9068C94.4628 31.9195 94.6126 31.94 94.698 31.9523C96.1614 32.1655 96.7645 32.9457 96.7645 34.626C96.7645 36.3869 95.9415 37.2461 94.0721 37.4355C93.8843 37.4545 90.2033 37.4713 89.7937 37.4549L89.6084 37.4474L89.6095 34.7241C89.6107 31.7447 89.6077 31.8964 89.6625 31.8867C89.7821 31.8651 94.1881 31.8841 94.3651 31.9068Z" fill="#8489A8"/>
</svg>
