<svg width="187" height="48" viewBox="0 0 187 48" fill="none" xmlns="http://www.w3.org/2000/svg">
<path fill-rule="evenodd" clip-rule="evenodd" d="M0 1.57658V3.15269H93.2609H186.522V1.57658V0H93.2609H0V1.57658ZM47.3299 6.70406C47.3299 6.80059 47.4992 7.0398 47.627 7.12327C48.1124 7.44082 48.7335 7.2557 48.885 6.74883C48.927 6.60847 48.5502 6.61593 48.4579 6.75722C48.3218 6.96426 47.9212 6.96333 47.785 6.75582C47.717 6.6523 47.3299 6.60847 47.3299 6.70406ZM13.8325 9.0146V10.6206L14.8639 10.6117C16.4344 10.5982 16.8756 10.3566 16.7711 9.56764C16.6839 8.90968 16.35 8.69751 15.32 8.64389L14.8569 8.61964V8.34919V8.07873H15.6846H16.5123V7.74392V7.40865H15.1726H13.8325V9.0146ZM16.9851 7.44828C16.9851 7.48419 17.3703 8.33939 17.8016 9.26128C17.8777 9.42355 17.9555 9.59748 17.9751 9.64784C18.0539 9.85442 17.8282 9.99524 17.4762 9.95887L17.2612 9.93649V10.2788C17.2612 10.6714 17.1987 10.6289 17.7933 10.6401C18.1766 10.6467 18.1943 10.6443 18.4106 10.5483C18.5869 10.4704 18.683 10.3398 18.842 9.964C18.9091 9.80499 19.0066 9.58116 19.0583 9.46692C19.1101 9.35221 19.1525 9.25102 19.1525 9.24123C19.1525 9.2319 19.195 9.13024 19.2472 9.016C19.4514 8.56555 19.9014 7.48699 19.9014 7.44782C19.9014 7.42077 19.7312 7.41005 19.3992 7.41751L18.8965 7.4287L18.6923 8.03956C18.5799 8.3753 18.4862 8.65928 18.4839 8.67C18.4811 8.68073 18.385 8.40607 18.2698 8.05914L18.0609 7.4287L17.5228 7.41751C17.1665 7.41051 16.9851 7.42077 16.9851 7.44828ZM20.5612 8.08852C20.5417 8.74321 20.4521 9.3648 20.3248 9.72432C20.2833 9.84183 20.2661 9.85208 20.1103 9.85208H19.9411V10.5814V11.3102H20.3533H20.7655L20.7767 10.9656L20.7883 10.6206H21.7732H22.7585L22.7701 10.9656L22.7813 11.3102H23.1739H23.5666V10.5814V9.85208H23.3889H23.2117V8.63037V7.40865H21.8967H20.5813L20.5612 8.08852ZM23.9606 9.00155V10.5963L24.4581 10.6084C24.7659 10.6159 24.9618 10.6056 24.9711 10.5814C24.9795 10.5595 24.9813 9.84136 24.9757 8.98522L24.9655 7.4287L24.4628 7.41751L23.9606 7.40632V9.00155ZM25.6552 9.0146V10.6206L26.7486 10.5977C27.9032 10.573 28.0566 10.5511 28.286 10.3781C28.7192 10.0512 28.66 9.2347 28.1863 9.00667C27.9881 8.91108 27.9876 8.90875 28.1494 8.80803C28.508 8.5842 28.5453 8.00412 28.2212 7.68004C27.9801 7.43896 27.8057 7.40865 26.653 7.40865H25.6552V9.0146ZM29.0839 9.0146V10.6206L30.4236 10.6098L31.7633 10.5991V10.2452V9.89172H30.916H30.0687V9.5765V9.26128H30.8391H31.6089L31.5977 8.9358L31.5861 8.61078L30.8274 8.60006L30.0687 8.58933V8.35245V8.1151L30.8964 8.12676L31.7241 8.13795V7.7733V7.40865H30.404H29.0839V9.0146ZM32.4334 8.58513C32.4334 9.91131 32.4445 9.86374 32.127 9.91457L31.9605 9.94115V10.2708V10.601H32.3695C33.3063 10.601 33.4 10.4727 33.442 9.13258L33.4699 8.23634H33.8187H34.1675V9.41656V10.5968L34.68 10.6084L35.192 10.6206V9.0146V7.40865H33.8127H32.4334V8.58513ZM35.8225 9.0146V10.6206L36.9159 10.601C38.4221 10.5739 38.7387 10.4177 38.7387 9.701C38.7387 8.96051 38.3778 8.69705 37.2904 8.64389L36.8078 8.62011V8.01438V7.40865H36.3153H35.8225V9.0146ZM39.2381 7.43523C39.2223 7.45108 39.2111 8.16966 39.213 9.03232L39.2167 10.601H39.7268H40.2365V9.97053V9.34008H40.7485H41.261V9.9682V10.5968L41.7734 10.6084L42.2859 10.6206V9.0146L42.2854 7.40865H41.7734H41.261V7.96075V8.51239H40.7499H40.2388L40.2276 7.97055L40.2169 7.4287L39.7417 7.41751C39.4801 7.41145 39.2535 7.41937 39.2381 7.43523ZM42.9164 9.0146L42.9159 10.6206H43.3794H43.8424L43.9996 10.3841C44.0863 10.254 44.1665 10.1389 44.1786 10.1281C44.2006 10.1076 44.5964 9.52427 44.845 9.1461L44.9853 8.93253L44.9956 9.76442L45.0063 10.5963L45.4787 10.6084L45.9506 10.6206V9.0146V7.40865H45.4931C45.0618 7.40865 45.032 7.41424 44.9639 7.50004C44.9009 7.58071 44.6967 7.87868 44.022 8.87704L43.8424 9.14284L43.8317 8.27597L43.821 7.40865H43.3687H42.9164V9.0146ZM46.581 9.0146V10.6206H47.0487H47.516L47.7678 10.2475C47.9063 10.0423 48.0415 9.84696 48.0681 9.81385C48.0951 9.78074 48.1837 9.65391 48.2653 9.5322C48.3469 9.41049 48.4756 9.21931 48.5516 9.1074L48.6897 8.90409L48.7004 9.75043L48.7107 10.5963L49.1634 10.6084L49.6157 10.6206V9.0146V7.40865L49.1527 7.40911L48.6897 7.41005L48.4323 7.79335C48.2905 8.00459 48.0336 8.38509 47.8606 8.63876L47.5468 9.1004L47.536 8.25452L47.5253 7.40865H47.0534H46.581V9.0146ZM27.2592 8.12023C27.6994 8.27364 27.4532 8.67 26.9184 8.67H26.6405V8.37437V8.07873H26.8909C27.0284 8.07873 27.1944 8.09738 27.2592 8.12023ZM22.2264 9.04445V9.85208H21.7391H21.2514L21.2859 9.6651C21.305 9.56204 21.3381 9.42682 21.3591 9.3648C21.3805 9.30278 21.3913 9.24076 21.3829 9.22677C21.3745 9.21325 21.3913 9.06916 21.4206 8.90642C21.45 8.74368 21.4747 8.52638 21.4757 8.42379L21.478 8.23634H21.852H22.2264V9.04445ZM15.6683 9.39744C15.9756 9.59888 15.7061 9.89172 15.2137 9.89172H14.8569V9.59002V9.28879L15.2151 9.3121C15.4407 9.32656 15.6086 9.35827 15.6683 9.39744ZM27.5143 9.41702C27.7321 9.68655 27.5143 9.89172 27.0102 9.89172H26.6405V9.59235V9.29299L27.0382 9.30651C27.4047 9.3191 27.4416 9.32749 27.5143 9.41702ZM37.4755 9.33775C38.0299 9.44453 37.7893 9.89172 37.1766 9.89172H36.8078V9.59608V9.30045L37.054 9.30231C37.1897 9.30324 37.379 9.3191 37.4755 9.33775ZM126.187 9.33635C125.218 9.47484 124.514 9.97193 124.14 10.7796C123.978 11.1302 123.957 11.0939 124.366 11.1755C124.394 11.1811 124.5 11.2053 124.602 11.2295C125.46 11.4338 125.454 11.4333 125.496 11.271C125.56 11.0174 125.947 10.6779 126.241 10.6164C127.442 10.365 128.169 11.3181 127.34 12.0572C127.046 12.3193 126.834 12.3837 126.318 12.3673L125.92 12.3547L125.849 12.67C125.81 12.8434 125.774 13.0276 125.768 13.0794C125.762 13.1311 125.739 13.2267 125.716 13.292C125.627 13.5489 125.65 13.5849 125.893 13.5648C126.65 13.5019 127.251 13.9304 127.251 14.5324C127.251 15.7998 124.826 16.0166 124.493 14.7791C124.469 14.6919 124.446 14.621 124.442 14.621C124.437 14.6214 124.345 14.649 124.236 14.683C124.128 14.7166 124.013 14.7515 123.98 14.7604C122.94 15.0416 122.951 15.0341 123.102 15.4254C123.315 15.9789 123.677 16.3608 124.217 16.6014C124.421 16.6928 124.534 16.7259 124.973 16.8252C125.477 16.939 126.603 16.8583 127.132 16.6704C128.902 16.0409 129.365 14.123 127.964 13.23C127.725 13.077 127.717 13.0668 127.806 13.0341C129.849 12.2871 129.692 9.964 127.561 9.39744C127.306 9.32936 126.488 9.29299 126.187 9.33635ZM133.916 9.56671C133.844 9.84882 133.78 10.1482 133.766 10.2662C133.759 10.331 133.737 10.4373 133.718 10.5026C133.698 10.5674 133.662 10.7357 133.637 10.877C133.612 11.0178 133.575 11.195 133.556 11.271C133.536 11.3471 133.509 11.48 133.495 11.5667C133.481 11.6534 133.463 11.7341 133.456 11.7467C133.448 11.7593 133.424 11.8744 133.402 12.0027C133.38 12.1314 133.334 12.3608 133.3 12.5124C133.266 12.6639 133.231 12.8327 133.222 12.8868C133.213 12.9409 133.151 13.2421 133.085 13.5564C133.019 13.8707 132.955 14.1813 132.943 14.2461C132.932 14.3114 132.906 14.4265 132.887 14.5025C132.867 14.5781 132.831 14.7557 132.806 14.8966C132.781 15.0374 132.745 15.2057 132.726 15.271C132.707 15.3358 132.682 15.4585 132.672 15.5433C132.661 15.6277 132.635 15.7518 132.615 15.8189C132.595 15.8861 132.556 16.0651 132.53 16.2167C132.504 16.3682 132.468 16.5501 132.451 16.6205L132.42 16.7487H133.165H133.91L133.932 16.6405C133.944 16.5809 133.972 16.4648 133.994 16.3827C134.015 16.3001 134.04 16.1817 134.048 16.1188C134.064 15.9947 134.199 15.3358 134.286 14.9558C134.317 14.8257 134.361 14.6126 134.385 14.483C134.41 14.3529 134.445 14.1752 134.465 14.0885C134.484 14.0017 134.52 13.8292 134.547 13.7042L134.594 13.4776H136.01H137.427L137.403 13.6058C137.39 13.6762 137.371 13.7784 137.361 13.8325C137.351 13.8866 137.325 14.0017 137.305 14.0885C137.284 14.1752 137.247 14.3529 137.222 14.483C137.197 14.6126 137.16 14.7823 137.141 14.8593C137.121 14.9362 137.096 15.0654 137.086 15.146C137.075 15.2267 137.059 15.3069 137.048 15.3242C137.037 15.3414 137.01 15.4608 136.988 15.589C136.966 15.7177 136.921 15.9467 136.887 16.0987C136.853 16.2503 136.818 16.4274 136.81 16.4927C136.801 16.5575 136.782 16.6419 136.767 16.6797C136.742 16.7441 136.792 16.7487 137.492 16.7487H138.244L138.268 16.6405C138.281 16.5809 138.307 16.4522 138.327 16.3547C138.371 16.1351 138.475 15.6394 138.521 15.4286C138.541 15.3419 138.577 15.1558 138.602 15.0145C138.627 14.8737 138.665 14.7026 138.685 14.6345C138.706 14.5664 138.737 14.4242 138.755 14.3193C138.811 13.9999 138.917 13.4664 138.956 13.32C138.975 13.2445 139.037 12.9516 139.092 12.67C139.147 12.3883 139.219 12.0423 139.252 11.9015C139.299 11.6991 139.473 10.8486 139.569 10.345C139.578 10.3016 139.602 10.186 139.624 10.0885C139.645 9.99104 139.681 9.8283 139.703 9.72618C139.776 9.39417 139.83 9.41889 139.018 9.41889H138.292L138.248 9.55085C138.224 9.6236 138.197 9.73411 138.188 9.79706C138.179 9.86001 138.117 10.1682 138.05 10.4825C137.984 10.7968 137.923 11.0897 137.914 11.133C137.906 11.1764 137.853 11.4375 137.797 11.7131C137.74 11.9887 137.694 12.2237 137.694 12.2354C137.694 12.2466 137.054 12.2564 136.272 12.2564H134.851L134.875 12.1281C134.888 12.0577 134.915 11.929 134.934 11.8423C134.953 11.7555 134.989 11.5783 135.013 11.4482C135.038 11.3181 135.082 11.1055 135.112 10.9754C135.143 10.8453 135.205 10.5436 135.251 10.3053C135.297 10.0671 135.358 9.77934 135.385 9.66603C135.452 9.40024 135.505 9.41889 134.674 9.41889H133.953L133.916 9.56671ZM143.273 9.4879C143.246 9.55831 142.816 10.3291 142.437 10.9875C142.321 11.189 142.226 11.3606 142.226 11.3685C142.226 11.383 141.9 11.9542 141.831 12.0591C141.81 12.0917 141.777 12.1538 141.758 12.1971C141.739 12.2405 141.633 12.4335 141.522 12.6261C141.411 12.8192 141.32 12.9815 141.32 12.9875C141.32 12.9936 141.24 13.1335 141.142 13.2985C141.045 13.4631 140.965 13.6086 140.965 13.6212C140.965 13.6338 140.877 13.791 140.768 13.9705C140.66 14.15 140.571 14.3062 140.571 14.3174C140.571 14.3291 140.492 14.4732 140.394 14.6382C140.296 14.8033 140.216 14.9437 140.216 14.9502C140.216 14.9567 140.092 15.1796 139.941 15.4454C139.789 15.7112 139.665 15.9346 139.665 15.9416C139.665 15.9486 139.585 16.0889 139.488 16.254C139.39 16.4191 139.31 16.5655 139.31 16.5795C139.31 16.593 139.281 16.6373 139.244 16.6774C139.18 16.7483 139.202 16.7501 139.982 16.7399L140.786 16.7291L140.939 16.4531C141.024 16.3015 141.208 15.9644 141.349 15.7042C141.49 15.4445 141.623 15.2095 141.645 15.1824C141.675 15.1446 142.017 15.133 143.112 15.133H144.54L144.588 15.4384C144.672 15.9817 144.705 16.2125 144.728 16.4242C144.767 16.772 144.713 16.7487 145.482 16.7487C145.859 16.7487 146.167 16.7427 146.167 16.7357C146.167 16.7282 146.14 16.5464 146.108 16.3314C146.075 16.1169 146.03 15.8143 146.007 15.6594C145.986 15.5051 145.952 15.3246 145.933 15.2584C145.914 15.1927 145.907 15.1302 145.918 15.1195C145.929 15.1087 145.911 14.9698 145.878 14.8112C145.822 14.5384 145.791 14.3454 145.692 13.6651C145.669 13.5079 145.626 13.2375 145.596 13.064C145.566 12.8905 145.522 12.6159 145.499 12.4531C145.437 12.0358 145.384 11.6977 145.32 11.3102C145.228 10.7572 145.186 10.4849 145.121 10.0297C145.087 9.791 145.05 9.55598 145.038 9.50749C145.007 9.38391 143.319 9.36526 143.273 9.4879ZM148.63 9.46785C148.621 9.4949 148.586 9.65903 148.553 9.8325C148.458 10.3291 148.411 10.5632 148.353 10.8178C148.324 10.9479 148.262 11.258 148.216 11.5075C148.171 11.7565 148.109 12.0582 148.079 12.1775C148.018 12.4163 147.862 13.195 147.84 13.3755C147.831 13.438 147.808 13.5443 147.788 13.6119C147.768 13.679 147.73 13.8492 147.705 13.9901C147.68 14.1309 147.639 14.3351 147.615 14.4433C147.591 14.5515 147.568 14.6671 147.564 14.6993C147.556 14.7627 147.29 16.0726 147.231 16.3351C147.212 16.4219 147.187 16.5501 147.176 16.6205L147.155 16.7487H147.821H148.489L148.53 16.6009C148.552 16.5198 148.571 16.4205 148.571 16.3799C148.571 16.3398 148.595 16.2069 148.625 16.0847C148.655 15.9621 148.7 15.7378 148.726 15.5862C148.752 15.4347 148.789 15.2304 148.808 15.133C148.841 14.966 148.913 14.5799 149.147 13.32C149.201 13.0276 149.26 12.7082 149.28 12.6107C149.299 12.5133 149.335 12.3184 149.359 12.1775C149.384 12.0363 149.429 11.8059 149.459 11.6651C149.488 11.5243 149.534 11.2846 149.559 11.133C149.649 10.6094 149.667 10.6028 149.671 11.0934C149.672 11.3536 149.7 12.0451 149.731 12.6303C149.81 14.0829 149.874 15.5643 149.873 15.921C149.873 16.0838 149.883 16.3365 149.897 16.4829L149.923 16.7487H150.622H151.321L151.488 16.3645C151.58 16.1533 151.668 15.9625 151.683 15.9411C151.699 15.9192 151.752 15.7951 151.803 15.665C151.854 15.5349 151.972 15.2631 152.066 15.0602C152.159 14.8579 152.236 14.6872 152.236 14.6811C152.236 14.6751 152.284 14.5655 152.342 14.4382C152.4 14.3109 152.45 14.198 152.454 14.1873C152.464 14.1547 152.588 13.8772 152.792 13.4296C152.898 13.1974 152.985 12.9987 152.985 12.9885C152.985 12.9787 153.056 12.8173 153.142 12.6303C153.229 12.4438 153.3 12.2848 153.3 12.2773C153.3 12.2694 153.38 12.0927 153.478 11.8838C153.575 11.6753 153.655 11.4953 153.655 11.4846C153.655 11.4431 153.943 10.8365 153.957 10.85C153.972 10.8658 153.945 11.0118 153.772 11.8227C153.706 12.137 153.644 12.4419 153.635 12.5007C153.627 12.5594 153.602 12.6746 153.58 12.7567C153.559 12.8392 153.521 13.0216 153.495 13.1624C153.471 13.3032 153.434 13.472 153.415 13.5368C153.396 13.6021 153.372 13.7243 153.361 13.8091C153.35 13.894 153.325 14.0181 153.305 14.0852C153.285 14.1519 153.248 14.3221 153.223 14.4629C153.198 14.6037 153.161 14.7814 153.142 14.8574C153.122 14.9334 153.095 15.0663 153.081 15.153C153.067 15.2393 153.05 15.3204 153.042 15.333C153.035 15.3452 153.01 15.4608 152.987 15.589C152.965 15.7177 152.927 15.9112 152.904 16.0199C152.881 16.1281 152.847 16.3053 152.828 16.4139C152.809 16.5221 152.782 16.6419 152.767 16.6797C152.742 16.7441 152.789 16.7487 153.434 16.7487C153.816 16.7487 154.128 16.7413 154.128 16.7319C154.128 16.69 154.328 15.5401 154.345 15.4878C154.355 15.4552 154.372 15.3507 154.385 15.2556C154.396 15.16 154.414 15.0691 154.424 15.0532C154.434 15.0369 154.459 14.911 154.48 14.773C154.522 14.4913 154.646 13.7863 154.74 13.2808C154.81 12.9101 154.849 12.6849 154.913 12.2811C154.937 12.1323 154.964 11.9985 154.973 11.9836C154.982 11.9682 155.026 11.7355 155.071 11.466C155.115 11.196 155.168 10.919 155.188 10.8504C155.208 10.7814 155.216 10.7171 155.206 10.7068C155.196 10.6966 155.213 10.5846 155.244 10.4573C155.293 10.2503 155.338 10.0125 155.409 9.56671L155.432 9.41889H154.351H153.269L153.101 9.80312C153.009 10.0144 152.885 10.2937 152.825 10.4238C152.765 10.5539 152.597 10.926 152.452 11.251C152.042 12.171 152.036 12.1855 151.939 12.3939C151.843 12.601 151.745 12.8196 151.469 13.4384C151.378 13.6445 151.242 13.9448 151.169 14.1062L151.034 14.4L151.008 14.2246C150.993 14.1281 150.98 13.8721 150.978 13.6553C150.977 13.4384 150.958 12.9152 150.937 12.4928C150.915 12.0698 150.879 11.3429 150.856 10.877C150.832 10.4107 150.802 9.89219 150.79 9.72432L150.767 9.41889H149.707C148.895 9.41889 148.643 9.43008 148.63 9.46785ZM157.142 9.52707C157.131 9.58676 157.105 9.71546 157.085 9.81292C157.064 9.91037 157.028 10.0964 157.004 10.2265C156.98 10.3566 156.935 10.5693 156.905 10.6994C156.875 10.8295 156.83 11.0426 156.806 11.1722C156.762 11.4058 156.752 11.459 156.634 11.9999C156.534 12.4569 156.41 13.0579 156.393 13.1624C156.385 13.2169 156.35 13.3853 156.316 13.5368C156.282 13.6888 156.238 13.9015 156.219 14.0097C156.181 14.2228 156.162 14.317 156.079 14.6797C156.049 14.8098 155.987 15.1115 155.941 15.3498C155.895 15.5881 155.841 15.8455 155.822 15.921C155.767 16.1379 155.665 16.6452 155.665 16.7002C155.665 16.7394 155.818 16.7483 156.362 16.7399L157.06 16.7291L157.318 16.427C157.46 16.2605 157.717 15.9593 157.889 15.7569C158.061 15.5545 158.214 15.3801 158.23 15.3689C158.246 15.3582 158.363 15.2234 158.489 15.07C158.615 14.9166 158.878 14.6089 159.074 14.3869C159.269 14.1645 159.497 13.9005 159.58 13.7994C159.663 13.6982 159.825 13.5093 159.941 13.3792C160.056 13.2491 160.232 13.0453 160.332 12.926C161.056 12.0652 161.011 12.1053 160.947 12.379C160.861 12.7432 160.736 13.3452 160.723 13.458C160.715 13.5233 160.693 13.6296 160.673 13.6944C160.654 13.7597 160.618 13.9281 160.593 14.0689C160.567 14.2097 160.531 14.3874 160.511 14.4629C160.492 14.5389 160.421 14.8761 160.354 15.2118C160.288 15.5475 160.217 15.8847 160.198 15.9607C160.178 16.0362 160.141 16.2139 160.116 16.3547C160.091 16.4955 160.062 16.6419 160.052 16.6797C160.035 16.7436 160.087 16.7487 160.738 16.7487H161.442L161.495 16.5025C161.524 16.3668 161.554 16.2209 161.56 16.1775C161.567 16.1341 161.6 15.9742 161.634 15.8226C161.669 15.6711 161.713 15.458 161.732 15.3498C161.751 15.2412 161.796 15.0197 161.831 14.8569C161.866 14.6947 161.911 14.4727 161.931 14.3645C161.951 14.2563 161.995 14.0432 162.029 13.8917C162.062 13.7397 162.098 13.5587 162.107 13.4888C162.116 13.4193 162.142 13.2953 162.163 13.2132C162.184 13.1311 162.223 12.9488 162.248 12.808C162.273 12.6672 162.309 12.4984 162.329 12.4335C162.348 12.3683 162.371 12.2619 162.378 12.1971C162.395 12.0605 162.518 11.445 162.693 10.6206C162.725 10.469 162.772 10.2382 162.797 10.1086C162.822 9.97845 162.865 9.77934 162.893 9.66603C162.959 9.40117 163.006 9.41889 162.236 9.41889H161.569L161.402 9.60588C161.175 9.85955 160.783 10.3133 160.473 10.6798C160.332 10.8467 160.057 11.1661 159.862 11.3904C159.667 11.6143 159.393 11.9318 159.253 12.0959C159.112 12.2601 158.978 12.4116 158.953 12.4335C158.929 12.455 158.777 12.6294 158.617 12.8201C157.866 13.7145 157.624 13.9873 157.654 13.9066C157.666 13.8768 157.681 13.7989 157.689 13.7341C157.702 13.6222 157.756 13.3587 157.972 12.3547C158.049 11.9957 158.199 11.2776 158.246 11.0346C158.253 11.002 158.289 10.8337 158.326 10.6602C158.363 10.4867 158.402 10.3007 158.412 10.2461C158.459 9.99384 158.544 9.58722 158.565 9.50749L158.59 9.41889H157.877H157.164L157.142 9.52707ZM62.0889 9.8381C62.0558 9.91737 62.0041 10.0545 61.9738 10.1435C61.9131 10.3212 61.7709 10.6938 61.7168 10.8178C61.6982 10.8612 61.6427 11.0029 61.5942 11.133C61.5452 11.2631 61.4832 11.4226 61.4557 11.4879C61.4286 11.5527 61.2785 11.943 61.1232 12.3547C60.9675 12.7665 60.8178 13.1568 60.7903 13.2216C60.7628 13.2869 60.7026 13.4417 60.656 13.5667C60.6093 13.6912 60.5333 13.8949 60.4867 14.0194C60.4401 14.1444 60.3799 14.2997 60.3524 14.3645C60.3249 14.4293 60.1132 14.9791 59.8814 15.5862C59.6497 16.1929 59.438 16.7427 59.4109 16.808C59.3834 16.8728 59.3233 17.028 59.2766 17.1526C59.23 17.2775 59.154 17.4813 59.1074 17.6058C59.0608 17.7303 59.0011 17.8856 58.974 17.9509C58.947 18.0157 58.885 18.1752 58.836 18.3053C58.787 18.4354 58.7255 18.5948 58.6989 18.6601C58.5744 18.9669 58.5096 19.1353 58.3035 19.6846C58.1813 20.0096 58.0591 20.329 58.0316 20.3938C58.0046 20.4591 57.944 20.6144 57.8973 20.7389C57.8507 20.8634 57.7747 21.0676 57.7281 21.1921C57.6814 21.3167 57.6217 21.4719 57.5947 21.5367C57.5676 21.602 57.5056 21.7615 57.4567 21.8916C57.4077 22.0217 57.3461 22.1812 57.3196 22.2465C57.1951 22.5533 57.1302 22.7216 56.9241 23.2709C56.8024 23.5959 56.6798 23.9154 56.6528 23.9802C56.6252 24.0455 56.5646 24.2003 56.518 24.3252C56.4714 24.4498 56.3954 24.6535 56.3487 24.7785C56.3021 24.903 56.2424 25.0583 56.2154 25.1231C56.1883 25.1879 56.1263 25.3479 56.0773 25.478C56.0284 25.6081 55.9659 25.7675 55.9384 25.8323C55.9113 25.8976 55.7616 26.2875 55.6059 26.6997C55.4502 27.1114 55.3005 27.5013 55.273 27.5665C55.2454 27.6313 55.1853 27.7866 55.1387 27.9111C55.092 28.0361 55.016 28.2399 54.9694 28.3644C54.9228 28.4889 54.8631 28.6442 54.836 28.7094C54.809 28.7743 54.747 28.9337 54.698 29.0638C54.649 29.1939 54.5866 29.3539 54.5595 29.4187C54.532 29.4835 54.3823 29.8738 54.2266 30.2856C54.0708 30.6973 53.9211 31.0876 53.8936 31.1529C53.8666 31.2177 53.806 31.373 53.7593 31.4975C53.7127 31.622 53.6367 31.8262 53.5901 31.9507C53.5439 32.0752 53.4837 32.2305 53.4567 32.2953C53.4297 32.3606 53.3676 32.5201 53.3187 32.6502C53.2697 32.7803 53.2082 32.9398 53.1816 33.005C53.0571 33.3119 52.9923 33.4802 52.7862 34.0295C52.6644 34.3545 52.5423 34.6739 52.5148 34.7388C52.4873 34.804 52.4266 34.9589 52.38 35.0838C52.3334 35.2083 52.2574 35.4121 52.2107 35.5371C52.1646 35.6616 52.1044 35.8169 52.0774 35.8817C52.0508 35.947 51.9883 36.1064 51.9393 36.2365C51.8904 36.3666 51.8279 36.5261 51.8004 36.5909C51.7276 36.7644 51.5588 37.2092 51.5318 37.3006C51.5047 37.3916 63.1801 37.3799 63.783 37.2885C64.4414 37.1883 64.5874 37.1621 64.6849 37.1248C64.7417 37.1034 64.7879 37.0927 64.7879 37.1015C64.7879 37.1104 64.8457 37.1001 64.9161 37.0787C64.9866 37.0572 65.1418 37.0129 65.2612 36.9808C66.3584 36.6837 67.9233 35.871 68.9259 35.0764C70.1108 34.1382 71.6267 32.5359 72.1774 31.6402C72.5323 31.0624 73.1427 29.8379 73.1427 29.7027C73.1427 29.6742 73.1576 29.6341 73.1758 29.6136C73.2024 29.5838 73.4253 29.0032 73.4397 28.9263C73.442 28.9151 73.5017 28.7234 73.5731 28.4996C73.644 28.2762 73.7064 28.0725 73.7111 28.0468C73.7162 28.0212 73.74 27.9289 73.7647 27.8421C73.8575 27.511 73.9778 27.0093 73.9942 26.8811C74.004 26.8079 74.0193 26.7351 74.0287 26.7202C74.051 26.6838 74.1499 26.1835 74.2077 25.8128C74.2329 25.65 74.2772 25.3842 74.3057 25.2215C74.3346 25.0592 74.377 24.7398 74.4003 24.5122C74.4232 24.2847 74.4605 23.927 74.4824 23.7172C74.5043 23.5078 74.522 23.235 74.522 23.1115C74.522 22.9161 74.5299 22.8932 74.5812 22.9361C74.6139 22.9627 74.6405 22.9995 74.6405 23.0177C74.6405 23.0359 74.6917 23.138 74.7547 23.2444C74.8177 23.3511 74.9268 23.5428 74.9976 23.6701C75.0681 23.7974 75.2798 24.1765 75.4677 24.5122C75.6561 24.8484 75.8682 25.2294 75.9396 25.3595C76.0109 25.4896 76.0823 25.6136 76.0981 25.6356C76.1135 25.657 76.1937 25.7988 76.2758 25.9508C76.3579 26.1023 76.5845 26.5104 76.7794 26.8573C76.9748 27.2037 77.173 27.5586 77.2201 27.6453C77.2667 27.7321 77.3865 27.9447 77.4858 28.1182C77.871 28.7915 78.1475 29.2853 78.1475 29.2993C78.1475 29.3072 78.2273 29.4485 78.3252 29.6136C78.4227 29.7787 78.5024 29.9209 78.5024 29.9302C78.5024 29.9396 78.5537 30.0347 78.6166 30.141C78.6796 30.2478 78.7887 30.439 78.8596 30.5663C78.93 30.694 79.145 31.0778 79.3361 31.4196C79.5278 31.7614 79.6845 32.0603 79.6845 32.0836C79.6845 32.1275 79.3515 32.7672 79.0927 33.2214C79.0121 33.3627 78.8619 33.6374 78.7584 33.8323C78.6549 34.0277 78.5392 34.2403 78.5015 34.3056C78.4637 34.3704 78.3574 34.5648 78.265 34.7378C78.1727 34.9104 78.0617 35.1141 78.0188 35.1911C77.9759 35.2676 77.8076 35.5781 77.6449 35.8817C77.4821 36.1852 77.3357 36.451 77.3194 36.473C77.2849 36.5191 76.847 37.3477 76.847 37.3664C76.847 37.3734 78.2944 37.3706 80.0636 37.3594L83.2797 37.3398L83.4713 36.9705C83.5767 36.7677 83.7371 36.466 83.8281 36.3009C83.919 36.1353 84.0547 35.8845 84.1298 35.7437C84.2044 35.6028 84.3457 35.337 84.4436 35.1528C84.5415 34.9682 84.6343 34.7999 84.6497 34.7784C84.6651 34.7565 84.7802 34.5438 84.9057 34.3056C85.1309 33.878 85.8271 32.5784 86.0994 32.079C86.1759 31.9377 86.3046 31.6985 86.3848 31.5469C86.465 31.3949 86.7126 30.9337 86.935 30.522C87.5529 29.3777 87.5781 29.3306 87.8224 28.8671C87.9483 28.6283 88.0635 28.4157 88.0789 28.3942C88.0943 28.3723 88.2183 28.142 88.3549 27.8818C88.4916 27.6216 88.6772 27.276 88.7676 27.1133C88.8576 26.9505 88.9812 26.7202 89.0418 26.6008C89.1542 26.3803 89.5925 25.5656 89.6569 25.4579C89.6764 25.4257 89.7231 25.3371 89.7609 25.2611C89.7986 25.1851 89.8896 25.0168 89.9628 24.8867C90.036 24.7566 90.2122 24.4283 90.354 24.1574C90.4957 23.8865 90.6249 23.6472 90.6412 23.6258C90.6571 23.6039 90.79 23.3558 90.9359 23.0737C91.0819 22.792 91.2325 22.5085 91.2707 22.4432C91.3444 22.3183 91.5076 22.0152 91.8331 21.3992C91.9418 21.1931 92.0439 21.007 92.0597 20.9851C92.0751 20.9637 92.2057 20.7202 92.3488 20.4451C92.4925 20.1695 92.6454 19.886 92.6888 19.8147C92.7326 19.7433 92.768 19.6711 92.768 19.6547C92.768 19.6384 91.391 19.6296 89.7082 19.6352L86.6483 19.6454L86.541 19.8422C86.4818 19.9508 86.216 20.4209 85.9493 20.8867C85.683 21.3526 85.421 21.8137 85.3669 21.9112C85.3123 22.0086 85.226 22.156 85.1743 22.2385C85.1225 22.3206 85.0633 22.4269 85.0428 22.475C85.0218 22.5225 84.9873 22.5883 84.9658 22.6204C84.9001 22.7193 84.5713 23.2919 84.5713 23.3073C84.5713 23.3222 83.9679 24.3705 83.9003 24.4731C83.8789 24.5052 83.849 24.5584 83.8341 24.591C83.8192 24.6237 83.7306 24.7794 83.6373 24.937C83.5441 25.0947 83.4681 25.2317 83.4681 25.2415C83.4681 25.2593 83.1454 25.823 83.0731 25.9312C83.0517 25.9634 83.0218 26.0165 83.0069 26.0492C82.992 26.0818 82.8586 26.3159 82.7103 26.57C82.5625 26.8242 82.3811 27.1427 82.3074 27.2784C82.1442 27.5791 82.1251 27.587 82.0239 27.3996C81.9801 27.318 81.8588 27.0914 81.7549 26.8965C81.6504 26.7015 81.5525 26.5239 81.5362 26.5024C81.5203 26.481 81.414 26.2856 81.3002 26.0688C81.1864 25.8524 81.0806 25.657 81.0643 25.6356C81.0484 25.6136 80.9645 25.463 80.8782 25.3003C80.6297 24.8317 80.4324 24.4712 80.2897 24.2245C80.217 24.0986 80.1573 23.9872 80.1573 23.9769C80.1573 23.9662 80.0804 23.8212 79.9862 23.6538C79.892 23.4864 79.7139 23.1581 79.5898 22.924C79.4658 22.6895 79.3161 22.4148 79.2569 22.3131C79.1977 22.2115 79.1184 22.066 79.0806 21.99C79.0433 21.9145 78.9957 21.8254 78.9757 21.7932C78.9552 21.7606 78.8521 21.5745 78.7463 21.3791C78.6409 21.1842 78.4236 20.7851 78.2641 20.4927C78.1042 20.1999 77.9358 19.8898 77.8901 19.803L77.8062 19.6454L71.1199 19.6352C66.9296 19.6291 64.4335 19.6114 64.4335 19.5881C64.4335 19.5675 64.4503 19.5097 64.4713 19.4598C64.5086 19.3694 64.6443 19.0098 64.7954 18.6009C64.8392 18.4815 64.9171 18.2777 64.9679 18.1476C65.0192 18.0175 65.1526 17.6632 65.2654 17.3596C65.666 16.2792 65.6506 16.3207 65.8376 15.8226C65.8781 15.7145 65.929 15.6123 65.9504 15.5965C66.0068 15.555 98.7978 15.5597 98.7978 15.6012C98.7978 15.6198 98.7004 15.8073 98.581 16.018C98.4621 16.2283 98.3642 16.4074 98.3642 16.4158C98.3642 16.4242 98.2844 16.5664 98.187 16.731C98.0895 16.8961 98.0098 17.036 98.0098 17.042C98.0098 17.0532 97.9408 17.1782 97.4013 18.1476C97.2324 18.4507 97.0315 18.8145 96.955 18.9553C96.8785 19.0966 96.7475 19.3302 96.664 19.4747C96.5806 19.6193 96.512 19.7457 96.512 19.755C96.512 19.7643 96.4215 19.9294 96.3106 20.1224C96.1996 20.315 96.0923 20.5085 96.0723 20.5519C96.0522 20.5948 96.014 20.6662 95.9879 20.7095C95.9613 20.7529 95.8527 20.9478 95.7463 21.1427C95.64 21.3381 95.4586 21.6631 95.343 21.865C95.2273 22.0674 95.1327 22.2395 95.1327 22.2479C95.1327 22.2623 94.7368 22.9706 94.6598 23.0937C94.6393 23.1259 94.5922 23.2145 94.5545 23.2905C94.5172 23.3665 94.4104 23.5586 94.3171 23.7177C94.2239 23.8767 94.1478 24.0147 94.1478 24.0249C94.1478 24.0352 94.0411 24.2278 93.911 24.453C93.7813 24.6782 93.6745 24.8708 93.6745 24.8806C93.6745 24.8909 93.5505 25.1161 93.399 25.3819C93.2469 25.6477 93.1229 25.8734 93.1229 25.8832C93.1229 25.893 93.0637 26.0007 92.9905 26.1229C92.9177 26.245 92.783 26.4866 92.6906 26.66C92.5983 26.8335 92.5097 26.993 92.4939 27.0149C92.4775 27.0363 92.3969 27.1781 92.3148 27.3301C92.0476 27.8211 91.9968 27.9144 91.7501 28.3625C91.6167 28.6055 91.4545 28.8941 91.3892 29.0046C91.3239 29.1151 91.2707 29.2121 91.2707 29.22C91.2707 29.228 91.1733 29.407 91.0539 29.6173C90.935 29.8281 90.8371 30.0062 90.8371 30.0132C90.8371 30.0202 90.7839 30.1168 90.7186 30.2273C90.6534 30.3382 90.4818 30.6451 90.3377 30.909C90.194 31.1729 90.0462 31.4425 90.0099 31.5073C89.9735 31.5726 89.8896 31.7232 89.8233 31.8421C89.7576 31.9615 89.5753 32.2897 89.4186 32.5714C89.2619 32.853 88.9961 33.3319 88.8282 33.6355C88.6604 33.9391 88.4738 34.2757 88.4142 34.3844C88.354 34.4926 88.2071 34.7583 88.0873 34.9752C87.9674 35.192 87.7954 35.5026 87.7049 35.6648C87.614 35.8276 87.5272 35.9871 87.5123 36.0197C87.4969 36.0523 87.4629 36.1144 87.4368 36.1577C87.3039 36.3778 86.7784 37.344 86.7784 37.3678C86.7784 37.3743 92.6925 37.3748 99.9212 37.3692L113.064 37.3594L113.054 34.757L113.044 32.154L111.399 32.1568L109.754 32.1592V20.9268V9.69447H85.9511H62.1486L62.0889 9.8381ZM143.976 11.2291C143.987 11.3466 144.014 11.5322 144.034 11.6422C144.055 11.7523 144.091 12.0017 144.116 12.1971C144.141 12.392 144.188 12.6909 144.221 12.8611C144.254 13.0309 144.273 13.1778 144.264 13.1876C144.254 13.1969 144.27 13.3149 144.299 13.4496C144.328 13.5844 144.352 13.7434 144.353 13.8031L144.354 13.9113H143.35C142.797 13.9113 142.345 13.9038 142.345 13.8949C142.345 13.8861 142.413 13.7579 142.496 13.6096C142.738 13.181 142.853 12.9703 143.044 12.6112C143.142 12.427 143.236 12.2582 143.252 12.2363C143.269 12.2149 143.348 12.0731 143.429 11.9211C143.792 11.2403 143.931 10.9917 143.943 11.0034C143.95 11.0104 143.965 11.112 143.976 11.2291ZM33.6159 12.0391C33.6159 12.3981 34.3466 12.7012 34.7374 12.5044C34.9523 12.3962 35.192 12.1067 35.192 11.9556C35.192 11.8675 34.7831 11.9561 34.6851 12.0656C34.5895 12.1729 34.5476 12.1906 34.3844 12.1906C34.2212 12.1906 34.1787 12.1729 34.0831 12.0656C33.9307 11.8954 33.6159 11.8777 33.6159 12.0391ZM13.32 12.7073C12.5124 12.8891 12.1575 13.3951 12.1575 14.3645C12.1575 15.4263 12.6979 15.9411 13.8129 15.9411C14.8886 15.9411 15.4104 15.4025 15.4076 14.2941C15.4053 13.0887 14.5412 12.4321 13.32 12.7073ZM23.1329 12.7068C22.3402 12.884 21.9499 13.4081 21.9513 14.2941C21.9527 15.3829 22.5262 15.9616 23.6029 15.9602C24.6666 15.9588 25.2415 15.3615 25.2341 14.2661C25.2266 13.1144 24.3197 12.4415 23.1329 12.7068ZM8.86678 13.1232V13.5172H9.35967H9.85208V14.7194V15.921H10.345H10.8374V14.7194V13.5172H11.3298H11.8227V13.1232V12.7292H10.345H8.86678V13.1232ZM15.921 14.3249V15.921H16.4335H16.946V15.3302V14.739L17.3102 14.7385C18.1868 14.7371 18.6042 14.4205 18.627 13.7392C18.6545 12.9129 18.3388 12.7287 16.8965 12.7287L15.921 12.7292V14.3249ZM19.1134 14.3249V15.921H19.6058H20.0987V14.7194V13.5172H20.8671H21.6356V13.1232V12.7292H20.3742H19.1134V14.3249ZM25.734 14.3249V15.921L26.5519 15.9196C27.4224 15.9182 28.0431 15.8576 28.2366 15.7546C28.806 15.4515 28.8298 14.5664 28.2753 14.2969L28.1005 14.212L28.2366 14.115C28.6698 13.8068 28.6176 13.1465 28.1373 12.857L27.9247 12.7292H26.8293H25.734V14.3249ZM29.1627 14.3249V15.921H29.6318H30.1014L30.2702 15.6748C30.363 15.5396 30.5793 15.2244 30.7509 14.9754C30.9225 14.7259 31.1011 14.4601 31.1473 14.3841L31.2317 14.2461L31.2419 15.0836L31.2527 15.921H31.7446H32.2366V14.3249V12.7292H31.747H31.2578L31.1464 12.9036C30.9295 13.2421 30.2156 14.2866 30.1624 14.3435C30.1163 14.3925 30.1084 14.2755 30.1084 13.5653V12.7292H29.6355H29.1627V14.3249ZM32.8274 14.3249V15.921L33.3105 15.9206L33.7931 15.9196L33.9703 15.6473C34.0678 15.4976 34.3252 15.1139 34.542 14.7949L34.936 14.2144L34.9467 15.0677L34.957 15.921H35.4294H35.9013V14.3249V12.7292H35.4354C34.8815 12.7292 34.984 12.6494 34.3909 13.5368C34.1591 13.8838 33.9297 14.2172 33.8812 14.2782L33.7931 14.3888L33.8043 13.5587L33.8159 12.7292H33.3217H32.8274V14.3249ZM37.9903 14.3249V15.921H39.2904H40.5909V16.2563V16.5911H40.9854H41.3794V15.8618V15.133H41.2218H41.0642V13.9309V12.7292H40.5517H40.0392V13.9113V15.0933H39.5072H38.9751V13.9113V12.7292H38.4827H37.9903V14.3249ZM41.7734 14.3249V15.921H43.1131H44.4533V15.5466V15.1726H43.6256H42.7979V14.877V14.5813H43.5468H44.2957V14.2461V13.9113H43.5468H42.7979V13.6553V13.3988H43.606H44.4137V13.064V12.7292H43.0935H41.7734V14.3249ZM44.9653 14.3249V15.921H45.4778H45.9902V15.271V14.6205H46.5022H47.0147V15.271V15.921H47.5272H48.0392V14.3249V12.7292H47.5272H47.0147V13.2808V13.8325H46.5022H45.9902V13.2808V12.7292H45.4778H44.9653V14.3249ZM48.4332 13.1232V13.5172H48.9261H49.4185V14.7194V15.921H49.931H50.4434V14.7194V13.5172H50.9359H51.4283V13.1232V12.7292H49.931H48.4332V13.1232ZM51.8228 14.3249V15.921H52.3348H52.8472V15.3302V14.739H53.2058C54.0247 14.739 54.4453 14.4666 54.5213 13.887C54.5852 13.4011 54.4182 13.0309 54.0526 12.8467L53.82 12.7292H52.8211H51.8228V14.3249ZM17.4141 13.4216C17.8315 13.5886 17.6939 14.0106 17.2076 14.0558L16.946 14.0805V13.7201V13.3596H17.1027C17.1889 13.3596 17.3293 13.3876 17.4141 13.4216ZM27.3199 13.4011C27.7876 13.5308 27.595 13.9355 27.0597 13.9472L26.7193 13.9546V13.6832C26.7193 13.534 26.7309 13.4002 26.7454 13.3857C26.7859 13.3456 27.1548 13.355 27.3199 13.4011ZM53.2576 13.403C53.7747 13.5466 53.5929 14.0689 53.0258 14.0689H52.8472V13.7145V13.3596H52.9755C53.0459 13.3601 53.1727 13.3792 53.2576 13.403ZM14.1407 13.5438C14.5552 13.8465 14.5067 14.8994 14.0679 15.1232C13.4837 15.4216 13.0155 14.8802 13.1549 14.067C13.2491 13.5158 13.7434 13.2538 14.1407 13.5438ZM23.9555 13.5531C24.3113 13.8063 24.3369 14.725 23.997 15.0327C23.3908 15.5802 22.6657 14.7282 23.0009 13.8628C23.1586 13.4562 23.6127 13.3088 23.9555 13.5531ZM27.5087 14.641C27.92 14.8537 27.6192 15.2118 27.0298 15.2118H26.7193V14.8966V14.5813H27.0559C27.2802 14.5813 27.4318 14.6014 27.5087 14.641ZM103.939 31.3595L103.913 32.0002H99.4241C96.9555 32.0002 94.9359 31.9904 94.9359 31.9792C94.9359 31.9675 95.0068 31.8328 95.0935 31.6798C95.1802 31.5269 95.2511 31.394 95.2511 31.3846C95.2511 31.3753 95.2926 31.3016 95.343 31.221C95.3933 31.1398 95.5025 30.9496 95.5855 30.798C95.8438 30.3243 96.6542 28.8768 96.7829 28.6582C96.851 28.5434 96.906 28.4432 96.906 28.4353C96.906 28.4273 96.9746 28.2996 97.0581 28.1513C97.1415 28.003 97.2586 27.7932 97.3183 27.6845C97.4344 27.4728 97.6615 27.0695 98.0448 26.3919C98.1772 26.1583 98.2854 25.9601 98.2854 25.9522C98.2854 25.9443 98.3656 25.8025 98.463 25.6374C98.5605 25.4724 98.6402 25.3311 98.6402 25.3227C98.6402 25.3147 98.7643 25.0905 98.9163 24.8247C99.0678 24.5589 99.1919 24.3336 99.1919 24.3234C99.1919 24.3136 99.2716 24.1742 99.3695 24.0133C99.467 23.8529 99.5467 23.7125 99.5467 23.7018C99.5467 23.6836 99.8624 23.1185 100.217 22.5025C100.297 22.3616 100.431 22.122 100.513 21.9704C100.595 21.8189 100.721 21.5918 100.794 21.4659C100.866 21.34 100.926 21.2299 100.926 21.2211C100.926 21.2127 100.982 21.1115 101.049 20.9968C101.193 20.7524 101.679 19.8837 101.892 19.4878C101.974 19.3358 102.054 19.194 102.069 19.1726C102.085 19.1507 102.156 19.0266 102.228 18.8965C102.299 18.7664 102.605 18.2167 102.908 17.6748C103.211 17.133 103.503 16.6098 103.557 16.5123C103.611 16.4149 103.72 16.2195 103.798 16.0787L103.941 15.8226L103.953 23.2709C103.959 27.3674 103.953 31.0074 103.939 31.3595ZM154.542 19.5456C154.412 19.5638 154.207 19.6072 154.089 19.6422C153.969 19.6771 153.845 19.7126 153.812 19.7214C152.967 19.9499 151.895 21.07 151.547 22.0889C150.79 24.3061 151.439 26.4073 153.044 26.9356C153.738 27.1646 154.89 27.1105 155.526 26.82C155.647 26.7645 155.754 26.7193 155.763 26.7193C155.837 26.7193 156.433 26.253 156.644 26.0301C157.064 25.5866 157.605 24.6545 157.466 24.6125C157.44 24.6046 157.356 24.5868 157.28 24.5729C157.205 24.5593 156.992 24.5202 156.808 24.4857C156.623 24.4512 156.426 24.4185 156.37 24.4129C156.313 24.4073 156.215 24.3915 156.153 24.3779C156.052 24.3556 156.033 24.3672 155.986 24.4819C155.614 25.3968 155.024 25.8254 154.173 25.7997C153.31 25.7731 152.709 25.0872 152.709 24.128V23.8818H153.864H155.019L155.165 23.2998C155.244 22.98 155.31 22.7048 155.31 22.689C155.31 22.6731 154.769 22.6601 154.108 22.6601C153.238 22.6601 152.906 22.6475 152.906 22.6153C152.906 22.5109 153.27 21.8147 153.439 21.5941C154.14 20.6839 155.662 20.5356 156.163 21.3288C156.242 21.4542 156.421 21.8897 156.415 21.941C156.401 22.046 156.459 22.0497 157.101 21.9872C157.99 21.9005 157.921 21.9429 157.817 21.5489C157.559 20.5752 157.066 19.9798 156.275 19.6869C155.894 19.5456 155.039 19.4761 154.542 19.5456ZM175.113 19.5298C173.599 19.7405 172.318 20.8741 171.933 22.3449C171.74 23.0835 171.732 23.1427 171.73 23.921C171.726 26.0035 172.69 27.0736 174.569 27.0736C176.038 27.0736 177.143 26.3416 177.791 24.937C177.962 24.5687 177.962 24.5598 177.803 24.537C177.732 24.5267 177.551 24.4973 177.399 24.4721C177.247 24.4465 177.044 24.418 176.948 24.4083C176.852 24.3989 176.701 24.3751 176.613 24.3551C176.434 24.315 176.425 24.3225 176.309 24.6209C175.778 25.9802 174.006 26.2404 173.401 25.0476C173.107 24.4703 173.104 23.2112 173.394 22.6689C173.42 22.6209 173.432 22.5813 173.422 22.5813C173.397 22.5813 173.496 22.3411 173.64 22.0562C174.433 20.4796 176.413 20.3355 176.849 21.8231L176.909 22.0301L177.055 22.0091C177.136 21.9979 177.308 21.9732 177.438 21.9541C177.568 21.935 177.688 21.9275 177.704 21.9373C177.734 21.9555 178.328 21.8818 178.354 21.8562C178.362 21.8482 178.33 21.6846 178.284 21.4924C177.954 20.128 176.644 19.3171 175.113 19.5298ZM124.536 19.7732C124.484 19.976 124.399 20.3794 124.391 20.4619C124.388 20.4992 124.366 20.6055 124.343 20.6983C124.321 20.7911 124.281 20.9735 124.256 21.1035C124.231 21.2336 124.195 21.402 124.176 21.478C124.142 21.6137 123.865 22.9599 123.84 23.1133C123.833 23.1567 123.771 23.4491 123.703 23.7634C123.635 24.0776 123.574 24.3793 123.566 24.4334C123.558 24.4875 123.534 24.6027 123.512 24.6894C123.491 24.7762 123.452 24.9627 123.427 25.1035C123.402 25.2443 123.365 25.4145 123.345 25.4812C123.325 25.5484 123.299 25.6724 123.289 25.7573C123.278 25.8421 123.254 25.9643 123.234 26.0296C123.214 26.0944 123.177 26.2721 123.151 26.4236C123.124 26.5752 123.089 26.758 123.071 26.8293L123.04 26.9594L125.155 26.9422C127.552 26.923 127.316 26.9319 127.625 26.8503C128.227 26.6913 128.617 26.4852 128.932 26.1592C129.111 25.9732 129.379 25.5712 129.379 25.4877C129.379 25.4584 129.394 25.4178 129.413 25.3968C129.553 25.2406 129.61 24.2138 129.501 23.8226C129.287 23.0606 128.734 22.5789 127.966 22.4847C127.887 22.475 127.672 22.4484 127.489 22.4255C127.305 22.4027 126.78 22.384 126.321 22.384H125.488L125.522 22.2166C125.541 22.1248 125.574 21.9606 125.594 21.852C125.664 21.4794 125.711 21.2607 125.751 21.1287C125.772 21.0555 125.788 20.9846 125.787 20.9711C125.771 20.8485 125.788 20.8471 127.658 20.8471H129.524L129.575 20.6205C129.603 20.496 129.626 20.3901 129.626 20.3854C129.626 20.3808 129.666 20.2213 129.714 20.031C129.762 19.8403 129.795 19.6715 129.785 19.6552C129.776 19.6389 128.6 19.6254 127.172 19.6254H124.574L124.536 19.7732ZM130.877 19.6375C130.877 19.6445 130.906 19.7471 130.943 19.8646C130.979 19.9826 131.012 20.0963 131.016 20.1182C131.021 20.1397 131.055 20.2465 131.093 20.3547C131.131 20.4628 131.176 20.6051 131.192 20.6699C131.209 20.7352 131.297 21.0187 131.387 21.3003C131.477 21.5824 131.557 21.8394 131.565 21.872C131.588 21.9769 131.748 22.4782 131.809 22.6405C131.843 22.7272 131.866 22.8032 131.861 22.8098C131.857 22.8158 131.871 22.869 131.892 22.9277C131.914 22.9865 131.969 23.1586 132.015 23.3101C132.135 23.7051 132.413 24.5896 132.461 24.7305C132.512 24.8797 132.337 25.1758 131.988 25.5302C131.665 25.8585 131.167 25.9662 130.616 25.8277C130.518 25.8034 130.497 25.8454 130.464 26.128C130.453 26.2254 130.427 26.3854 130.407 26.4828C130.386 26.5803 130.36 26.7337 130.347 26.8242L130.325 26.9878L130.591 27.0349C131.702 27.2313 132.443 26.9123 133.155 25.9312C133.226 25.8333 133.403 25.5903 133.548 25.3903C133.694 25.1907 133.91 24.8909 134.029 24.7244C134.148 24.5579 134.308 24.3364 134.384 24.2325C134.46 24.128 134.593 23.9429 134.68 23.8202C134.878 23.5395 135.213 23.0774 135.348 22.8965C135.405 22.8205 135.559 22.6078 135.692 22.4237C135.824 22.2395 135.985 22.0175 136.048 21.9308C136.398 21.4528 136.804 20.889 136.884 20.7683C136.935 20.6927 137.074 20.4974 137.195 20.3351C137.552 19.8511 137.642 19.7266 137.671 19.6748C137.693 19.6361 137.522 19.6254 136.873 19.6254H136.046L135.877 19.872C135.784 20.0073 135.485 20.4479 135.213 20.8508C134.942 21.2537 134.587 21.7769 134.425 22.0133C134.264 22.2497 133.99 22.6545 133.816 22.9123C133.643 23.1702 133.497 23.3656 133.49 23.346C133.462 23.2541 133.233 22.3542 133.217 22.2749C133.208 22.2255 133.146 21.9769 133.08 21.7228C133.013 21.4691 132.951 21.2206 132.942 21.1712C132.932 21.1217 132.87 20.8737 132.803 20.6195C132.737 20.3654 132.674 20.108 132.664 20.0478C132.653 19.9872 132.622 19.872 132.594 19.7914L132.544 19.6454L131.71 19.6347C131.252 19.6286 130.877 19.63 130.877 19.6375ZM138.679 19.6468C138.679 19.6757 138.573 20.2232 138.515 20.4927C138.489 20.6116 138.464 20.7319 138.459 20.7599C138.444 20.8448 138.356 21.2047 138.276 21.5172C138.234 21.6799 138.194 21.8394 138.188 21.872C138 22.7864 137.192 24.8713 136.755 25.5666L136.65 25.734H136.299C136.105 25.734 135.958 25.7442 135.97 25.7573C135.983 25.7699 135.97 25.8631 135.942 25.9638C135.914 26.065 135.87 26.2632 135.843 26.404C135.817 26.5449 135.769 26.7841 135.737 26.9361C135.576 27.6845 135.442 28.3261 135.428 28.4236C135.42 28.4828 135.394 28.5985 135.372 28.6796C135.288 28.9799 135.26 28.9654 135.938 28.9654H136.545L136.628 28.5812C136.673 28.37 136.738 28.0729 136.772 27.9209C136.805 27.7694 136.863 27.4947 136.9 27.3105L136.967 26.9753L139.321 26.965C141.944 26.9538 141.714 26.9282 141.639 27.2271C141.568 27.5064 141.512 27.7754 141.494 27.9214C141.484 28.003 141.468 28.0823 141.459 28.0977C141.443 28.1224 141.36 28.5234 141.305 28.8372L141.282 28.9654H141.912C142.258 28.9654 142.538 28.9524 142.533 28.9361C142.527 28.9197 142.545 28.8088 142.572 28.6894C142.619 28.4791 142.833 27.4514 142.895 27.1329C143.028 26.4563 143.065 26.2786 143.115 26.086C143.209 25.7246 143.216 25.734 142.861 25.734H142.549L142.582 25.6057C142.6 25.5353 142.634 25.38 142.658 25.2611C142.68 25.1417 142.727 24.9039 142.76 24.7323C142.794 24.5607 142.828 24.4083 142.838 24.3938C142.846 24.3793 142.87 24.2712 142.89 24.1541C142.944 23.8384 143.05 23.3031 143.112 23.0345C143.193 22.6876 143.215 22.5831 143.253 22.3644C143.273 22.2563 143.316 22.0432 143.35 21.8916C143.384 21.7401 143.463 21.3586 143.527 21.0443C143.591 20.73 143.671 20.3486 143.705 20.1971C143.739 20.0455 143.778 19.8548 143.79 19.7732L143.813 19.6254H141.246C139.835 19.6254 138.679 19.6352 138.679 19.6468ZM144.811 19.7331C144.848 19.8888 144.982 20.3299 145.043 20.4927C145.072 20.5682 145.095 20.6447 145.095 20.662C145.095 20.6787 145.114 20.7412 145.136 20.7995C145.158 20.8583 145.259 21.1814 145.361 21.5172C145.462 21.8534 145.585 22.2521 145.634 22.4041C145.732 22.7058 145.901 23.2476 145.916 23.3101C145.921 23.332 146 23.5801 146.09 23.8622C146.439 24.9501 146.442 24.9277 145.929 25.5101C145.669 25.8048 145.127 25.9541 144.67 25.8561C144.422 25.803 144.41 25.8128 144.375 26.1065C144.362 26.2156 144.335 26.3854 144.316 26.4828C144.297 26.5803 144.271 26.7332 144.259 26.8223L144.237 26.9846L144.467 27.0331C145.586 27.2709 146.36 26.9137 147.167 25.7857C147.288 25.6164 147.548 25.256 147.743 24.9851C147.939 24.7141 148.214 24.3332 148.355 24.1378C148.495 23.9429 148.708 23.65 148.828 23.4878C148.948 23.325 149.107 23.1035 149.181 22.9949C149.256 22.8867 149.406 22.6745 149.516 22.5234C149.626 22.3728 149.741 22.2134 149.773 22.1691C149.866 22.0385 150.46 21.2253 150.493 21.1824C150.51 21.1604 150.625 21.001 150.749 20.8275C150.872 20.654 151.113 20.3174 151.284 20.0786L151.594 19.6454L150.784 19.6347C150.169 19.6263 149.964 19.6361 149.929 19.6739C149.903 19.7014 149.708 19.9812 149.495 20.2954C149.282 20.6097 149.005 21.0177 148.879 21.2019C148.754 21.3861 148.424 21.8711 148.148 22.28C147.51 23.2224 147.542 23.1763 147.463 23.2817C147.396 23.3707 147.395 23.3689 147.333 23.1045C147.298 22.9576 147.242 22.7398 147.21 22.6204C147.177 22.5015 147.115 22.253 147.072 22.0688C147.029 21.8846 146.967 21.6365 146.934 21.5172C146.901 21.3978 146.839 21.1497 146.796 20.9655C146.752 20.7813 146.66 20.4088 146.59 20.1378L146.463 19.6454L145.625 19.6347L144.786 19.624L144.811 19.7331ZM159.158 19.6557C159.148 19.672 159.117 19.8007 159.09 19.9415C159.063 20.0819 159.01 20.3435 158.974 20.5221L158.908 20.8471H159.968H161.028L161.003 20.9949C160.956 21.2761 160.863 21.7275 160.848 21.7526C160.839 21.7666 160.822 21.8632 160.809 21.9676C160.797 22.0721 160.779 22.17 160.769 22.1854C160.759 22.2008 160.724 22.3542 160.691 22.5253C160.658 22.6969 160.612 22.9347 160.588 23.0541C160.565 23.1735 160.53 23.333 160.511 23.409C160.491 23.4845 160.422 23.8128 160.357 24.1378C160.291 24.4628 160.165 25.0751 160.076 25.4975C159.891 26.3728 159.855 26.5533 159.818 26.7883L159.792 26.9557H160.52H161.248L161.292 26.8079C161.332 26.6726 161.518 25.8095 161.556 25.5763C161.566 25.5223 161.601 25.3535 161.635 25.2019C161.669 25.0504 161.713 24.8373 161.733 24.7291C161.799 24.3658 161.852 24.1089 161.889 23.9653C161.909 23.8869 161.947 23.7074 161.972 23.5666C161.997 23.4257 162.033 23.2569 162.053 23.1921C162.072 23.1268 162.097 22.9958 162.109 22.9007C162.121 22.8056 162.139 22.7128 162.15 22.6946C162.162 22.6759 162.187 22.5677 162.207 22.454C162.227 22.3397 162.271 22.122 162.305 21.9704C162.339 21.8189 162.373 21.6501 162.382 21.596C162.391 21.5419 162.429 21.3512 162.467 21.1726L162.534 20.8471H163.604H164.673L164.72 20.6205C164.746 20.496 164.795 20.2521 164.828 20.0786C164.862 19.9056 164.899 19.7326 164.91 19.6944C164.932 19.6212 159.203 19.5825 159.158 19.6557ZM165.837 19.7732C165.791 19.948 165.698 20.377 165.693 20.4335C165.692 20.4549 165.668 20.5706 165.642 20.6895C165.615 20.8088 165.575 21.0038 165.553 21.1231C165.53 21.2425 165.496 21.402 165.477 21.478C165.441 21.6197 165.248 22.5393 165.224 22.6797C165.197 22.8415 164.921 24.1826 164.888 24.3155C164.868 24.391 164.834 24.5505 164.81 24.6698C164.787 24.7892 164.741 25.027 164.707 25.1986C164.674 25.3702 164.639 25.5223 164.63 25.5372C164.621 25.5516 164.597 25.6598 164.578 25.7769C164.535 26.0249 164.424 26.5929 164.375 26.8111L164.342 26.9622L166.496 26.9454L168.65 26.9291L169.005 26.8256C169.769 26.6017 170.216 26.2707 170.596 25.6454C170.646 25.5642 170.674 25.4975 170.658 25.4975C170.643 25.4975 170.649 25.4752 170.671 25.4481C170.841 25.2425 170.894 24.2618 170.761 23.782C170.464 22.7104 169.727 22.3868 167.578 22.385L166.783 22.384L166.8 22.2954C166.808 22.2469 166.834 22.1271 166.856 22.0296C166.92 21.7508 167.057 21.0751 167.074 20.9571C167.082 20.8988 167.107 20.7832 167.128 20.7011C167.149 20.6191 167.187 20.4451 167.212 20.315C167.237 20.1854 167.281 19.9868 167.309 19.8748C167.377 19.6095 167.424 19.6254 166.596 19.6254H165.875L165.837 19.7732ZM181.793 19.6692C181.674 19.6878 181.532 19.7098 181.477 19.7182C180.17 19.9173 179.271 21.2122 179.586 22.4432C179.752 23.0933 180.257 23.6001 180.811 23.6743L180.977 23.6967L180.803 23.7857C180.603 23.8869 180.228 24.2464 179.812 24.7347C179.656 24.9189 179.429 25.1819 179.31 25.3185C179.191 25.4551 178.96 25.7242 178.798 25.9167C178.635 26.1089 178.493 26.2749 178.48 26.2856C178.468 26.2963 178.338 26.4474 178.191 26.6209L177.924 26.9361L178.859 26.9463L179.794 26.9571L179.999 26.7295C180.112 26.6045 180.299 26.3872 180.415 26.2464C180.531 26.1056 180.692 25.9191 180.773 25.8323C180.854 25.7456 180.988 25.5922 181.071 25.491C181.755 24.6549 182.169 24.232 182.447 24.0837C182.783 23.9046 183.644 23.8044 183.587 23.9508C183.572 23.9886 183.545 24.1084 183.526 24.2166C183.466 24.5635 183.41 24.8326 183.391 24.8629C183.381 24.8792 183.355 24.9977 183.333 25.1259C183.282 25.4215 183.187 25.8925 183.127 26.1476C183.102 26.2562 183.077 26.3803 183.072 26.4236C183.067 26.467 183.043 26.5738 183.019 26.66C182.931 26.9776 182.885 26.9585 183.711 26.9468L184.448 26.9361L184.494 26.7388C184.52 26.6307 184.562 26.4353 184.589 26.3052C184.615 26.1755 184.655 25.989 184.677 25.8916C184.698 25.7941 184.722 25.6663 184.73 25.6076C184.738 25.5488 184.762 25.4337 184.783 25.3516C184.804 25.269 184.842 25.0956 184.866 24.9655C184.891 24.8354 184.929 24.6619 184.95 24.5794C184.972 24.4973 184.996 24.3821 185.005 24.3234C185.013 24.2646 185.075 23.9597 185.142 23.6454C185.209 23.3311 185.271 23.0294 185.28 22.9753C185.289 22.9212 185.352 22.6195 185.42 22.3052C185.488 21.9909 185.552 21.6897 185.564 21.6356C185.574 21.581 185.636 21.271 185.702 20.9459C185.767 20.6205 185.828 20.3104 185.837 20.2563C185.847 20.2017 185.87 20.1043 185.889 20.0394C185.908 19.9742 185.933 19.8548 185.945 19.7732L185.965 19.6254L183.987 19.6305C182.9 19.6333 181.912 19.6505 181.793 19.6692ZM7.00343 20.1677C6.94188 20.3113 6.81784 20.6289 6.5222 21.3992C6.12631 22.4307 6.13284 22.4143 5.99528 22.751C5.97057 22.8121 5.88616 23.0341 5.80829 23.2439C5.73042 23.4537 5.64369 23.679 5.61524 23.7438C5.58726 23.809 5.48328 24.0748 5.38489 24.335C5.28603 24.5952 5.18391 24.861 5.1578 24.9258C5.13168 24.9911 5.10837 25.0532 5.10604 25.0639C5.10417 25.0751 5.06314 25.1814 5.01511 25.3003C4.86029 25.6864 4.83418 25.7535 4.83045 25.7731C4.82812 25.7843 4.78848 25.8906 4.74185 26.01C4.69569 26.1289 4.59263 26.3952 4.5129 26.6008C4.43316 26.8069 4.34549 27.0284 4.31798 27.0937C4.29047 27.1585 4.2485 27.2648 4.22425 27.3301C4.12959 27.5875 3.89644 28.2016 3.8652 28.2758C3.79059 28.4553 3.73603 28.5957 3.60127 28.958C3.5234 29.1683 3.43713 29.393 3.40915 29.4579C3.38164 29.5231 3.31869 29.6826 3.26973 29.8127C3.22077 29.9428 3.15782 30.1023 3.12984 30.1676C3.10232 30.2324 3.03238 30.4096 2.97502 30.5616C2.76099 31.1282 2.72042 31.2345 2.67426 31.3497C2.64861 31.4149 2.62436 31.477 2.62063 31.4877C2.6169 31.4984 2.60245 31.5339 2.58892 31.5665C2.57493 31.5991 2.47375 31.8649 2.36416 32.1578C2.25458 32.4501 2.14966 32.7253 2.13148 32.7686C2.08531 32.8773 1.99998 33.0969 1.83211 33.5371C1.75377 33.7427 1.6745 33.9465 1.65538 33.9899C1.63673 34.0332 1.57471 34.1932 1.51782 34.3447C1.46093 34.4963 1.39938 34.6562 1.38119 34.6996C1.33736 34.8022 1.17322 35.2279 1.06178 35.5268C1.01328 35.6569 0.950795 35.8169 0.923283 35.8817C0.874321 35.9955 0.700856 36.4487 0.658888 36.5713C0.648163 36.604 0.601533 36.7238 0.556301 36.8376L0.473766 37.0451L2.23127 37.0348L3.98924 37.0246L4.09695 36.7485C4.15571 36.597 4.21912 36.4375 4.23684 36.3941C4.25456 36.3508 4.27135 36.3065 4.27368 36.2953C4.27648 36.2846 4.36461 36.0542 4.46953 35.7833C4.57492 35.5124 4.73905 35.0866 4.83465 34.8372C4.93024 34.5881 5.03376 34.3219 5.06453 34.2463C5.13401 34.0738 5.37463 33.4452 5.38116 33.4187C5.38582 33.3986 5.41706 33.3193 5.56721 32.9458C5.61477 32.8264 5.65488 32.7201 5.65581 32.7094C5.65814 32.6866 6.0918 31.5656 6.16641 31.3893C6.19392 31.324 6.30024 31.0494 6.40283 30.7784C6.50495 30.5075 6.61127 30.2324 6.63831 30.1676C6.66583 30.1023 6.72738 29.9428 6.77587 29.8127C6.88732 29.5138 7.05146 29.0881 7.09529 28.985C7.11394 28.9417 7.1755 28.7822 7.23239 28.6306C7.28927 28.4786 7.35129 28.3191 7.37088 28.2758C7.40026 28.2096 7.58584 27.7246 7.7248 27.3497C7.74485 27.2956 7.78263 27.1982 7.80827 27.1329C7.83438 27.0681 7.85863 27.006 7.8619 26.9948C7.86563 26.9841 7.89034 26.9221 7.91692 26.8573C7.9435 26.792 8.04469 26.5262 8.14168 26.266C8.23914 26.0058 8.3352 25.7577 8.35571 25.7144C8.3767 25.671 8.43872 25.5111 8.49374 25.3595C8.58001 25.1226 8.71197 24.7818 8.82948 24.4927C8.84673 24.4493 8.90782 24.2898 8.96471 24.1378C9.0216 23.9862 9.08315 23.8268 9.1018 23.7834C9.17081 23.6207 9.33728 23.1865 9.38485 23.0443L9.43474 22.8965H12.6774H15.9201L15.8408 23.1035C15.797 23.2173 15.7462 23.3455 15.7275 23.3889C15.6874 23.4831 15.5307 23.8874 15.4072 24.2166C15.3582 24.3467 15.2967 24.5062 15.2705 24.5715C15.2071 24.7272 15.0439 25.1473 14.9413 25.4187C14.8961 25.5381 14.8383 25.6887 14.8126 25.7535C14.787 25.8188 14.7609 25.8897 14.7543 25.9112C14.7483 25.9331 14.6699 26.1368 14.5809 26.3644C14.4918 26.592 14.3682 26.9114 14.3067 27.0736C14.2447 27.2364 14.1206 27.5558 14.0306 27.7834C13.9411 28.0109 13.8343 28.2856 13.7942 28.3942C13.7537 28.5024 13.6473 28.7775 13.5578 29.0051C13.4683 29.2326 13.3899 29.4364 13.3834 29.4579C13.3769 29.4798 13.3503 29.5507 13.3247 29.6159C13.2985 29.6808 13.1969 29.9466 13.098 30.2067C12.9992 30.4669 12.8957 30.7327 12.8677 30.798C12.8397 30.8628 12.6989 31.2266 12.5543 31.6057C12.2876 32.3065 12.1943 32.5481 12.1346 32.6898C12.1039 32.763 11.873 33.3706 11.7756 33.6355C11.7518 33.7003 11.7094 33.8066 11.6819 33.8719C11.6544 33.9367 11.5667 34.1587 11.4874 34.3643C11.4081 34.5704 11.3014 34.8451 11.2501 34.9752C11.1256 35.2909 10.9008 35.8765 10.8947 35.9013C10.8919 35.9125 10.8686 35.9745 10.843 36.0393C10.8169 36.1046 10.759 36.2552 10.7143 36.3741C10.6691 36.4935 10.5986 36.6744 10.5576 36.7756C10.5166 36.8772 10.4825 36.9794 10.4825 37.0022C10.4825 37.0316 11.0211 37.0442 12.2312 37.0442H13.9793L14.0479 36.8572C14.0852 36.7541 14.1752 36.5191 14.2475 36.3349C14.3198 36.1507 14.4256 35.8756 14.482 35.7241C14.5389 35.5725 14.6 35.4126 14.6182 35.3692C14.6942 35.1855 14.7879 34.9411 14.9968 34.3844C15.119 34.0589 15.2416 33.7399 15.2691 33.6747C15.2971 33.6098 15.4659 33.1752 15.6441 32.7094C15.8222 32.2431 15.9905 31.809 16.0176 31.7437C16.0451 31.6789 16.1052 31.5236 16.1519 31.3991C16.1985 31.2741 16.2745 31.0703 16.3211 30.9458C16.3678 30.8213 16.4279 30.6661 16.4554 30.6008C16.4825 30.536 16.7734 29.7824 17.1017 28.9263C17.686 27.401 17.7891 27.1347 17.8548 26.9753C17.873 26.9319 17.9341 26.7724 17.991 26.6209C18.2302 25.9848 18.26 25.906 18.3067 25.7932C18.3337 25.7279 18.3957 25.5684 18.4447 25.4383C18.4936 25.3082 18.5561 25.1487 18.5836 25.0839C18.6112 25.0186 18.7343 24.6997 18.8569 24.3742C18.9795 24.0492 19.139 23.6323 19.2108 23.4481C19.4071 22.9436 19.5293 22.6223 19.6076 22.4041C19.6468 22.2954 19.6902 22.1891 19.7046 22.1677C19.7186 22.1457 19.7709 22.0128 19.8203 21.872C19.8697 21.7312 19.9341 21.5624 19.963 21.4976C19.9923 21.4323 20.1252 21.0868 20.2586 20.7291C20.392 20.3715 20.509 20.0656 20.5188 20.0492C20.5286 20.0329 17.506 20.0199 13.8012 20.0199H7.06591L7.00343 20.1677ZM28.6684 20.128C28.6302 20.1877 28.4539 20.4316 28.2767 20.6699C28.0995 20.9082 27.8762 21.2099 27.7806 21.34C27.6845 21.4701 27.5707 21.6239 27.5274 21.6827C27.484 21.741 27.3241 21.9588 27.1725 22.1667C26.8148 22.6568 26.7799 22.7039 26.5197 23.0546C26.128 23.581 25.7162 24.1397 25.6356 24.2525C25.5922 24.3131 25.4752 24.4721 25.3758 24.605C25.276 24.7384 25.0909 24.9893 24.9646 25.1627C24.6932 25.5334 24.1173 26.3112 23.623 26.9743C23.4295 27.2341 23.2266 27.511 23.1725 27.5903C23.118 27.6691 22.9851 27.8538 22.8769 28.0002C22.7683 28.1466 22.488 28.5257 22.2535 28.8423C22.0189 29.1594 21.7974 29.4607 21.7606 29.5115C21.7242 29.5628 21.6132 29.7134 21.5134 29.8463C21.4141 29.9797 21.229 30.2305 21.1022 30.404C20.8154 30.7966 20.2236 31.5954 19.7611 32.2151C19.5671 32.4744 19.3754 32.7402 19.3349 32.8064C19.2943 32.8721 19.2145 32.9808 19.1577 33.0475C19.1008 33.1146 18.9478 33.3175 18.8177 33.4984C18.5393 33.8859 17.9877 34.6338 17.9168 34.7206C17.8525 34.7994 17.1968 35.6928 17.043 35.912C16.9772 36.0052 16.7688 36.2878 16.5799 36.5392C16.3911 36.791 16.2363 37.0073 16.2363 37.0204C16.2363 37.0334 17.0481 37.0442 18.0399 37.0442H19.8441L20.198 36.5471C20.3924 36.2738 20.5874 36.0015 20.6307 35.9428C20.6741 35.884 20.7715 35.746 20.8471 35.6359C21.0401 35.3571 21.8226 34.2603 21.9681 34.0654C22.0343 33.9768 22.1863 33.7684 22.3052 33.6024L22.522 33.3011L25.8683 33.3007L29.2145 33.3002L29.1883 34.5121C29.1739 35.179 29.1506 36.0211 29.1366 36.3844L29.1109 37.0442H30.7854H32.4599L32.486 35.4779C32.5005 34.6161 32.5122 33.2042 32.5122 32.3401C32.5122 31.4756 32.5289 29.6756 32.5499 28.3401C32.5704 27.0042 32.597 24.5854 32.6096 22.9655L32.6315 20.0199H30.6847H28.7379L28.6684 20.128ZM40.9089 20.5617C40.7965 20.8597 40.6809 21.1567 40.652 21.2215C40.6231 21.2868 40.555 21.464 40.5009 21.6156C40.4104 21.8688 40.3638 21.9891 40.2724 22.2068C40.2542 22.2502 40.1139 22.6228 39.9604 23.0345C39.807 23.4463 39.6667 23.8188 39.6485 23.8622C39.5548 24.0837 39.233 24.9231 38.9378 25.7144C38.7844 26.1261 38.6427 26.4987 38.6231 26.5421C38.6035 26.585 38.5046 26.8424 38.4035 27.1133C38.3018 27.3842 38.1959 27.6589 38.168 27.7241C38.1395 27.789 38.0714 27.9666 38.016 28.1182C37.836 28.6111 37.6359 29.1408 37.5991 29.2214C37.579 29.2648 37.4802 29.5222 37.3794 29.7931C37.2787 30.0641 37.1542 30.3919 37.1025 30.522C37.0507 30.6521 36.9187 30.9981 36.8087 31.2904C36.6986 31.5833 36.5975 31.8491 36.5835 31.8817C36.5699 31.9144 36.5555 31.9498 36.5518 31.9605C36.548 31.9712 36.5266 32.0244 36.5042 32.079C36.4818 32.1331 36.4184 32.3014 36.3638 32.4529C36.3088 32.605 36.2426 32.7822 36.216 32.8474C36.1894 32.9122 36.1531 33.0008 36.1353 33.0442C36.1176 33.0876 35.9773 33.4602 35.8229 33.8719C35.669 34.2837 35.5282 34.6562 35.5105 34.6996C35.4191 34.9197 35.3636 35.0642 35.1319 35.683C34.9934 36.0523 34.818 36.5098 34.743 36.7L34.6059 37.0451L36.3811 37.0348L38.1558 37.0246L38.251 36.7686C38.3032 36.6273 38.3578 36.4855 38.3717 36.4534C38.3857 36.4207 38.3993 36.3853 38.4021 36.3741C38.4086 36.3484 38.6473 35.7241 38.7182 35.5469C38.749 35.4709 38.8553 35.1873 38.9551 34.9164C39.0544 34.645 39.1509 34.3881 39.1691 34.3447C39.2661 34.1134 39.5874 33.276 39.8798 32.4926C40.0332 32.0808 40.1745 31.7082 40.1936 31.6649C40.2356 31.5702 40.3326 31.3184 40.3377 31.2904C40.3414 31.2704 40.3671 31.2051 40.5228 30.8176C40.5704 30.6987 40.6114 30.5919 40.6137 30.5812C40.6156 30.5705 40.6291 30.535 40.6431 30.5024C40.6646 30.453 40.7881 30.1284 40.9914 29.5861L41.0325 29.4779H44.2822H47.5323L47.5067 29.5665C47.4843 29.6449 47.1779 30.473 47.0949 30.6796C46.9615 31.0135 46.6874 31.7255 46.678 31.7633C46.6752 31.7745 46.6617 31.8099 46.6477 31.8421C46.6337 31.8747 46.5325 32.141 46.4225 32.4334C46.3129 32.7262 46.1805 33.0717 46.1287 33.2018C46.0774 33.3319 45.9525 33.6602 45.8517 33.9311C45.751 34.202 45.6522 34.459 45.6326 34.5023C45.5976 34.5788 45.4237 35.0381 45.2148 35.6056C45.1588 35.7576 45.0949 35.926 45.0725 35.9801C45.0502 36.0346 45.0273 36.0966 45.0213 36.1181C45.0152 36.14 44.9308 36.3573 44.8338 36.6012L44.6575 37.0451L46.43 37.0348L48.2028 37.0246L48.2756 36.8273C48.4411 36.3802 48.6332 35.8765 48.6668 35.8029C48.6869 35.7595 48.7857 35.5026 48.8869 35.2316C48.9881 34.9607 49.1121 34.6324 49.1625 34.5023C49.2129 34.3722 49.2954 34.1596 49.3458 34.0295C49.3961 33.8994 49.439 33.7842 49.4409 33.7735C49.4432 33.7623 49.4661 33.7003 49.4922 33.6355C49.5178 33.5702 49.5556 33.4727 49.5761 33.4187C49.5966 33.3646 49.6349 33.2671 49.6605 33.2018C49.6866 33.137 49.7095 33.075 49.7113 33.0638C49.7165 33.0372 49.8107 32.7947 49.8722 32.6502C49.9002 32.5854 49.9673 32.4077 50.0224 32.2562C50.1203 31.9852 50.2191 31.7213 50.4434 31.1328C50.5055 30.9706 50.6197 30.6689 50.6971 30.4632C50.7745 30.2571 50.8543 30.0533 50.8738 30.01C50.8939 29.9666 50.9927 29.7092 51.0939 29.4383C51.1951 29.1674 51.3192 28.8395 51.3695 28.7094C51.4199 28.5793 51.502 28.3662 51.5523 28.2366C51.6027 28.1065 51.646 27.9909 51.6479 27.9801C51.6502 27.9694 51.6731 27.9074 51.6987 27.8421C51.7248 27.7773 51.7626 27.6798 51.7831 27.6258C51.8037 27.5712 51.8414 27.4737 51.8675 27.4089C51.8932 27.3436 51.916 27.2816 51.9184 27.2709C51.9235 27.2434 52.0205 26.9916 52.0624 26.8965C52.1123 26.7831 52.4551 25.8794 52.4658 25.8323C52.4747 25.7936 52.5684 25.547 52.7498 25.0839C52.8006 24.9538 52.8887 24.723 52.9461 24.5715C53.003 24.4194 53.0655 24.26 53.0851 24.2166C53.1042 24.1732 53.2012 23.9163 53.301 23.6454C53.4003 23.3745 53.5238 23.0462 53.5747 22.9161C53.7141 22.5598 53.951 21.9438 53.9916 21.8324C54.0111 21.7783 54.0484 21.6808 54.0746 21.6156C54.1002 21.5507 54.1235 21.4887 54.1258 21.478C54.131 21.4561 54.4662 20.5804 54.5842 20.2805C54.6257 20.1747 54.6602 20.0726 54.6602 20.0539C54.6602 20.0352 53.8731 20.0199 52.9111 20.0199H51.162L51.12 20.128C51.0221 20.3784 50.8202 20.9077 50.816 20.9259C50.8132 20.9371 50.7899 20.9991 50.7643 21.0639C50.7381 21.1292 50.7004 21.2267 50.6799 21.2807C50.6593 21.3348 50.6211 21.4323 50.5955 21.4976C50.5693 21.5624 50.5456 21.6244 50.5418 21.6356C50.5381 21.6463 50.5236 21.6818 50.5097 21.7144C50.4961 21.7466 50.3949 22.0128 50.2854 22.3052C50.1082 22.7785 50.0443 22.945 49.9296 23.2313C49.9119 23.2747 49.8153 23.5321 49.7141 23.803C49.6134 24.0739 49.516 24.3308 49.4982 24.3742C49.4805 24.4176 49.4176 24.5775 49.3588 24.7291C49.3005 24.8806 49.2283 25.0671 49.1989 25.1427C49.065 25.4896 48.8892 25.9527 48.8846 25.9704C48.8823 25.9811 48.8617 26.0343 48.8389 26.0888C48.8165 26.1429 48.7647 26.2805 48.7246 26.3942L48.6514 26.6008H45.3906H42.1297L42.2313 26.3154C42.2878 26.1583 42.3559 25.9764 42.3838 25.9112C42.4454 25.7666 42.5396 25.5241 42.5447 25.4975C42.5466 25.4868 42.5694 25.4248 42.5955 25.3595C42.6212 25.2947 42.6594 25.1968 42.6799 25.1427C42.7005 25.0886 42.7382 24.9911 42.7639 24.9258C42.79 24.861 42.8142 24.799 42.8175 24.7883C42.8212 24.7771 42.8427 24.7239 42.8651 24.6698C42.8874 24.6158 42.9509 24.4474 43.0054 24.2954C43.0604 24.1439 43.1234 23.9755 43.1458 23.921C43.1682 23.8669 43.2689 23.6011 43.3696 23.3302C43.5552 22.8317 43.5771 22.7743 43.6643 22.5617C43.6909 22.4964 43.7566 22.3192 43.8112 22.1677C43.8653 22.0156 43.9334 21.8384 43.9623 21.7732C43.9912 21.7083 44.0975 21.4337 44.1982 21.1623C44.2989 20.8914 44.4328 20.5333 44.4957 20.3659C44.5591 20.1985 44.6109 20.052 44.6109 20.0408C44.6109 20.0292 43.8238 20.0199 42.8618 20.0199H41.1127L40.9089 20.5617ZM142.053 20.9361C141.982 21.3097 141.743 22.4703 141.715 22.5813C141.695 22.6573 141.659 22.8345 141.634 22.9753C141.608 23.1161 141.572 23.2849 141.553 23.3497C141.533 23.4146 141.511 23.5213 141.503 23.5862C141.496 23.651 141.453 23.8729 141.409 24.0786C141.364 24.2847 141.281 24.6838 141.223 24.9655C141.165 25.2471 141.105 25.5311 141.089 25.5959L141.061 25.7144L139.656 25.7246L138.251 25.7349L138.439 25.3306C138.734 24.6964 138.798 24.5542 138.798 24.5286C138.798 24.5155 138.822 24.4488 138.852 24.3803C138.881 24.3122 138.927 24.2035 138.953 24.1392C139.005 24.0114 139.275 23.2164 139.288 23.1525C139.301 23.0853 139.473 22.5267 139.509 22.4353C139.544 22.3463 139.816 21.2593 139.848 21.0835C139.893 20.828 139.8 20.8471 140.989 20.8471H142.07L142.053 20.9361ZM184.069 21.5862C183.984 21.9928 183.909 22.3635 183.902 22.4106C183.895 22.4577 183.877 22.551 183.863 22.6176L183.836 22.7389L182.943 22.737C181.449 22.7333 181.121 22.6116 180.996 22.0156C180.817 21.1651 181.434 20.8634 183.372 20.8522L184.222 20.8471L184.069 21.5862ZM127.159 23.6477C128.032 23.7662 128.397 24.5108 127.92 25.2028C127.617 25.643 127.416 25.6971 125.977 25.7228L124.801 25.7437L124.828 25.5516C124.842 25.4462 124.871 25.2975 124.891 25.2215C124.911 25.1459 124.981 24.8177 125.047 24.4927C125.112 24.1676 125.183 23.8352 125.205 23.7536L125.244 23.6057H126.048C126.49 23.6057 126.99 23.6249 127.159 23.6477ZM168.422 23.6486C169.237 23.7629 169.61 24.3672 169.281 25.0406C168.997 25.6211 168.775 25.6948 167.223 25.7228L166.073 25.7437L166.109 25.6109C166.128 25.5376 166.17 25.3446 166.202 25.1823C166.304 24.6638 166.465 23.9065 166.505 23.7536L166.544 23.6057H167.33C167.761 23.6057 168.253 23.6253 168.422 23.6486ZM29.4397 24.6559C29.4159 25.173 29.3968 25.8519 29.3968 26.1648C29.3968 26.4777 29.3707 27.3287 29.339 28.0566C29.3072 28.7841 29.2811 29.6229 29.2811 29.9209L29.2807 30.4632H26.7575H24.2339L24.3999 30.2366C24.4913 30.1116 24.5771 30.0011 24.591 29.9899C24.605 29.9792 24.695 29.8659 24.7911 29.7386C24.8871 29.6108 25.0098 29.4495 25.0639 29.3791C25.118 29.3091 25.2411 29.1487 25.3367 29.0228C25.4323 28.8964 25.5334 28.7654 25.5614 28.7314C25.6547 28.6185 26.1322 28.0021 26.2506 27.8421C26.3145 27.7559 26.39 27.657 26.4185 27.623C26.4465 27.5889 26.5421 27.4649 26.6311 27.3474C26.7678 27.166 27.1767 26.6367 27.7153 25.9447C27.7852 25.8547 27.9135 25.6887 27.9997 25.5754C28.0865 25.4626 28.211 25.3031 28.2758 25.221C28.3411 25.139 28.6325 24.7608 28.9239 24.3798C29.2159 23.9988 29.4607 23.6939 29.4681 23.7013C29.4761 23.7093 29.463 24.1387 29.4397 24.6559ZM63.7243 24.1961C64.613 24.2469 65.34 24.3052 65.734 24.3579C65.8963 24.3793 66.0828 24.4022 66.1476 24.4087C67.9 24.5864 68.6083 25.5582 68.1481 27.1525C68.0618 27.4523 67.9163 27.9023 67.8678 28.0202C67.8455 28.0739 67.7438 28.3308 67.6412 28.591C66.7972 30.7355 65.8753 31.7087 64.4135 31.9983C64.1696 32.0468 59.6968 32.0454 59.6488 31.9969C59.6362 31.9843 59.6697 31.8687 59.7234 31.7404C59.777 31.6122 59.9514 31.1706 60.1113 30.7584C60.2713 30.3466 60.4163 29.9745 60.434 29.9312C60.4517 29.8878 60.469 29.8435 60.4727 29.8323C60.4764 29.8216 60.4942 29.7773 60.5119 29.7339C60.5296 29.6906 60.5954 29.5222 60.6574 29.3595C60.7199 29.1972 60.787 29.0284 60.8075 28.985C60.8276 28.9417 60.8999 28.7556 60.9684 28.5714C61.0369 28.3872 61.1153 28.183 61.1428 28.1182C61.1908 28.0025 61.334 27.6397 61.6198 26.9062C61.6982 26.7057 61.7765 26.5062 61.7938 26.4628C61.8115 26.4199 61.8777 26.2511 61.9416 26.0888C62.0055 25.9261 62.0721 25.7577 62.0894 25.7144C62.1071 25.671 62.1244 25.6267 62.1281 25.6155C62.1318 25.6048 62.1496 25.5605 62.1673 25.5171C62.185 25.4738 62.2503 25.3054 62.3128 25.1427C62.3748 24.9804 62.4429 24.8116 62.4629 24.7682C62.4834 24.7249 62.5385 24.5831 62.5855 24.453C62.6956 24.1471 62.7189 24.121 62.8695 24.1392C62.9385 24.1476 63.3232 24.1732 63.7243 24.1961ZM153.28 29.7376C152.876 29.7782 152.541 29.8673 152.168 30.0337C152.076 30.0748 151.991 30.1084 151.978 30.1084C151.778 30.1084 150.863 30.9361 150.568 31.3842C149.949 32.3238 149.537 33.9204 149.712 34.6996C149.731 34.7863 149.757 34.9192 149.769 34.9952C149.911 35.918 150.649 36.8148 151.507 37.1062C152.172 37.3323 153.445 37.3412 153.854 37.122C153.896 37.0992 153.931 37.0894 153.931 37.0997C153.931 37.1188 154.162 37.0232 154.463 36.881C155.411 36.4319 156.382 35.1799 156.595 34.1307C156.606 34.078 156.623 34.0221 156.633 34.0057C156.757 33.8043 156.809 32.4888 156.711 32.0197C156.379 30.4422 155.054 29.56 153.28 29.7376ZM125.032 29.8622C125.006 29.9097 124.96 30.1163 124.94 30.2837C124.93 30.369 124.913 30.4516 124.904 30.4665C124.895 30.4819 124.852 30.6689 124.809 30.8824C124.766 31.096 124.658 31.6169 124.569 32.0393C124.48 32.4618 124.401 32.8521 124.392 32.9062C124.383 32.9607 124.349 33.1291 124.315 33.2806C124.281 33.4326 124.236 33.6583 124.215 33.7828C124.193 33.9069 124.158 34.0556 124.136 34.1134C124.114 34.1708 124.104 34.2254 124.114 34.2352C124.123 34.2445 124.114 34.3084 124.093 34.3774C124.073 34.4459 124.029 34.6441 123.996 34.8176C123.816 35.7483 123.571 36.036 123.007 35.9759C122.685 35.9418 122.71 35.9176 122.605 36.3545C122.559 36.5499 122.494 36.8054 122.462 36.9234C122.393 37.1808 122.373 37.1584 122.726 37.2256C123.94 37.4569 124.757 37.0759 125.104 36.1181C125.144 36.0099 125.193 35.8989 125.214 35.8719C125.234 35.8448 125.239 35.8225 125.225 35.8225C125.211 35.8225 125.216 35.7912 125.236 35.753C125.282 35.6672 125.473 34.9617 125.516 34.7192C125.532 34.6217 125.595 34.3112 125.655 34.0295C125.714 33.7479 125.768 33.4816 125.775 33.4382C125.798 33.2932 125.949 32.5732 125.994 32.3942C126.018 32.2967 126.043 32.1811 126.049 32.1377C126.058 32.0692 126.194 31.393 126.248 31.1426L126.267 31.054H127.269H128.272L128.256 31.1627C128.247 31.2219 128.186 31.5283 128.12 31.8421C128.053 32.1564 127.989 32.4669 127.978 32.5317C127.966 32.597 127.941 32.7122 127.922 32.7882C127.903 32.8638 127.867 33.0326 127.843 33.1627C127.819 33.2928 127.774 33.5054 127.745 33.6355C127.714 33.7656 127.652 34.0668 127.606 34.3056C127.56 34.5438 127.506 34.8008 127.487 34.8768C127.468 34.9528 127.442 35.068 127.431 35.1328C127.419 35.1981 127.355 35.5082 127.288 35.8225C127.221 36.1367 127.16 36.4356 127.152 36.486C127.145 36.5368 127.119 36.6697 127.094 36.7816C127.069 36.8936 127.041 37.0251 127.031 37.074L127.013 37.1626H127.763C128.175 37.1626 128.514 37.1491 128.517 37.1328C128.52 37.1169 128.528 37.068 128.534 37.0246C128.557 36.8674 128.715 36.113 128.769 35.9013C128.828 35.6672 129.059 34.5378 129.087 34.3447C129.096 34.2799 129.12 34.1731 129.139 34.1083C129.158 34.0435 129.195 33.8747 129.22 33.7339C129.245 33.5931 129.29 33.3716 129.32 33.2415C129.401 32.8857 129.422 32.7868 129.46 32.5714C129.479 32.4632 129.523 32.2501 129.557 32.0985C129.591 31.9465 129.626 31.7782 129.635 31.7241C129.656 31.6005 129.83 30.7705 129.912 30.404C129.946 30.252 129.984 30.0617 129.997 29.9801L130.02 29.8323H127.534C126.167 29.8323 125.041 29.8458 125.032 29.8622ZM131.572 29.8626C131.558 29.8864 131.407 30.5873 131.291 31.1725C131.232 31.4672 131.092 32.1396 131.016 32.4926C130.964 32.7309 130.901 33.0414 130.876 33.1822C130.85 33.3231 130.814 33.4914 130.794 33.5567C130.775 33.6215 130.75 33.7525 130.738 33.8481C130.726 33.9432 130.709 34.0332 130.7 34.0482C130.691 34.0636 130.657 34.2072 130.625 34.3681C130.542 34.7952 130.543 34.7905 130.365 35.6257C130.275 36.0481 130.195 36.4356 130.187 36.486C130.18 36.5368 130.153 36.6697 130.129 36.7816C130.104 36.8936 130.076 37.0251 130.066 37.074L130.048 37.1626H132.88H135.712L135.8 36.7784C135.848 36.5671 135.913 36.3153 135.944 36.2197C135.974 36.1237 136 36.0216 136 35.9931C136 35.9502 135.613 35.9409 133.889 35.9409C132.526 35.9409 131.787 35.9274 131.802 35.9022C131.815 35.8812 131.833 35.8145 131.842 35.7544C131.857 35.6555 131.998 34.9868 132.156 34.2659C132.189 34.1144 132.216 33.9857 132.216 33.9801C132.216 33.975 133.067 33.9703 134.106 33.9703H135.997L136.036 33.8225C136.058 33.7413 136.105 33.518 136.14 33.3259C136.175 33.1337 136.219 32.9258 136.237 32.8628L136.27 32.7486H134.381C132.739 32.7486 132.493 32.7411 132.493 32.6903C132.493 32.6581 132.536 32.4408 132.59 32.2077C132.643 31.974 132.719 31.6234 132.757 31.4285L132.828 31.0736L134.757 31.0638C135.818 31.0578 136.699 31.04 136.715 31.0242C136.73 31.0083 136.79 30.7645 136.846 30.4828C136.902 30.2012 136.958 29.9396 136.97 29.9013C136.992 29.8281 131.617 29.7894 131.572 29.8626ZM138.329 29.9801C138.282 30.1611 138.196 30.5784 138.188 30.6628C138.184 30.6968 138.162 30.8032 138.138 30.8992C138.114 30.9953 138.074 31.1804 138.049 31.3105C138.024 31.4401 137.988 31.6089 137.969 31.6849C137.949 31.7609 137.922 31.8938 137.909 31.9806C137.895 32.0668 137.877 32.148 137.87 32.1606C137.862 32.1727 137.838 32.2883 137.816 32.4166C137.793 32.5453 137.748 32.7742 137.714 32.9262C137.68 33.0778 137.644 33.2461 137.635 33.3002C137.627 33.3548 137.565 33.656 137.499 33.9703C137.433 34.2846 137.369 34.5951 137.357 34.66C137.345 34.7252 137.32 34.8404 137.301 34.9164C137.281 34.992 137.245 35.1696 137.22 35.3105C137.195 35.4513 137.158 35.6196 137.139 35.6849C137.12 35.7497 137.096 35.8724 137.085 35.9568C137.074 36.0416 137.049 36.1657 137.029 36.2328C137.008 36.3 136.97 36.4785 136.944 36.6306C136.917 36.7821 136.882 36.964 136.865 37.0344L136.834 37.1626H137.579H138.323L138.346 37.054C138.358 36.9947 138.386 36.8786 138.408 36.7961C138.43 36.714 138.454 36.5928 138.463 36.5266C138.476 36.4203 138.548 36.0724 138.684 35.448C138.758 35.1132 138.801 34.9043 138.838 34.6996C138.858 34.5909 138.902 34.3783 138.935 34.2268C138.969 34.0747 139.041 33.7292 139.095 33.4583C139.15 33.1874 139.237 32.7705 139.288 32.5317C139.341 32.2935 139.404 31.9834 139.43 31.8421C139.456 31.7013 139.501 31.5003 139.53 31.3958C139.56 31.2909 139.582 31.1934 139.58 31.179C139.564 31.055 139.578 31.054 141.551 31.054H143.516L143.564 30.8078C143.59 30.6726 143.638 30.4376 143.67 30.2856C143.703 30.134 143.737 29.9699 143.747 29.9209L143.765 29.8323H141.066H138.368L138.329 29.9801ZM144.595 29.9605C144.571 30.031 144.543 30.1666 144.531 30.2618C144.519 30.3569 144.502 30.4474 144.493 30.4623C144.484 30.4772 144.449 30.6297 144.415 30.8013C144.382 30.9729 144.336 31.2107 144.312 31.3301C144.289 31.449 144.255 31.6089 144.235 31.6845C144.197 31.8365 144.006 32.7495 143.98 32.9062C143.971 32.9607 143.936 33.1291 143.902 33.2806C143.868 33.4326 143.821 33.6616 143.8 33.7903C143.778 33.9185 143.753 34.0337 143.745 34.0463C143.738 34.0589 143.721 34.1396 143.707 34.2263C143.693 34.313 143.666 34.4459 143.647 34.5219C143.627 34.5979 143.591 34.7663 143.566 34.8964C143.542 35.0265 143.504 35.1999 143.483 35.282C143.461 35.3641 143.436 35.4946 143.426 35.5721C143.416 35.6495 143.4 35.7255 143.391 35.7409C143.381 35.7567 143.355 35.8742 143.333 36.0029C143.311 36.1312 143.265 36.3606 143.232 36.5121C143.198 36.6641 143.163 36.8413 143.155 36.9062C143.146 36.9714 143.126 37.0558 143.112 37.0936C143.087 37.158 143.137 37.1626 143.837 37.1626H144.589L144.613 37.054C144.625 36.9947 144.652 36.866 144.672 36.7686C144.692 36.6707 144.752 36.3872 144.804 36.1377C144.856 35.8887 144.919 35.5781 144.944 35.448C144.969 35.3184 145.013 35.1053 145.043 34.9752C145.073 34.8451 145.119 34.6324 145.145 34.5023C145.171 34.3722 145.209 34.1979 145.229 34.1153L145.266 33.9642L145.431 33.9917C145.915 34.0724 146.117 34.2962 146.287 34.936C146.304 35.0008 146.346 35.1514 146.38 35.2708C146.413 35.3902 146.502 35.7091 146.575 35.9801C146.853 36.9985 146.882 37.1006 146.901 37.1314C146.922 37.1649 148.414 37.1757 148.414 37.1421C148.414 37.1304 148.35 36.9071 148.273 36.6455C148.195 36.3839 148.125 36.1353 148.117 36.0929C148.109 36.0509 148.084 35.9596 148.061 35.8901C148.039 35.8201 147.958 35.5417 147.882 35.2708C147.649 34.4455 147.579 34.2291 147.522 34.1643C147.492 34.1302 147.468 34.0822 147.468 34.0575C147.468 33.9773 147.051 33.5842 146.893 33.5161C146.796 33.4737 146.761 33.4424 146.798 33.4312C147.336 33.2657 147.672 32.867 148.504 31.4042C148.705 31.0517 148.863 30.9631 149.356 30.9263L149.489 30.916L149.624 30.4632C149.698 30.2137 149.769 29.9699 149.78 29.9209C149.805 29.8193 149.324 29.7922 148.884 29.8705C148.766 29.8915 148.621 29.9172 148.56 29.9274C148.348 29.9633 148.035 30.1373 147.84 30.3285C147.662 30.5019 147.31 30.9421 147.31 30.9911C147.31 31.0013 147.204 31.1804 147.073 31.3893C146.944 31.5977 146.837 31.7782 146.837 31.7908C146.837 31.8537 146.222 32.7206 146.133 32.7831C145.953 32.9095 145.539 33.0046 145.474 32.9346C145.469 32.93 145.499 32.7752 145.54 32.591C145.582 32.4068 145.632 32.1676 145.652 32.0589C145.672 31.9507 145.736 31.6402 145.793 31.3692C145.851 31.0983 145.914 30.7971 145.933 30.6996C145.952 30.6017 145.995 30.3979 146.028 30.2464C146.128 29.7913 146.194 29.8323 145.363 29.8323H144.637L144.595 29.9605ZM158.805 29.8622C158.795 29.8785 158.766 29.9978 158.74 30.1279C158.714 30.258 158.676 30.4357 158.654 30.5224C158.633 30.6092 158.61 30.7243 158.603 30.7784C158.596 30.8325 158.554 31.0629 158.511 31.2904C158.467 31.518 158.411 31.8817 158.386 32.0985C158.361 32.3154 158.316 32.6609 158.285 32.867C158.255 33.0727 158.21 33.4009 158.186 33.5959C158.085 34.4221 158.062 34.5951 158.024 34.8572C158.002 35.0088 157.975 35.164 157.964 35.2018C157.947 35.2643 157.984 35.2708 158.357 35.2708H158.769L158.87 34.9458C158.926 34.7667 159.072 34.3014 159.194 33.9111C159.416 33.2023 159.458 33.0629 159.521 32.8125C159.541 32.7392 159.568 32.6595 159.583 32.6353C159.598 32.611 159.617 32.5551 159.626 32.5108C159.634 32.466 159.675 32.3284 159.717 32.2049C159.838 31.8449 159.954 31.3758 160.04 30.8964C160.066 30.7556 160.102 30.5873 160.122 30.522C160.141 30.4572 160.165 30.3294 160.177 30.2385C160.188 30.1475 160.214 30.0296 160.234 29.9764C160.254 29.9232 160.26 29.8691 160.247 29.8561C160.212 29.8216 158.825 29.8272 158.805 29.8622ZM154.105 31.0335C155.456 31.3226 155.723 33.4354 154.608 35.0148C153.453 36.6515 151.243 36.209 151.179 34.3284C151.109 32.2855 152.522 30.695 154.105 31.0335ZM157.563 36.0295C157.536 36.1866 157.489 36.4217 157.459 36.5518C157.429 36.6819 157.388 36.8726 157.368 36.9752L157.331 37.1626H158.032C158.803 37.1626 158.763 37.1757 158.797 36.9122C158.803 36.8656 158.855 36.6021 158.911 36.3261C158.968 36.0505 159.015 35.8066 159.015 35.7842C159.015 35.7581 158.767 35.7437 158.314 35.7437H157.613L157.563 36.0295ZM0 45.7338V48H93.2609H186.522V45.7338V43.468H93.2609H0V45.7338Z" fill="#8489A8"/>
</svg>
