<svg width="63" height="68" viewBox="0 0 63 68" fill="none" xmlns="http://www.w3.org/2000/svg">
<path fill-rule="evenodd" clip-rule="evenodd" d="M62.7564 33.9791C62.7564 56.5527 62.7696 65.8043 62.7856 54.5383C62.8016 43.2722 62.8016 24.803 62.7856 13.4955C62.7696 2.18794 62.7564 11.4056 62.7564 33.9791ZM11.2255 0.192442C10.8705 0.385343 0.343414 10.911 0.159337 11.2574C-0.0259711 11.6063 -0.0540849 12.2317 0.0983893 12.6237C0.294369 13.1285 11.1168 23.8216 11.5452 23.9339C12.3928 24.1561 12.6914 23.9872 14.3546 22.3447L15.8999 20.8185L12.4047 17.3092C8.53844 13.4271 8.39151 13.234 8.39089 12.0327C8.39007 10.7345 8.48775 10.6042 12.3667 6.72174L15.864 3.2214L14.4568 1.80481C12.7053 0.0411986 12.0794 -0.270932 11.2255 0.192442ZM21.0302 0.173767C20.9049 0.227534 18.3442 2.73361 15.3401 5.74328L9.87787 11.2151L9.82657 11.8332C9.79148 12.2555 9.83088 12.5566 9.95093 12.7836C10.2105 13.274 20.7475 23.7426 21.1232 23.8834C21.604 24.0634 22.1294 24.0281 22.5123 23.79C22.9709 23.5052 25.5335 20.9552 25.5335 20.7836C25.5335 20.7091 23.9816 19.0955 22.0848 17.1977C16.706 11.8164 16.7082 12.178 22.0151 6.84138C23.9502 4.89534 25.5335 3.2528 25.5335 3.19124C25.5335 3.04061 22.8055 0.347584 22.4914 0.188132C22.2012 0.0409937 21.36 0.0327852 21.0302 0.173767ZM29.254 1.65357L27.6426 3.24521L31.2493 6.86929C35.1241 10.7632 35.1432 10.7883 35.1594 11.9756C35.1763 13.2082 35.0572 13.3664 31.1931 17.2488L27.6468 20.812L29.0699 22.2485C30.8071 24.0022 31.3843 24.2924 32.2372 23.8403C32.9657 23.4541 43.4134 12.7934 43.493 12.3551C43.6641 11.4105 43.7692 11.5367 38.0349 5.79192C32.4605 0.207423 32.292 0.0617201 31.4028 0.0617201H30.8653L29.254 1.65357ZM23.1963 7.69528C18.4207 12.4628 18.4273 11.5728 23.1329 16.2952L26.6416 19.8167L30.0668 16.3937C31.9507 14.5113 33.5483 12.8659 33.6171 12.7374C33.7784 12.4357 33.7779 11.6323 33.616 11.3126C33.4937 11.0708 26.79 4.2799 26.6742 4.28031C26.6426 4.28051 25.0775 5.81716 23.1963 7.69528ZM34.7681 31.1502C32.5144 31.5237 30.1553 33.3072 29.032 35.487C25.2388 42.8468 32.4385 51.0035 39.6194 47.4816C41.2424 46.6856 43.4329 44.3732 43.4329 43.4555C43.4329 43.4179 42.6988 43.3995 41.8018 43.4145L40.171 43.4417L39.5752 43.9632C34.6661 48.2594 28.2394 41.6221 32.0494 36.1907C33.837 33.6424 37.4221 33.3405 39.6973 35.5467L40.2557 36.0883H41.9075H43.5593L43.1255 35.2623C41.597 32.3522 38.0495 30.6066 34.7681 31.1502ZM6.54601 31.4224C6.50908 31.4823 5.34366 34.4099 1.51232 44.0689C0.729012 46.0441 0.0616561 47.7242 0.0296427 47.8025C-0.0152992 47.9125 0.334796 47.9452 1.56341 47.9452H3.15547L3.56446 46.9476C3.78937 46.3989 4.18892 45.4233 4.45221 44.7795L4.93118 43.609L7.73112 43.6394L10.5311 43.6697L11.3839 45.8075L12.2366 47.9452H13.8118C14.678 47.9452 15.3868 47.9056 15.3868 47.8571C15.3868 47.8089 13.9048 44.0806 12.0936 39.5722L8.80029 31.3752L7.69337 31.3661C7.0845 31.361 6.56838 31.3864 6.54601 31.4224ZM16.6881 31.4045C16.6623 31.4306 16.6409 35.163 16.6409 39.6986V47.9452H18.123H19.605V44.8099V41.6746L20.7737 41.6738C23.1234 41.6722 24.1858 41.3207 25.2209 40.2026C27.6761 37.5507 26.9724 33.3325 23.8234 31.8256L23.0824 31.471L19.9087 31.4139C18.1634 31.3825 16.7142 31.3784 16.6881 31.4045ZM22.2843 34.5041C23.6849 34.8866 24.2494 36.4583 23.4306 37.6953C22.9917 38.3586 22.3256 38.6139 20.8511 38.6837L19.605 38.7428V36.5605V34.3783L20.7167 34.3789C21.328 34.3791 22.0335 34.4355 22.2843 34.5041ZM8.54644 38.1977C8.98191 39.5006 9.31887 40.5979 9.29547 40.6361C9.14874 40.8747 6.02826 40.6307 6.09721 40.3861C6.30263 39.6564 7.67367 35.7477 7.71102 35.785C7.73503 35.809 8.11098 36.8948 8.54644 38.1977ZM40.0965 54.0556C40.0589 54.0932 40.0579 54.2085 40.0944 54.3121C40.4692 55.3799 42.698 55.3483 42.881 54.2725C42.9133 54.0829 42.8478 54.0386 42.4922 54.0092C42.1696 53.9824 42.0647 54.0164 42.0647 54.1476C42.0647 54.5908 41.2414 54.6848 40.9711 54.2725C40.795 54.0039 40.2767 53.8754 40.0965 54.0556ZM0.249837 57.5958L0.280825 59.722L1.29848 59.6974C2.49981 59.6684 2.90798 59.4983 3.14644 58.9274C3.56671 57.9217 2.81501 57.0686 1.50636 57.0663C1.15996 57.0657 1.13575 57.0403 1.13575 56.6715V56.2773L2.0194 56.244L2.90305 56.2108L2.93876 55.8402L2.97447 55.4696H1.59666H0.218645L0.249837 57.5958ZM3.63464 55.7261C3.68923 55.8673 3.99582 56.5168 4.31595 57.1698C5.08386 58.7355 5.03605 59.0805 4.06436 58.9832C3.71816 58.9486 3.70092 58.9658 3.70092 59.3458C3.70092 59.7292 3.71898 59.7464 4.15712 59.7825C5.33628 59.8796 5.61927 59.605 6.5612 57.4505C7.52078 55.2551 7.482 55.4696 6.91868 55.4696H6.43684L5.99255 56.6097C5.74814 57.2369 5.53841 57.7499 5.52651 57.7499C5.5144 57.7499 5.28292 57.2369 5.01204 56.6097L4.51952 55.4696H4.02763C3.56405 55.4696 3.54147 55.4845 3.63464 55.7261ZM8.49062 55.7831C8.167 57.4739 7.69131 58.7998 7.36338 58.9258C7.21152 58.9841 7.17828 59.1815 7.17828 60.0263V61.0561H7.63426H8.09025V60.3744V59.6929L9.12084 59.707C10.7078 59.729 10.6954 59.7236 10.7355 60.4128L10.7695 60.9991L11.197 61.0343L11.6247 61.0699V59.9728C11.6247 58.9003 11.6187 58.8763 11.3681 58.9112C11.1129 58.9467 11.1114 58.9381 11.08 57.2083L11.0486 55.4696H9.79968H8.55075L8.49062 55.7831ZM12.3086 57.6103V59.7509L12.7646 59.7074L13.2206 59.6639V57.5668V55.4696H12.7646H12.3086V57.6103ZM14.2727 57.5845L14.3037 59.7195L15.4384 59.6966C16.6707 59.6717 17.0936 59.5229 17.3152 59.0366C17.5432 58.5363 17.4677 58.0189 17.1252 57.7353L16.8114 57.4755L17.0682 57.2188C17.9315 56.3555 17.196 55.5395 15.5083 55.488L14.2415 55.4492L14.2727 57.5845ZM18.2371 57.5787C18.2371 58.7388 18.2754 59.6918 18.3224 59.6968C18.3696 59.7017 18.9467 59.7144 19.605 59.7253L20.8022 59.745V59.3458V58.9469H20.0325H19.2627L19.2629 58.4053L19.2631 57.8638H20.0113H20.7596L20.7239 57.4934C20.6881 57.1228 20.6881 57.1228 19.9756 57.0889L19.2631 57.0548V56.6666V56.2781L20.0327 56.2444L20.8022 56.2108L20.8135 55.8402L20.825 55.4696H19.5309H18.2371V57.5787ZM22.2991 55.7831C22.266 55.9557 22.1542 56.661 22.0508 57.3507C21.8394 58.7591 21.7468 59.004 21.4253 59.004C21.2453 59.004 21.2012 59.0823 21.2012 59.4029C21.2012 59.7799 21.2225 59.802 21.5849 59.802C22.359 59.802 22.6771 59.3237 22.9114 57.8067C22.9794 57.3678 23.0606 56.842 23.0922 56.6382C23.1472 56.2843 23.1725 56.2676 23.6576 56.2676H24.1655V58.0064V59.745L24.593 59.7411L25.0204 59.7372L25.0514 57.6034L25.0826 55.4696H23.721H22.3594L22.2991 55.7831ZM26.1296 57.5987L26.1606 59.7275L27.1526 59.7134C28.592 59.6931 29.1818 59.3163 29.1818 58.4173C29.1818 57.6537 28.4286 57.0684 27.4432 57.0663C27.1311 57.0657 27.1296 57.0622 27.1296 56.2676V55.4696H26.6141H26.0986L26.1296 57.5987ZM30.0059 57.6073L30.0369 59.745L30.3788 59.7536C30.9805 59.769 31.0059 59.7286 31.0059 58.7637V57.8638H31.7993H32.5928L32.6259 58.8043L32.6591 59.745H33.1151H33.5711L33.5863 57.6073L33.6013 55.4696H33.1016H32.6021V56.2676V57.0657H31.804H31.0059V56.2676V55.4696H30.4904H29.9747L30.0059 57.6073ZM34.6304 57.6218L34.6634 59.7745L35.0864 59.7446C35.3189 59.7282 35.5674 59.7087 35.6386 59.7013C35.7098 59.6939 36.1652 59.02 36.6505 58.2036C37.1361 57.3873 37.5652 56.6996 37.6044 56.6754C37.6434 56.651 37.6754 57.3317 37.6754 58.1878V59.7444L38.0743 59.7405L38.4734 59.7366L38.5044 57.603L38.5354 55.4696L37.9343 55.4714L37.3333 55.4732L36.3928 57.0374L35.4523 58.6017V57.0357V55.4696H35.0246L34.5972 55.4693L34.6304 57.6218ZM39.5566 57.5662V59.6629L39.927 59.7058C40.5882 59.7825 40.6731 59.7035 41.6134 58.1408C42.1201 57.2988 42.5445 56.6097 42.5562 56.6095C42.5681 56.6095 42.5777 57.3148 42.5777 58.1769V59.7444L42.9767 59.7405L43.3758 59.7366L43.4068 57.603L43.4378 55.4696L42.8367 55.4739L42.2356 55.478L41.2954 57.0413L40.3551 58.6048L40.3549 57.0372L40.3546 55.4696H39.9555H39.5566V57.5662ZM10.1424 57.5695V58.8712L9.34411 58.9089C8.90516 58.9299 8.54603 58.943 8.54603 58.9383C8.54624 58.9336 8.67142 58.5621 8.8243 58.1127C8.97698 57.6635 9.13685 57.0645 9.17912 56.7817C9.25546 56.2738 9.26141 56.2676 9.69933 56.2676H10.1424V57.5695ZM16.2943 56.4332C16.5233 56.709 16.328 57.0499 15.8943 57.1314C15.322 57.2387 15.1589 57.1365 15.1589 56.6703C15.1589 56.2213 15.9768 56.0505 16.2943 56.4332ZM2.05531 57.9818C2.57779 58.2613 2.24103 58.8899 1.56916 58.8899H1.13575V58.3768C1.13575 57.824 1.48235 57.6752 2.05531 57.9818ZM16.1277 57.9777C16.5834 58.1511 16.5022 58.8055 16.0138 58.8936C15.3542 59.0126 15.1589 58.9087 15.1589 58.4396C15.1589 57.8336 15.4205 57.7088 16.1277 57.9777ZM28.0391 58.0893C28.4239 58.4739 28.1465 58.8851 27.5002 58.8882C27.1368 58.8899 27.1296 58.88 27.1296 58.3768C27.1296 57.7848 27.5893 57.6395 28.0391 58.0893ZM1.24985 63.6578C0.118706 64.1702 -0.331534 65.735 0.280825 67.0254C0.793655 68.106 3.18789 68.3855 3.18789 67.3648V66.9741L2.76043 67.0623C1.57101 67.3079 1.12056 67.0194 1.04422 65.9626C0.945924 64.6032 1.69844 64.0065 2.86078 64.5218C3.01489 64.5901 3.30199 64.1487 3.30199 63.8433C3.30199 63.6338 1.63524 63.483 1.24985 63.6578ZM3.52998 63.6227C3.52998 63.6549 3.84027 64.3346 4.2193 65.1331C5.10459 66.9975 5.07217 67.1977 3.9006 67.1029C3.40808 67.0629 3.53983 67.8516 4.04137 67.9458C5.32335 68.1863 5.95541 67.3818 7.37836 63.6995C7.42187 63.5866 7.3129 63.5585 6.93756 63.5854L6.43889 63.6213L5.98496 64.7992C5.58274 65.8431 5.51851 65.947 5.42041 65.7112C5.35967 65.5651 5.11793 65.0221 4.88337 64.5047L4.45673 63.5642H3.99336C3.73848 63.5642 3.52998 63.5905 3.52998 63.6227ZM7.97636 65.7303V67.8965H8.48939H9.00243V66.1294V64.3623H9.74346H10.4845V66.1294V67.8965H10.9405H11.3965V65.7303V63.5642H9.68641H7.97636V65.7303ZM12.5022 63.6367C12.4584 63.6804 12.4225 64.6568 12.4225 65.8064V67.8965H13.741H15.0593L15.0236 67.5259L14.9877 67.1555L14.2182 67.1218L13.4486 67.088V66.5856V66.0832L14.1613 66.0494C14.8738 66.0153 14.8738 66.0153 14.9095 65.6449L14.9452 65.2743H14.197H13.4486V64.8183V64.3623H14.2541H15.0593L15.0236 63.9917L14.9877 63.6213L13.7847 63.5891C13.1231 63.5714 12.5461 63.5928 12.5022 63.6367ZM15.8428 65.7303V67.8965H16.2988H16.755V67.1555C16.755 66.4233 16.7587 66.4144 17.0684 66.4138C18.1252 66.4116 18.8072 65.8333 18.8072 64.939C18.8072 63.9266 18.2461 63.5661 16.6694 63.5648L15.8428 63.5642V65.7303ZM19.605 65.7247V67.8965H20.0768H20.5486L20.4946 66.3289L20.4407 64.7612L20.9404 66.3289L21.4403 67.8965H21.88H22.3198L22.8152 66.3984L23.3104 64.9004L23.3422 66.3984L23.374 67.8965H23.8267H24.2794V65.7247V63.5527L23.6239 63.587L22.9683 63.6213L22.4318 65.2172C22.1368 66.0951 21.8903 66.7877 21.8839 66.7563C21.8778 66.7251 21.6545 66.0069 21.3879 65.1604L20.903 63.6213L20.2541 63.587L19.605 63.5527V65.7247ZM26.0814 64.1058C25.9825 64.4036 25.64 65.3812 25.32 66.278L24.7385 67.9088L25.2687 67.8741C25.7809 67.8407 25.8035 67.8239 25.9264 67.3835L26.0539 66.9275H26.8446H27.6355L27.7627 67.3835C27.8858 67.8239 27.9084 67.8407 28.4204 67.8741L28.9507 67.9088L28.3691 66.278C28.0494 65.3812 27.7067 64.4036 27.608 64.1058L27.4282 63.5642H26.8446H26.2611L26.0814 64.1058ZM29.4098 65.7303V67.8965H29.9228H30.4358V67.1709V66.4454L30.9509 66.3748C33.4104 66.0377 32.8602 63.5642 30.3256 63.5642H29.4098V65.7303ZM33.1721 65.7239V67.8965H33.6807H34.1892L34.2222 66.9074L34.2551 65.9184L34.9392 66.9016L35.6232 67.8848L36.1726 67.8906L36.7217 67.8965L36.463 67.5259C36.3208 67.3221 35.959 66.8284 35.6593 66.4286C35.3595 66.0288 35.1484 65.6441 35.19 65.5737C35.2317 65.5031 35.5641 65.0508 35.929 64.5685C36.7209 63.5215 36.7135 63.5626 36.1077 63.5704C35.6329 63.5763 35.6097 63.5952 34.9392 64.531L34.2551 65.4857L34.1982 64.5534L34.1412 63.6213L33.6567 63.5862L33.1721 63.5511V65.7239ZM37.2668 63.6114C37.2407 63.6375 37.2344 64.6123 37.2526 65.7777L37.2861 67.8965H38.5352H39.7846V67.4976V67.0984H38.9865H38.1884V66.5854V66.0724H38.9294H39.6705V65.6734V65.2743H38.9294H38.1884V64.8183V64.3623H38.9865H39.7846V63.9632V63.5642H38.5494C37.8701 63.5642 37.2931 63.5854 37.2668 63.6114ZM40.2032 63.6498C39.9432 64.0863 40.1619 64.3623 40.7677 64.3623H41.3807V66.1294V67.8965H41.8367H42.2927V66.1294V64.3623H42.8628H43.4329V63.9632V63.5642H41.8435C40.9693 63.5642 40.2311 63.6026 40.2032 63.6498ZM17.7158 64.5415C18.1098 64.9355 17.8164 65.5101 17.2059 65.54C16.8041 65.5597 16.5997 65.0455 16.8008 64.5213C16.8833 64.3061 17.494 64.3194 17.7158 64.5415ZM31.2827 64.5415C31.6895 64.9482 31.3244 65.6164 30.6954 65.6164C30.4568 65.6164 30.4358 65.5659 30.4358 64.9892C30.4358 64.3071 30.8366 64.0951 31.2827 64.5415ZM27.0664 65.099C27.1661 65.4417 27.2778 65.8009 27.3147 65.8971C27.3695 66.0395 27.2813 66.0724 26.8446 66.0724C26.4079 66.0724 26.3198 66.0395 26.3744 65.8971C26.4114 65.8009 26.5232 65.4417 26.6227 65.099C26.8452 64.334 26.8442 64.334 27.0664 65.099Z" fill="#8489A8"/>
</svg>
