<svg width="239" height="38" viewBox="0 0 239 38" fill="none" xmlns="http://www.w3.org/2000/svg">
<path d="M19.4375 31.9539C20.9756 31.6092 22.4075 31.1319 23.7599 30.469C25.0858 29.806 26.2791 29.0105 27.3133 28.0824C28.3475 27.1542 29.2226 26.0935 29.9651 24.9002C30.7076 23.7069 31.2645 22.4075 31.6092 21.0021C31.9805 19.5967 32.1661 18.0851 32.1661 16.4941C32.1661 14.8765 31.9805 13.3915 31.6092 11.986C31.238 10.5806 30.6811 9.28123 29.9651 8.08793C29.2226 6.89463 28.3475 5.83392 27.3133 4.90579C26.2791 3.97767 25.0858 3.18214 23.7599 2.51919C21.0816 1.1933 18.0056 0.530356 14.5052 0.530356H0V32.5108H14.4787C16.2289 32.4578 17.8995 32.2987 19.4375 31.9539ZM6.73552 5.86043H14.1075C17.5017 5.86043 20.2331 6.81508 22.2749 8.72436C23.3091 9.679 24.0782 10.8193 24.582 12.1186C25.0858 13.418 25.351 14.8765 25.351 16.4941C25.351 18.1117 25.0858 19.5701 24.582 20.8695C24.0782 22.1689 23.3091 23.3091 22.2749 24.2638C20.2331 26.1731 17.5017 27.1277 14.1075 27.1277H6.73552V5.86043Z" fill="#8489A8"/>
<path d="M0 37.8144H169.979L172.472 34.4731H0V37.8144Z" fill="#8489A8"/>
<path d="M26.6504 31.4766C25.8814 31.8479 25.0858 32.1926 24.2373 32.4578H173.983L175.336 30.6281H28.1354C27.6581 30.9198 27.1542 31.2114 26.6504 31.4766Z" fill="#8489A8"/>
<path d="M202.49 24.4229H209.278L201.562 14.0544L211.665 0.477325H204.85L198.141 9.46686L191.458 0.477325H184.643L194.747 14.0544L177.033 37.8144H183.848L198.141 18.5359L202.49 24.4229Z" fill="#8489A8"/>
<path d="M223.412 26.8891C222.59 26.2526 221.45 25.9079 219.992 25.9079H215.139L212.752 37.8144H215.51L216.173 34.4731H218.507L220.363 37.8144H223.28L221.211 34.1549C222.272 33.8367 223.121 33.2533 223.704 32.4843C224.314 31.6888 224.606 30.7341 224.606 29.6204C224.632 28.4271 224.208 27.5255 223.412 26.8891ZM221.079 31.6623C220.575 32.0865 219.859 32.2987 218.957 32.2987H216.597L217.419 28.1619H219.594C220.31 28.1619 220.867 28.2945 221.238 28.5862C221.636 28.8779 221.821 29.3022 221.821 29.859C221.848 30.6546 221.583 31.238 221.079 31.6623Z" fill="#8489A8"/>
<path d="M198.751 34.6588C198.247 34.6588 197.823 34.8179 197.505 35.1626C197.16 35.4808 197.001 35.9051 197.001 36.4355C197.001 36.8863 197.16 37.231 197.452 37.5227C197.743 37.8144 198.114 37.947 198.565 37.947C199.043 37.947 199.44 37.7879 199.785 37.4431C200.13 37.0984 200.315 36.6741 200.315 36.1703C200.315 35.7195 200.183 35.3482 199.891 35.0565C199.573 34.7914 199.202 34.6588 198.751 34.6588Z" fill="#8489A8"/>
<path d="M211.851 26.8891C211.029 26.2261 209.888 25.9079 208.403 25.9079H203.604L201.217 37.8144H203.975L204.611 34.5262H207.263C208.43 34.5262 209.464 34.3405 210.339 33.9428C211.214 33.545 211.877 32.9881 212.355 32.2457C212.832 31.5032 213.07 30.6281 213.07 29.6469C213.07 28.4536 212.673 27.552 211.851 26.8891ZM209.544 31.6623C209.04 32.0865 208.35 32.2987 207.422 32.2987H205.089L205.911 28.1619H208.059C208.775 28.1619 209.331 28.2945 209.703 28.5862C210.074 28.8779 210.26 29.3022 210.26 29.859C210.286 30.6546 210.021 31.238 209.544 31.6623Z" fill="#8489A8"/>
<path d="M73.3217 9.99721L82.2052 24.6085H84.6183L93.5283 9.62596L93.5548 11.217L93.5813 27.552H98.7788L98.6992 0.477325H94.0586L83.5045 18.2973L72.7914 0.477325H68.1507V27.552H73.3217V9.99721Z" fill="#8489A8"/>
<path d="M181.912 21.0021C182.442 19.4641 182.708 17.7139 182.708 15.6985V0.477325H177.192V15.4599C177.192 16.7858 177.059 17.9526 176.768 18.9337C176.476 19.9414 176.052 20.79 175.468 21.4264C174.885 22.0893 174.169 22.5932 173.347 22.9114C172.525 23.2296 171.57 23.3887 170.509 23.3887C168.282 23.3887 166.611 22.6992 165.498 21.3468C164.384 20.0209 163.827 18.0321 163.827 15.4334V0.450806H158.232V15.672C158.232 17.6609 158.497 19.4375 159.027 20.9756C159.558 22.4871 160.353 23.7865 161.414 24.8207C163.562 26.9421 166.558 28.0028 170.43 28.0028C172.366 28.0028 174.116 27.7376 175.601 27.2073C177.086 26.6769 178.359 25.8814 179.446 24.8207C180.586 23.813 181.382 22.5136 181.912 21.0021Z" fill="#8489A8"/>
<path d="M36.3294 21.2142C36.9658 22.2749 37.7348 23.2296 38.6099 24.0516C39.485 24.8737 40.4927 25.6162 41.6329 26.2261C42.7732 26.836 43.9665 27.2868 45.2394 27.605C46.5122 27.8967 47.8646 28.0558 49.2701 28.0558C50.702 28.0558 52.0279 27.8967 53.3008 27.605C54.5736 27.3133 55.7669 26.836 56.8807 26.2261C57.9944 25.6162 59.0021 24.9002 59.9037 24.0516C60.7788 23.2031 61.5478 22.2749 62.1842 21.2142C63.4836 19.0928 64.12 16.7062 64.12 14.0279C64.12 12.702 63.9609 11.4292 63.6427 10.2359C63.3245 9.04257 62.8472 7.90231 62.1842 6.8416C61.5478 5.78088 60.7788 4.82624 59.9037 4.00419C59.0286 3.18214 58.0209 2.43964 56.8807 1.82973C54.6267 0.609916 52.081 0 49.2701 0C47.8381 0 46.5122 0.15911 45.2394 0.450806C43.9665 0.742502 42.7732 1.21983 41.6329 1.82973C40.4927 2.43964 39.485 3.15562 38.6099 4.00419C37.7348 4.82624 36.9658 5.78088 36.3294 6.8416C35.693 7.90231 35.2156 9.04257 34.8974 10.2359C34.5792 11.4292 34.4201 12.702 34.4201 14.0279C34.4201 15.3538 34.5792 16.6267 34.8974 17.82C35.2156 19.0133 35.693 20.1535 36.3294 21.2142ZM41.2882 9.17516C41.686 8.45918 42.1633 7.82276 42.7202 7.26588C43.277 6.70901 43.887 6.23168 44.6029 5.83392C45.2924 5.43615 46.0349 5.14445 46.8304 4.93231C47.5994 4.72017 48.4215 4.64061 49.2966 4.64061C50.1717 4.64061 50.9937 4.74669 51.7627 4.93231C52.5318 5.11794 53.2743 5.43615 53.9902 5.83392C54.6797 6.23168 55.3161 6.70901 55.873 7.26588C56.4299 7.82276 56.9072 8.45918 57.305 9.17516C57.7027 9.89114 57.9944 10.6602 58.2066 11.4557C58.3922 12.2777 58.4983 13.1263 58.4983 14.0279C58.4983 14.9295 58.3922 15.7781 58.2066 16.6001C57.9944 17.4222 57.7027 18.1647 57.305 18.8807C56.9072 19.5967 56.4299 20.2331 55.873 20.79C55.3161 21.3468 54.7062 21.8241 53.9902 22.2219C52.5848 23.0174 51.0202 23.4152 49.2966 23.4152C48.4215 23.4152 47.5994 23.3091 46.8304 23.1235C46.0614 22.9379 45.3189 22.6197 44.6029 22.2219C43.9135 21.8241 43.277 21.3468 42.7202 20.79C42.1633 20.2331 41.686 19.5967 41.2882 18.8807C40.4927 17.4487 40.0949 15.8311 40.0949 14.0279C40.0684 12.2247 40.4662 10.6071 41.2882 9.17516Z" fill="#8489A8"/>
<path d="M156.11 23.1766H142.082V0.477325H136.514V27.552H156.11V23.1766Z" fill="#8489A8"/>
<path d="M211.082 5.8074L204.956 14.0544L211.082 22.2749H214.476L208.35 14.0544L214.476 5.8074H211.082Z" fill="#8489A8"/>
<path d="M235.319 26.3587C234.444 25.9344 233.41 25.7223 232.216 25.7223C230.784 25.7223 229.512 26.0405 228.371 26.6504C227.258 27.2868 226.382 28.1354 225.773 29.1961C225.163 30.2833 224.844 31.5031 224.844 32.829C224.844 33.8367 225.083 34.7383 225.534 35.5338C226.011 36.3029 226.674 36.9128 227.549 37.3636C228.424 37.7879 229.458 38 230.652 38C232.084 38 233.357 37.6818 234.497 37.0719C235.611 36.462 236.486 35.5869 237.096 34.5262C237.706 33.4389 238.024 32.2191 238.024 30.8932C238.024 29.8856 237.785 28.9839 237.334 28.1884C236.857 27.3929 236.194 26.783 235.319 26.3587ZM234.709 33.3594C234.364 34.0488 233.86 34.6323 233.197 35.03C232.535 35.4543 231.766 35.6664 230.89 35.6664C229.856 35.6664 229.061 35.4013 228.504 34.8709C227.947 34.3405 227.655 33.598 227.655 32.6964C227.655 31.8479 227.841 31.0789 228.186 30.3629C228.53 29.6734 229.034 29.09 229.697 28.6923C230.36 28.268 231.129 28.0558 232.004 28.0558C233.038 28.0558 233.834 28.321 234.391 28.8514C234.948 29.3817 235.239 30.1242 235.239 31.0258C235.239 31.8744 235.054 32.6699 234.709 33.3594Z" fill="#8489A8"/>
<path d="M104.692 21.2142C105.329 22.2749 106.098 23.2296 106.973 24.0516C107.848 24.8737 108.856 25.6162 109.996 26.2261C111.136 26.836 112.329 27.2868 113.602 27.605C114.875 27.8967 116.227 28.0558 117.633 28.0558C119.065 28.0558 120.391 27.8967 121.664 27.605C122.937 27.3133 124.13 26.836 125.244 26.2261C126.357 25.6162 127.365 24.9002 128.267 24.0516C129.142 23.2031 129.911 22.2749 130.547 21.2142C131.846 19.0928 132.483 16.7062 132.483 14.0279C132.483 12.702 132.324 11.4292 132.006 10.2359C131.687 9.04257 131.21 7.90231 130.547 6.8416C129.911 5.78088 129.142 4.82624 128.267 4.00419C127.391 3.18214 126.384 2.43964 125.244 1.82973C122.99 0.609916 120.444 0 117.633 0C116.201 0 114.875 0.15911 113.602 0.450806C112.329 0.742502 111.136 1.21983 109.996 1.82973C108.856 2.43964 107.848 3.15562 106.973 4.00419C106.098 4.82624 105.329 5.78088 104.692 6.8416C104.056 7.90231 103.579 9.04257 103.26 10.2359C102.942 11.4292 102.783 12.702 102.783 14.0279C102.783 15.3538 102.942 16.6267 103.26 17.82C103.579 19.0133 104.056 20.1535 104.692 21.2142ZM109.651 9.17516C110.049 8.45918 110.526 7.82276 111.083 7.26588C111.64 6.70901 112.25 6.23168 112.966 5.83392C113.655 5.43615 114.398 5.14445 115.193 4.93231C115.962 4.72017 116.784 4.64061 117.659 4.64061C118.508 4.64061 119.357 4.74669 120.126 4.93231C120.895 5.11794 121.637 5.43615 122.353 5.83392C123.043 6.23168 123.679 6.70901 124.236 7.26588C124.793 7.82276 125.27 8.45918 125.668 9.17516C126.066 9.89114 126.357 10.6602 126.569 11.4557C126.755 12.2777 126.861 13.1263 126.861 14.0279C126.861 14.9295 126.755 15.7781 126.569 16.6001C126.357 17.4222 126.066 18.1647 125.668 18.8807C125.27 19.5967 124.793 20.2331 124.236 20.79C123.679 21.3468 123.069 21.8241 122.353 22.2219C120.948 23.0174 119.383 23.4152 117.659 23.4152C116.784 23.4152 115.962 23.3091 115.193 23.1235C114.424 22.9379 113.682 22.6197 112.966 22.2219C112.276 21.8241 111.64 21.3468 111.083 20.79C110.526 20.2331 110.049 19.5967 109.651 18.8807C108.856 17.4487 108.458 15.8311 108.458 14.0279C108.431 12.2247 108.829 10.6071 109.651 9.17516Z" fill="#8489A8"/>
</svg>
