<svg width="64" height="68" viewBox="0 0 64 68" fill="none" xmlns="http://www.w3.org/2000/svg">
<path fill-rule="evenodd" clip-rule="evenodd" d="M24.0924 2.65631C21.7996 4.11698 18.0022 6.59617 15.6534 8.1654C13.3049 9.7348 9.55308 12.1138 7.31637 13.4524C5.07949 14.7908 2.51833 16.3519 1.62484 16.9214L0 17.9568L14.1814 18.0089C21.9809 18.0375 34.7358 18.0375 42.5256 18.0089L56.6885 17.9568L45.5248 10.9037C39.3848 7.02429 33.0119 2.98393 31.3628 1.92492C29.7139 0.865917 28.3413 -0.000322532 28.3128 9.00887e-08C28.2842 0.000161401 26.385 1.19564 24.0924 2.65631ZM35.1077 2.76181L34.2273 3.28816L34.9043 3.73741C35.2766 3.98438 40.6458 7.37611 46.8357 11.2745L58.0901 18.3625L34.1731 18.4141L10.2561 18.4658L9.13907 19.2058C8.52461 19.6128 8.05062 19.9747 8.08586 20.0097C8.12094 20.0447 20.8005 20.0993 36.2624 20.1311C62.4515 20.1848 64.3468 20.1658 63.9594 19.8529C63.7307 19.6682 60.7293 17.7574 57.2896 15.6068C53.8498 13.4562 49.8917 10.9504 48.4937 10.0382C44.0515 7.13978 36.2753 2.23141 36.129 2.23335C36.0514 2.23448 35.5918 2.47225 35.1077 2.76181ZM31.4128 22.9218C29.9341 23.2002 28.9425 24.2334 28.1659 26.305C27.5708 27.8916 27.6366 28.086 28.5008 27.2959C29.5621 26.3258 30.2682 26.2534 32.4791 26.8881C34.4877 27.4646 35.0231 27.5271 36.0388 27.3027C36.9163 27.109 36.8791 27.2406 35.6883 28.5407C34.2648 30.095 32.7137 33.6006 33.143 34.2937C33.2041 34.3925 32.9085 34.5272 32.4859 34.5931C30.2581 34.9409 29.0902 35.7012 28.2538 37.3482C27.574 38.687 27.6078 38.7879 28.6167 38.4314C31.2859 37.4887 33.6993 38.5419 34.0003 40.781C34.0983 41.5097 34.0533 41.6021 33.4204 41.9742C31.3499 43.192 30.4478 44.1992 30.2862 45.474L30.2123 46.057L30.7813 45.6373C31.7185 44.9459 32.9049 44.892 33.527 45.5128C34.4032 46.3871 34.1188 46.8705 30.9842 49.8361C28.2814 52.393 27.3429 56.5892 29.6043 56.0054C31.1504 55.6063 31.1926 55.5855 31.0756 55.2813C31.0133 55.1196 31.0672 54.9874 31.1949 54.9874C31.3227 54.9874 31.1954 54.6465 30.9116 54.23C30.2387 53.2417 30.2566 53.1557 31.2676 52.5261C35.1418 50.1132 37.5039 49.9625 43.1036 51.7713L45.062 52.404L46.0153 51.8629C49.4226 49.9296 52.4671 48.6224 54.7974 48.0924C56.6088 47.6805 56.6183 47.6527 56.6185 42.8129C56.6185 39.181 56.5702 38.5472 56.2378 37.8168C54.92 34.9209 49.4127 33.8245 46.6635 35.9104L46.1553 36.2961L46.0945 41.5037L46.0337 46.7111L45.0777 46.5679C44.5519 46.489 43.1176 46.4369 41.8904 46.4519L39.6588 46.4792L40.5983 45.8583C44.0256 43.5932 44.6262 41.7094 44.6286 33.2189C44.6304 27.154 44.7031 26.7418 45.9016 26.0025C48.305 24.5204 52.1279 26.9347 52.1494 29.9482L52.1538 30.5767L53.2229 29.5101C54.0079 28.7267 54.5061 28.4033 55.0987 28.2923C57.4477 27.8526 56.5506 24.7693 53.6789 23.4124C50.087 21.715 42.6882 24.4852 41.3471 28.0296C41.0784 28.7393 40.7276 29.7254 40.7434 29.7254C40.7452 29.7254 40.6637 30.0906 40.5622 30.537C40.4608 30.9833 40.3656 33.7766 40.3509 36.7441C40.3168 43.5694 40.1876 43.9621 36.8672 47.3275C35.4239 48.7904 34.9848 48.5749 36.1033 46.9525C37.872 44.3875 38.1426 42.9747 38.3155 35.4068C38.4978 27.418 38.808 26.6342 42.7097 24.3055C43.3185 23.9421 43.8167 23.5367 43.8167 23.4048C43.8167 23.2728 43.9312 23.1186 44.0709 23.0623C44.7674 22.7819 43.2795 22.9841 41.4783 23.4146C38.0773 24.2275 38.0124 24.2292 35.9853 23.5751C33.9765 22.9268 32.5037 22.7163 31.4128 22.9218ZM14.0267 25.3984C12.6846 26.5176 10.8316 28.1157 9.90906 28.9497L8.23136 30.4662V36.5248C8.23136 44.4933 8.05612 44.9643 6.349 41.5835C3.82388 36.5826 5.00367 30.923 9.42569 26.8242L10.3665 25.9522L9.56036 26.2742C9.11676 26.4511 8.70502 26.6618 8.6452 26.7423C8.58539 26.8226 8.12466 27.1532 7.62142 27.4767C1.07228 31.6865 -0.576638 41.5452 4.3669 46.9346C10.9157 54.0739 20.8227 53.2623 25.7056 45.1864C26.3603 44.1035 26.1012 44.0381 24.81 44.9604C22.2493 46.7892 21.7983 47.0662 20.7304 47.4648C19.3522 47.9794 17.7206 48.1852 16.4852 48.0003L15.5518 47.8606V37.8039V27.7471L16.1729 27.871C16.5144 27.9392 17.8184 28.4061 19.0706 28.9085L21.3471 29.8222L23.2281 27.8781C25.4398 25.5921 25.4101 25.6794 23.9962 25.6226C22.3033 25.5546 20.3517 25.034 18.4432 24.1416C16.3368 23.1567 16.9108 22.9933 14.0267 25.3984ZM14.5351 37.4612V47.7334L13.8742 47.603C12.3435 47.3014 8.23136 44.8696 8.23136 44.2662C8.23136 44.1778 8.55257 43.9527 8.94508 43.7659C12.1506 42.2406 13.0136 39.8417 12.8453 32.9234L12.7355 28.4109L13.4783 27.8C13.8868 27.464 14.2918 27.189 14.3781 27.189C14.4644 27.189 14.5351 31.8115 14.5351 37.4612ZM50.1382 36.5795C50.9213 37.1062 51.3331 37.7966 51.3374 38.5901C51.341 39.2312 50.5138 39.438 48.392 39.3262L47.172 39.262L47.1118 38.1252L47.0517 36.9883L48.0268 36.5592C49.2538 36.0194 49.3059 36.0199 50.1382 36.5795ZM51.3405 41.8997L51.34 43.1173H49.205H47.0701L47.0704 41.8997L47.0709 40.6823H49.206H51.3408L51.3405 41.8997ZM50.9871 44.5472C51.2658 44.6538 51.3405 44.928 51.3405 45.8435V47.0046L50.335 47.4745L49.3295 47.9444L48.2507 47.5582L47.172 47.172L47.1121 45.8184C47.0528 44.4773 47.0577 44.4639 47.6206 44.3673C48.3218 44.2468 50.5078 44.3636 50.9871 44.5472ZM3.96129 58.8932C3.96113 59.2295 5.3362 59.2484 29.9894 59.2484H56.0175V63.1036V66.9587H56.6274H57.2375V62.6804V58.4022L30.5993 58.4702C5.39133 58.5344 3.96129 58.5572 3.96129 58.8932ZM2.33436 63.7646V67.8751L28.9725 67.9376L55.6107 68V63.827V59.6541H28.9725H2.33436V63.7646ZM9.79913 62.4175C10.2684 62.8858 10.2922 62.9706 9.99958 63.1341C9.76178 63.267 9.55082 63.2026 9.25466 62.9071C8.5065 62.1607 7.62142 62.7808 7.62142 64.0514C7.62142 65.32 8.72991 66.036 9.2954 65.1327C9.43507 64.9094 9.65913 64.7268 9.79347 64.7268C10.2749 64.7268 10.2991 65.1716 9.84407 65.6549C8.93635 66.619 7.20628 66.0543 6.93598 64.7055C6.51599 62.6104 8.44653 61.0678 9.79913 62.4175ZM13.7218 62.2785C13.7218 62.3827 13.4701 62.4967 13.1624 62.532C12.6052 62.5961 12.6031 62.6022 12.5446 64.3718C12.4992 65.7439 12.4201 66.1472 12.1967 66.1472C11.9731 66.1472 11.8941 65.7439 11.8486 64.3718L11.79 62.5962L11.1942 62.5885C10.8666 62.5841 10.5617 62.4701 10.5164 62.3349C10.4566 62.1559 10.8813 62.0891 12.078 62.0891C12.982 62.0891 13.7218 62.1742 13.7218 62.2785ZM16.6921 63.9151C17.063 64.8638 17.3698 65.7541 17.3741 65.8936C17.3884 66.3535 16.7657 66.1575 16.5686 65.6399C16.4063 65.214 16.243 65.1327 15.5518 65.1327C14.8605 65.1327 14.6974 65.214 14.5351 65.6399C14.3552 66.112 13.7218 66.3678 13.7218 65.9684C13.7218 65.8134 14.0983 64.7693 14.9245 62.633C15.3456 61.5443 15.9315 61.9694 16.6921 63.9151ZM18.8053 62.9006V63.7123H19.6188H20.4321V62.9006C20.4321 62.2194 20.4987 62.0891 20.8461 62.0891C21.2383 62.0891 21.2572 62.1936 21.2021 64.0674C21.1363 66.3004 20.598 67.0449 20.4715 65.0774L20.4095 64.109L19.6582 64.185C18.9198 64.2597 18.9059 64.2773 18.8444 65.2167C18.7969 65.9454 18.7085 66.1573 18.4721 66.1091C17.9721 66.0068 17.9501 62.0889 18.4495 62.0889C18.729 62.0891 18.8053 62.263 18.8053 62.9006ZM25.109 63.8137C25.109 64.8283 25.1928 65.5384 25.3124 65.5384C25.4243 65.5384 25.5158 65.8579 25.5158 66.2486C25.5158 67.0563 24.9779 67.2673 24.869 66.5022C24.8098 66.0867 24.6944 66.0457 23.584 66.0457C22.4735 66.0457 22.3581 66.0867 22.2989 66.5022C22.19 67.2673 21.6521 67.0563 21.6521 66.2486C21.6521 65.8579 21.7394 65.5384 21.846 65.5384C22.1247 65.5384 22.463 64.1781 22.4645 63.0529L22.4656 62.0891H23.7873H25.109V63.8137ZM28.8366 63.9698C29.2469 65.0043 29.5826 65.9021 29.5826 65.9651C29.5826 66.2951 28.9025 66.013 28.7168 65.6061C28.5399 65.2187 28.3442 65.1327 27.6403 65.1327C26.9085 65.1327 26.762 65.2034 26.6608 65.6061C26.5468 66.0588 25.9224 66.2924 25.9224 65.8823C25.9224 65.7737 26.2198 64.8765 26.5832 63.8882C27.4976 61.4022 27.8228 61.414 28.8366 63.9698ZM32.9262 62.5399C33.5957 63.4938 32.9746 64.5239 31.73 64.5239C31.0718 64.5239 31.0269 64.5678 30.9674 65.2666C30.923 65.7896 30.7991 66.0244 30.5486 66.0602C30.2301 66.1059 30.1926 65.8996 30.1926 64.1001V62.0891H31.4011C32.4196 62.0891 32.6595 62.1601 32.9262 62.5399ZM36.6997 62.292C36.6997 62.4035 36.4252 62.4948 36.0896 62.4948H35.4796V64.321C35.4796 66.8032 35.0158 66.8032 34.8695 64.321C34.7693 62.619 34.7606 62.5954 34.2087 62.532C33.041 62.398 33.7146 62.0891 35.1746 62.0891C36.0558 62.0891 36.6997 62.1747 36.6997 62.292ZM42.19 62.292C42.19 62.4035 41.6867 62.4948 41.0716 62.4948C39.9645 62.4948 39.9532 62.5011 39.9532 63.1036C39.9532 63.6801 39.9969 63.7123 40.78 63.7123C41.979 63.7123 42.3933 63.9979 42.3933 64.8239C42.3933 65.7913 41.9234 66.0615 40.3881 65.977L39.1398 65.9083V63.9987V62.0891H40.6649C41.5461 62.0891 42.19 62.1747 42.19 62.292ZM44.023 63.1542L44.4826 64.2195L44.8887 63.1542C45.174 62.4054 45.405 62.0891 45.6664 62.0891C46.0745 62.0891 44.975 65.0248 44.2799 65.7912C43.8849 66.2267 43.2068 66.2593 43.2068 65.8428C43.2068 65.6753 43.3799 65.5384 43.5917 65.5384C44.2635 65.5384 44.239 64.9504 43.5067 63.4993C42.867 62.2318 42.8338 62.0891 43.1791 62.0891C43.4486 62.0891 43.7005 62.4069 44.023 63.1542ZM49.307 63.8137C49.307 64.8283 49.3907 65.5384 49.5104 65.5384C49.6222 65.5384 49.7137 65.8579 49.7137 66.2486C49.7137 67.0425 49.1791 67.2722 49.0671 66.5266C49.0091 66.1407 48.871 66.0943 47.7819 66.0943C46.693 66.0943 46.5549 66.1407 46.4969 66.5266C46.3848 67.2722 45.8502 67.0425 45.8502 66.2486C45.8502 65.8579 45.9374 65.5384 46.0439 65.5384C46.3226 65.5384 46.6611 64.1781 46.6624 63.0529L46.6635 62.0891H47.9853H49.307V63.8137ZM23.1932 62.7348C23.1475 62.8819 23.0579 63.5728 22.9942 64.2703L22.8785 65.5384H23.6976H24.5167L24.4571 64.0674C24.3987 62.6295 24.3847 62.5948 23.837 62.532C23.5038 62.4938 23.2429 62.5761 23.1932 62.7348ZM31.006 63.205C31.006 63.7698 31.0859 63.9151 31.3961 63.9151C32.488 63.9151 32.8501 63.0502 31.9078 62.6927C31.1026 62.3872 31.006 62.442 31.006 63.205ZM47.3913 62.7348C47.3454 62.8819 47.2554 63.5783 47.1909 64.2824L47.074 65.5627L47.8346 65.4998L48.5954 65.4369V64.0166C48.5954 62.6172 48.5871 62.5953 48.0351 62.532C47.7019 62.4938 47.4408 62.5761 47.3913 62.7348ZM15.1982 63.8137C14.9937 64.4789 15.0088 64.5239 15.4354 64.5239C16.0728 64.5239 16.1504 64.384 15.8919 63.7006C15.5988 62.926 15.4646 62.9479 15.1982 63.8137ZM27.3784 63.6204C27.0336 64.3757 27.0823 64.5239 27.6746 64.5239C28.1271 64.5239 28.1883 64.4557 28.0841 64.0674C28.0166 63.8162 27.9602 63.4967 27.9586 63.3571C27.9539 62.9277 27.6271 63.076 27.3784 63.6204ZM38.5298 64.6254C38.5298 64.8283 38.3265 64.9298 37.9197 64.9298C37.513 64.9298 37.3098 64.8283 37.3098 64.6254C37.3098 64.4224 37.513 64.321 37.9197 64.321C38.3265 64.321 38.5298 64.4224 38.5298 64.6254ZM39.9532 64.9298C39.9532 65.6242 41.0787 65.8368 41.5777 65.2367C42.0129 64.7134 41.6679 64.321 40.773 64.321C39.9977 64.321 39.9532 64.354 39.9532 64.9298Z" fill="#8489A8"/>
</svg>
