<svg width="52" height="52" viewBox="0 0 52 52" fill="none" xmlns="http://www.w3.org/2000/svg">
<g id="free-icon-colors-393396 1" clip-path="url(#clip0_63_131)">
<g id="Group 33900">
<g id="Group">
<path id="Vector" opacity="0.93" fill-rule="evenodd" clip-rule="evenodd" d="M0 21.5291C0 21.2583 0 20.9875 0 20.7166C1.9403 18.7255 3.90384 16.745 5.89062 14.7752C6.27234 14.4838 6.67859 14.45 7.10937 14.6737C7.44488 15.0591 7.49566 15.4823 7.26172 15.9432C5.53373 17.6542 3.8241 19.3808 2.13281 21.1229C3.65482 22.6957 5.19519 24.2529 6.75391 25.7948C9.88541 22.6633 13.017 19.5317 16.1484 16.4002C14.6066 14.8415 13.0494 13.3011 11.4766 11.7791C10.6147 12.5902 9.76837 13.4196 8.9375 14.2674C8.19421 14.5728 7.72025 14.3359 7.51562 13.5565C7.57598 13.2731 7.69447 13.0192 7.87109 12.7948C8.90662 11.7253 9.97303 10.6927 11.0703 9.6971C11.4799 9.59143 11.8522 9.65914 12.1875 9.90022C14.608 12.3208 17.0287 14.7414 19.4492 17.1619C19.2979 16.6353 19.4502 16.2121 19.9062 15.8924C24.2056 15.8416 28.505 15.8247 32.8047 15.8416C32.8047 13.4719 32.8047 11.102 32.8047 8.73225C28.3359 8.73225 23.8672 8.73225 19.3984 8.73225C19.4154 10.8314 19.3984 12.9304 19.3477 15.0291C19.0416 15.5405 18.6184 15.659 18.0781 15.3846C17.8763 15.2506 17.7578 15.0645 17.7227 14.826C17.6549 12.4562 17.6549 10.0864 17.7227 7.71663C17.7578 7.47819 17.8763 7.29199 18.0781 7.15804C23.3509 6.9897 28.6322 6.95584 33.9219 7.05647C34.2096 7.14111 34.3959 7.32731 34.4805 7.61507C34.5482 15.1645 34.5482 22.7141 34.4805 30.2635C33.9855 31.0327 33.4437 31.0667 32.8555 30.3651C32.8047 29.0452 32.7877 27.7248 32.8047 26.4041C31.687 26.4211 30.5698 26.4041 29.4531 26.3533C28.8849 26.1143 28.6987 25.6911 28.8945 25.0838C29.0131 24.9653 29.1315 24.8469 29.25 24.7283C30.4344 24.6776 31.6193 24.6606 32.8047 24.6776C32.8047 22.3078 32.8047 19.9379 32.8047 17.5682C28.4632 17.5839 24.1299 17.567 19.8047 17.5174C24.0195 21.7323 28.2344 25.9471 32.4492 30.1619C34.9098 33.0198 35.3498 36.1682 33.7695 39.6073C32.567 41.5549 30.9252 42.9938 28.8437 43.9237C25.942 44.8443 23.3014 44.3703 20.9219 42.5018C13.9247 35.5216 6.95076 28.5306 0 21.5291ZM17.2656 17.6698C19.0004 19.252 20.6932 20.894 22.3437 22.5955C20.2955 24.6437 18.2474 26.6919 16.1992 28.7401C15.8506 29.2106 15.8674 29.6676 16.25 30.1112C16.6224 30.3143 16.9948 30.3143 17.3672 30.1112C19.4492 28.0291 21.5312 25.9471 23.6133 23.8651C25.2735 25.5084 26.9155 27.1673 28.5391 28.8416C25.4584 31.9901 22.3437 35.1047 19.1953 38.1854C17.521 36.5618 15.8621 34.9198 14.2187 33.2596C14.6758 32.8026 15.1328 32.3455 15.5898 31.8885C15.8642 30.8651 15.4749 30.4419 14.4219 30.619C13.9005 31.0387 13.4095 31.4958 12.9492 31.9901C11.289 30.3467 9.64701 28.6879 8.02344 27.0135C11.1063 23.8968 14.1871 20.7822 17.2656 17.6698ZM29.7578 30.1619C32.8983 32.4322 33.6939 35.3437 32.1445 38.8963C31.5267 39.8528 30.765 40.6823 29.8594 41.3846C27.2945 43.1044 24.7555 43.0705 22.2422 41.283C21.6836 40.7244 21.125 40.1658 20.5664 39.6073C20.4987 39.5395 20.4987 39.4719 20.5664 39.4041C23.6507 36.3368 26.7145 33.256 29.7578 30.1619ZM27.5234 36.5604C28.5169 36.6856 28.8724 37.2272 28.5898 38.1854C27.8641 38.9087 27.2208 38.841 26.6602 37.9823C26.5625 37.2622 26.8502 36.7882 27.5234 36.5604Z" fill="#ED6E00"/>
</g>
<g id="Group_2">
<path id="Vector_2" opacity="0.946" fill-rule="evenodd" clip-rule="evenodd" d="M52.0011 20.9198C52.0011 21.2245 52.0011 21.5292 52.0011 21.8338C51.5781 22.2398 51.138 22.6291 50.6808 23.0018C49.6946 23.1122 49.3392 22.6891 49.6144 21.7323C49.7329 21.6138 49.8513 21.4953 49.9699 21.3768C46.837 18.227 43.6885 15.0955 40.5246 11.9823C39.0533 13.4027 37.5976 14.8416 36.1574 16.2987C35.0486 16.6455 34.6254 16.2562 34.8878 15.1307C36.5974 13.4211 38.3071 11.7114 40.0167 10.0018C40.2737 9.85742 40.5446 9.82357 40.8292 9.90025C44.5708 13.5572 48.2948 17.2304 52.0011 20.9198Z" fill="#ED6E00"/>
</g>
<g id="Group_3">
<path id="Vector_3" opacity="0.944" fill-rule="evenodd" clip-rule="evenodd" d="M35.2415 17.3648C35.5279 17.3392 35.7987 17.39 36.054 17.5172C39.0163 20.4794 41.9784 23.4416 44.9407 26.4039C45.9055 25.439 46.8704 24.4742 47.8352 23.5094C48.8673 23.2208 49.2904 23.6101 49.1048 24.6773C44.7884 28.9937 40.4719 33.3101 36.1555 37.6266C35.1543 37.8782 34.7311 37.4889 34.886 36.4586C35.7493 35.5953 36.6126 34.732 37.4759 33.8687C36.5448 32.9377 35.6139 32.0068 34.6829 31.0758C34.392 30.3051 34.6459 29.8312 35.4446 29.6539C35.5761 29.7146 35.7115 29.7654 35.8509 29.8062C36.8466 30.7003 37.8114 31.6313 38.7454 32.5992C40.4056 30.9558 42.0476 29.297 43.6712 27.6226C40.7611 24.6618 37.8327 21.7165 34.886 18.7867C34.6084 18.1999 34.727 17.726 35.2415 17.3648Z" fill="#ED6E00"/>
</g>
<g id="Group_4">
<path id="Vector_4" opacity="0.932" fill-rule="evenodd" clip-rule="evenodd" d="M27.2179 34.8343C28.8871 34.7273 29.9535 35.4721 30.4172 37.0687C30.5017 39.4892 29.3337 40.5894 26.9133 40.3694C25.3256 39.7851 24.6655 38.6509 24.9328 36.9671C25.2834 35.8038 26.0451 35.0929 27.2179 34.8343ZM27.5226 36.5609C26.8494 36.7887 26.5616 37.2626 26.6593 37.9827C27.22 38.8414 27.8633 38.9092 28.589 38.1859C28.8716 37.2277 28.5161 36.6861 27.5226 36.5609Z" fill="#ED6E00"/>
</g>
</g>
</g>
<defs>
<clipPath id="clip0_63_131">
<rect width="52" height="52" fill="white"/>
</clipPath>
</defs>
</svg>
