<svg width="52" height="52" viewBox="0 0 52 52" fill="none" xmlns="http://www.w3.org/2000/svg">
<g id="free-icon-color-picker-6520616 1" clip-path="url(#clip0_63_124)">
<g id="Group">
<path id="Vector" opacity="0.927" fill-rule="evenodd" clip-rule="evenodd" d="M44.7389 -0.0507812C45.3483 -0.0507812 45.9576 -0.0507812 46.567 -0.0507812C49.2024 0.954756 50.0995 2.81673 49.2584 5.53516C49.0891 5.80599 48.9199 6.07682 48.7506 6.34766C47.7335 7.34779 46.7348 8.36342 45.7545 9.39453C46.0336 9.65665 46.2536 9.96134 46.4147 10.3086C46.4864 10.5596 46.4525 10.7966 46.3131 11.0195C45.4806 11.886 44.6173 12.7154 43.7233 13.5078C43.4863 13.5756 43.2493 13.5756 43.0123 13.5078C42.7861 13.2097 42.5153 13.0066 42.1998 12.8984C38.8483 16.25 35.4967 19.6016 32.1451 22.9531C31.6479 23.2883 31.1061 23.5252 30.5201 23.6641C33.4904 26.5753 35.0646 30.113 35.2428 34.2773C34.5979 34.8796 34.09 34.778 33.7193 33.9727C33.5317 32.1066 33.0069 30.3463 32.1451 28.6914C29.8769 29.9948 27.6086 31.2982 25.3404 32.6016C26.1529 34.4635 26.1529 36.3256 25.3404 38.1875C27.5242 39.4996 29.7248 40.7861 31.942 42.0469C32.0573 42.1229 32.1588 42.1061 32.2467 41.9961C33.0234 40.311 33.5482 38.5506 33.8209 36.7148C34.2274 36.347 34.6674 36.3131 35.1412 36.6133C35.2434 36.8199 35.2942 37.0398 35.2936 37.2734C34.3639 43.6404 30.9785 48.143 25.1373 50.7812C23.6768 51.3324 22.1872 51.7217 20.6686 51.9492C19.4498 51.9492 18.2311 51.9492 17.0123 51.9492C10.7461 51.0418 6.26043 47.724 3.55528 41.9961C2.92587 40.4603 2.5027 38.8691 2.28575 37.2227C2.49619 36.3876 2.98707 36.1845 3.75841 36.6133C4.06665 38.557 4.64216 40.4189 5.48497 42.1992C7.70261 40.8533 9.93698 39.533 12.1881 38.2383C12.0567 37.706 11.9212 37.1644 11.7818 36.6133C11.6104 35.2522 11.7628 33.9319 12.2389 32.6523C10.0416 31.2824 7.80722 29.9621 5.53575 28.6914C5.04609 29.4348 4.69062 30.2473 4.46935 31.1289C4.21029 32.21 3.97331 33.2934 3.75841 34.3789C3.4077 34.7109 3.01837 34.7617 2.59044 34.5312C2.37793 34.3431 2.27637 34.1061 2.28575 33.8203C3.06421 27.8984 6.07723 23.5312 11.3248 20.7188C16.0198 18.4124 20.7764 18.26 25.5943 20.2617C25.7004 20.1477 25.768 20.0123 25.7975 19.8555C25.7788 18.8282 26.0835 17.9141 26.7115 17.1133C28.2548 15.5361 29.829 13.9957 31.4342 12.4922C32.4028 12.3431 32.7583 12.7324 32.5006 13.6602C30.8016 15.2913 29.1766 16.984 27.6256 18.7383C27.5746 19.6232 27.3715 20.4695 27.0162 21.2773C26.0376 22.3577 25.0219 23.4072 23.9693 24.4258C23.5326 25.09 23.685 25.5639 24.4264 25.8477C24.5579 25.7869 24.6933 25.7361 24.8326 25.6953C25.8851 24.6089 26.9684 23.5595 28.0826 22.5469C28.8414 22.1378 29.6539 21.9347 30.5201 21.9375C30.7233 21.8359 30.9264 21.7344 31.1295 21.6328C34.4472 18.3151 37.7649 14.9974 41.0826 11.6797C39.9824 10.5795 38.8821 9.47916 37.7818 8.37891C36.7154 9.44531 35.649 10.5117 34.5826 11.5781C33.509 11.7887 33.1535 11.3656 33.5162 10.3086C34.5672 9.27461 35.5997 8.22513 36.6139 7.16016C36.4125 6.90791 36.1924 6.67092 35.9537 6.44922C35.8735 6.13092 35.9073 5.82623 36.0553 5.53516C36.817 4.77344 37.5787 4.01172 38.3404 3.25C38.5394 3.15546 38.7425 3.07081 38.9498 2.99609C39.3873 3.19724 39.7936 3.41729 40.1686 3.65625C41.2583 2.49855 42.4093 1.41521 43.6217 0.40625C43.9931 0.221166 44.3655 0.0688214 44.7389 -0.0507812ZM45.4498 1.47266C47.1228 1.63846 47.9522 2.55252 47.9381 4.21484C47.8595 4.57526 47.7241 4.9138 47.5318 5.23047C46.3131 6.44922 45.0943 7.66797 43.8756 8.88672C43.7276 9.1778 43.6938 9.48248 43.774 9.80078C43.9561 10.0847 44.1762 10.3386 44.4342 10.5625C44.111 10.9026 43.7725 11.2243 43.4186 11.5273C41.5566 9.73307 39.7285 7.90494 37.9342 6.04297C38.2373 5.68906 38.5589 5.35052 38.899 5.02734C39.2895 5.59115 39.8142 5.81119 40.4733 5.6875C41.6243 4.53646 42.7754 3.38541 43.9264 2.23438C44.3895 1.86737 44.8973 1.61346 45.4498 1.47266ZM17.4186 20.4648C17.6217 20.4648 17.8248 20.4648 18.0279 20.4648C18.0449 23.0719 18.0279 25.6786 17.9772 28.2852C15.9561 28.5927 14.3141 29.5407 13.0514 31.1289C10.7832 29.8256 8.51491 28.5221 6.24669 27.2188C8.96086 23.3038 12.6848 21.0525 17.4186 20.4648ZM19.6529 20.4648C21.3163 20.5401 22.9075 20.9125 24.4264 21.582C23.8523 22.2068 23.2599 22.8162 22.649 23.4102C21.909 24.4964 21.909 25.5797 22.649 26.6602C23.5417 27.5054 24.5404 27.6577 25.6451 27.1172C26.6761 26.1709 27.6917 25.2061 28.692 24.2227C29.7393 25.0832 30.6196 26.0819 31.3326 27.2188C29.0731 28.5093 26.8217 29.8127 24.5787 31.1289C23.307 29.5369 21.665 28.6229 19.6529 28.3867C19.6529 25.7461 19.6529 23.1055 19.6529 20.4648ZM18.1295 29.9102C21.5126 29.8574 23.5609 31.4824 24.274 34.7852C24.3388 38.0369 22.7985 40.0513 19.6529 40.8281C16.3914 41.0193 14.3093 39.5466 13.4068 36.4102C13.172 32.907 14.7463 30.7403 18.1295 29.9102ZM13.0514 39.6602C14.3264 41.263 15.9852 42.2109 18.0279 42.5039C18.0279 45.1107 18.0279 47.7174 18.0279 50.3242C13.0465 49.9504 9.15323 47.716 6.34825 43.6211C8.58663 42.2944 10.821 40.9741 13.0514 39.6602ZM24.5279 39.6602C26.7934 40.9624 29.0616 42.2657 31.3326 43.5703C28.5556 47.7025 24.6624 49.9538 19.6529 50.3242C19.6191 47.7166 19.6529 45.1098 19.7545 42.5039C21.7476 42.2025 23.3387 41.2546 24.5279 39.6602Z" fill="#00B394"/>
</g>
</g>
<defs>
<clipPath id="clip0_63_124">
<rect width="52" height="52" fill="white"/>
</clipPath>
</defs>
</svg>
