<svg width="521" height="64" viewBox="0 0 521 64" fill="none" xmlns="http://www.w3.org/2000/svg">
<path fill-rule="evenodd" clip-rule="evenodd" d="M79.5783 63.7436H96.8466V45.3955H104.922C115.848 45.3955 120.197 43.7913 125.831 37.6773C136.022 26.6216 132.412 9.15853 118.58 2.60609L114.925 0.874291L79.5783 0.550572V63.7436ZM164.032 1.49142C139.53 6.66608 129.487 34.9106 145.756 52.8888C163.576 72.5796 197.964 64.8264 204.459 39.6515C210.249 17.2052 188.194 -3.61307 164.032 1.49142ZM214.488 63.7436H256.041V48.0937H231.758V0.60479H214.488V63.7436ZM263.596 63.7436H280.865V0.60479H263.596V63.7436ZM291.657 63.7436H308.925V40.5382H334.829V25.9678H308.925V16.2723L337.257 15.9852L337.555 0.60479H291.657V63.7436ZM347.777 31.6878C340.804 48.7969 335.017 63.0101 334.918 63.27C334.819 63.5299 338.855 63.7436 343.886 63.7436H353.033L356.131 55.63L380.843 55.9186L383.714 63.4741L402.175 63.7691L398.372 54.4468C396.28 49.3199 390.515 35.169 385.562 23.0001L376.557 0.874291L360.454 0.577684L347.777 31.6878ZM408.219 63.7436H425.488V44.3159H432.009L444.645 63.7293L454.525 63.7356C462.278 63.742 464.323 63.5985 464.018 63.0691C463.804 62.6975 460.39 57.6042 456.431 51.7502C449.555 41.5827 448.647 39.9992 449.695 39.9992C449.95 39.9992 451.309 38.9866 452.714 37.7507C464.058 27.765 460.886 9.30683 446.672 2.59492L443.026 0.874291L408.219 0.537815V63.7436ZM470.279 63.7962L507.783 63.4741L510.861 61.9624C524.107 55.4578 524.464 34.6332 511.401 30.3212L509.282 29.6227L512.128 26.8512C520.095 19.0932 516.869 5.73639 506.051 1.68756C503.385 0.690903 501.856 0.60479 486.716 0.60479H470.279V63.7962ZM499.461 16.2133C503.93 20.6831 500.5 25.6042 492.718 25.8849L487.547 26.073V14.6362H492.715C497.706 14.6362 497.936 14.6888 499.461 16.2133ZM177.277 16.7539C186.312 20.1872 190.737 30.5158 186.829 39.052C179.31 55.4769 155.054 50.4537 154.914 32.4437C154.823 20.7979 166.451 12.6397 177.277 16.7539ZM112.622 17.8287C114.279 19.3085 114.384 19.6211 114.384 23.0001C114.384 28.8557 112.996 29.7455 103.853 29.7455H96.8466V16.2547H103.853C110.833 16.2547 110.867 16.2611 112.622 17.8287ZM440.382 18.0886C441.547 19.2543 442.239 20.4854 442.277 21.4613C442.551 28.5161 440.331 30.2845 431.207 30.2845H425.488V16.2547H438.547L440.382 18.0886ZM375.532 40.9432L375.913 42.1567H360.812L362.972 36.6265C364.159 33.5839 365.876 29.1683 366.787 26.8114L368.442 22.5297L371.796 31.1297C373.641 35.8595 375.321 40.2751 375.532 40.9432ZM501.647 38.6852C505.251 40.5493 505.452 45.4752 502.039 48.3456C500.5 49.6405 500.079 49.7122 493.981 49.7122H487.547V37.84H493.779C498.381 37.84 500.44 38.0617 501.647 38.6852Z" fill="white"/>
<path d="M0 0H17.7438V13.9832H0V0Z" fill="#ED2E38"/>
<path d="M0 33.3445H17.7438V47.3277H0V33.3445Z" fill="#008CCC"/>
<path d="M19.8946 0H63.9853V13.9832H19.8946V0Z" fill="#ED6E00"/>
<path d="M19.8946 33.3445H63.9853V47.3277H19.8946V33.3445Z" fill="#2905A1"/>
<path d="M0 16.6723H44.0907V30.6555H0V16.6723Z" fill="#F7D917"/>
<path d="M0 50.5546H63.9853V64H0V50.5546Z" fill="#6600A1"/>
<path d="M46.2415 16.6723H63.9853V30.6555H46.2415V16.6723Z" fill="#00B394"/>
</svg>
