<svg width="170" height="21" viewBox="0 0 170 21" fill="none" xmlns="http://www.w3.org/2000/svg">
<g id="Polifarb_logo">
<path fill-rule="evenodd" clip-rule="evenodd" d="M25.9661 20.7945H31.6006V14.8089H34.2355C37.8008 14.8089 39.2197 14.2856 41.058 12.2911C44.3834 8.68451 43.2054 2.9877 38.6921 0.850159L37.4995 0.285212L25.9661 0.179608V20.7945ZM53.5229 0.486531C45.5281 2.17461 42.2511 11.3886 47.5595 17.2534C53.3741 23.6769 64.5948 21.1477 66.7141 12.9351C68.6034 5.61268 61.4068 -1.17866 53.5229 0.486531ZM69.9864 20.7945H83.545V15.6891H75.6215V0.197295H69.9864V20.7945ZM86.0103 20.7945H91.6449V0.197295H86.0103V20.7945ZM95.1664 20.7945H100.801V13.2244H109.253V8.47123H100.801V5.30835L110.046 5.21472L110.143 0.197295H95.1664V20.7945ZM113.478 10.3372C111.203 15.9185 109.315 20.5552 109.282 20.64C109.25 20.7248 110.567 20.7945 112.209 20.7945H115.193L116.204 18.1476L124.268 18.2418L125.204 20.7066L131.228 20.8028L129.987 17.7617C129.304 16.0892 127.423 11.4728 125.807 7.50312L122.869 0.285212L117.615 0.188452L113.478 10.3372ZM133.2 20.7945H138.835V14.4568H140.963L145.086 20.7898L148.31 20.7919C150.839 20.794 151.506 20.7471 151.407 20.5744C151.337 20.4532 150.223 18.7917 148.931 16.882C146.688 13.5651 146.392 13.0486 146.734 13.0486C146.817 13.0486 147.26 12.7182 147.719 12.3151C151.42 9.05751 150.385 3.03608 145.747 0.846517L144.558 0.285212L133.2 0.175446V20.7945ZM153.45 20.8116L165.687 20.7066L166.692 20.2134C171.014 18.0915 171.13 11.298 166.868 9.8914L166.176 9.66355L167.105 8.75942C169.705 6.2286 168.652 1.87133 165.122 0.550518C164.252 0.225387 163.753 0.197295 158.813 0.197295H153.45V20.8116ZM162.972 5.28911C164.43 6.74725 163.311 8.35262 160.772 8.44418L159.084 8.50556V4.77462H160.771C162.399 4.77462 162.474 4.79179 162.972 5.28911ZM57.8447 5.46546C60.7928 6.58547 62.2367 9.95487 60.9614 12.7395C58.5081 18.0977 50.5935 16.459 50.5477 10.5838C50.518 6.78471 54.3122 4.12332 57.8447 5.46546ZM36.7482 5.81608C37.2888 6.29883 37.3231 6.40079 37.3231 7.50312C37.3231 9.41333 36.8699 9.7036 33.8869 9.7036H31.6006V5.30263H33.8869C36.1644 5.30263 36.1753 5.30471 36.7482 5.81608ZM143.695 5.90087C144.075 6.28115 144.301 6.68275 144.313 7.00112C144.402 9.30252 143.678 9.87943 140.701 9.87943H138.835V5.30263H143.096L143.695 5.90087ZM122.534 13.3565L122.659 13.7524H117.731L118.436 11.9483C118.823 10.9557 119.384 9.51529 119.681 8.74642L120.221 7.34966L121.315 10.1551C121.917 11.6981 122.466 13.1385 122.534 13.3565ZM163.685 12.6199C164.861 13.228 164.927 14.8349 163.813 15.7713C163.311 16.1937 163.174 16.2171 161.184 16.2171H159.084V12.3442H161.118C162.62 12.3442 163.291 12.4165 163.685 12.6199Z" fill="black"/>
<path d="M0 0H5.78973V4.5616H0V0Z" fill="#ED2E38"/>
<path d="M0 10.8777H5.78973V15.4393H0V10.8777Z" fill="#008CCC"/>
<path d="M6.49151 0H20.8781V4.5616H6.49151V0Z" fill="#ED6E00"/>
<path d="M6.49151 10.8777H20.8781V15.4393H6.49151V10.8777Z" fill="#2905A1"/>
<path d="M0 5.43884H14.3866V10.0004H0V5.43884Z" fill="#F7D917"/>
<path d="M0 16.492H20.8781V20.8781H0V16.492Z" fill="#6600A1"/>
<path d="M15.0884 5.43884H20.8781V10.0004H15.0884V5.43884Z" fill="#00B394"/>
</g>
</svg>
